<svg xmlns="http://www.w3.org/2000/svg" xmlns:xlink="http://www.w3.org/1999/xlink" width="384" height="384" viewBox="0 0 288 288" xmlns:v="https://vecta.io/nano"><style><![CDATA[.B{fill:none}.C{stroke-width:.718}.D{stroke:#000}.E{stroke-miterlimit:10}.F{fill:#fff}.G{stroke:#666}.H{fill-rule:evenodd}]]></style><clipPath id="A"><path d="M0 0h288v288H0z" class="H"/></clipPath><g clip-path="url(#A)" class="F"><path d="M0 0h288v288H0z"/><path d="M0 0h288v287.282H0z"/></g><clipPath id="B"><path d="M0 0h288v287.282H0z" class="H"/></clipPath><g clip-path="url(#B)"><use xlink:href="#X" fill="#f5f5f5"/><use xlink:href="#X" class="B C G"/><use xlink:href="#Y" class="F"/><use xlink:href="#Y" class="B C D"/><symbol id="C"><path d="M.205 0c-.043 0-.08.006-.1.02S.04.047.024.064 0 .096 0 .108.003.124.01.132.023.145.03.145.043.14.05.132l.028-.03C.1.092.106.083.125.074S.17.062.2.062c.047 0 .083.01.11.034S.35.154.35.2C.35.23.344.257.332.277S.304.313.284.325a.31.31 0 0 1-.065.032l-.07.027C.125.393.103.405.083.418a.16.16 0 0 0-.047.054C.024.495.018.523.018.558a.18.18 0 0 0 .02.09C.05.672.068.69.09.704s.044.023.07.028A.34.34 0 0 0 .23.74C.255.74.28.737.306.732S.354.72.37.7.398.69.398.68C.398.672.395.664.4.655S.378.642.37.642.355.645.344.65A.2.2 0 0 1 .3.67C.282.677.258.68.23.68a.22.22 0 0 1-.07-.011C.137.662.12.65.105.633s-.02-.04-.02-.07S.1.516.102.5.13.47.15.46A.53.53 0 0 1 .214.432l.07-.027C.31.395.33.382.35.366S.386.33.398.304A.23.23 0 0 0 .416.206C.416.16.407.12.39.09S.346.037.314.022.246 0 .205 0z"/></symbol><symbol id="D"><path d="M.215 0a.26.26 0 0 0-.112.023.19.19 0 0 0-.076.067C.01.12 0 .152 0 .2v.112c0 .033.01.064.026.09s.04.05.07.067.06.026.096.026S.255.478.283.462.335.425.352.398.378.34.378.304C.378.278.374.26.365.248S.345.23.332.228.306.224.29.224H.065V.187C.065.147.08.115.108.09S.173.056.217.056c.027 0 .047.003.06.01a.18.18 0 0 1 .035.02c.01.007.017.01.024.01s.015-.004.02-.01.008-.013.008-.02S.36.05.346.038A.17.17 0 0 0 .294.011.25.25 0 0 0 .215 0m-.15.272h.2c.02 0 .033.002.04.006s.01.014.01.028C.315.327.3.347.3.366S.274.4.255.413.215.432.2.432.146.426.127.415.093.4.082.37.065.332.065.3V.272z"/></symbol><symbol id="E"><path d="M.032 0C.023 0 .015.003.01.008L0 .74C.015.76.023.763.032.763S.05.76.055.756l.01-.73C.05.003.04 0 .032 0z"/></symbol><symbol id="F"><path d="M.03 0C.022 0 .015.002.01.007L0 .58C0 .613.008.644.024.67S.062.72.09.738s.057.025.09.025h.025c.01 0 .015-.003.02-.01S.23.74.23.733.228.718.223.712.212.704.203.704H.186C.163.704.143.698.124.687S.092.662.08.643.066.605.065.584v-.11h.143C.23.46.23.454.23.447S.23.433.225.427L.065.42V.024C.048.002.04 0 .03 0z"/></symbol><symbol id="G"><path d="M.025 0C.002.012 0 .02 0 .028s.002.015.007.02.01.01.018.01h.26C.307.043.3.036.3.028S.307.012.302.007L.025 0z"/></symbol><use xlink:href="#C" transform="matrix(8.618453 0 0 -8.618453 93.37385 203.3122)"/><use xlink:href="#D" transform="matrix(8.618453 0 0 -8.618453 97.70893 203.3122)"/><use xlink:href="#E" transform="matrix(8.618453 0 0 -8.618453 101.88025 203.25186)"/><use xlink:href="#F" transform="matrix(8.618453 0 0 -8.618453 103.595317 203.25186)"/><use xlink:href="#G" transform="matrix(8.618453 0 0 -8.618453 105.68959 201.42475)"/><symbol id="H"><path d="M.038 0C.03 0 .02.002.012.007S0 .02 0 .028l.2.686C.213.722.218.728.225.73S.24.737.25.737.266.735.273.73.286.72.29.714l.208-.68C.498.02.494.014.485.008S.467 0 .458 0 .437.006.434.017L.387.17H.1L.064.017C.06.006.052 0 .038 0m.09.228H.37L.25.63.127.228z"/></symbol><symbol id="I"><path d="M.16 0C.108 0 .068.012.04.035S0 .096 0 .147v.527c.017.022.025.024.032.024S.048.696.055.69l.01-.218h.13C.215.46.217.453.217.446.207.422.202.42.195.42h-.13V.147c0-.033.007-.056.02-.07S.124.06.16.06h.028c.01 0 .016-.003.02-.01S.216.037.216.03.213.015.208.01.196 0 .187 0H.16z"/></symbol><symbol id="J"><path d="M.032 0C.023 0 .015.003.01.008L0 .45C.015.47.023.473.032.473S.048.47.054.466l.01-.063c.01.02.027.037.05.052S.164.48.197.48.258.47.285.453.334.414.35.385.374.326.374.292V.025C.374.017.37.01.364.006S.35 0 .34 0 .326.002.32.006.31.017.31.025v.267c0 .02-.006.042-.017.06S.266.388.247.4.208.42.185.42.146.414.127.404.094.38.082.36.065.32.065.292V.025C.05.003.04 0 .032 0z"/></symbol><symbol id="K"><path d="M.044 0C.035 0 .028.003.02.008l-.01.44C.028.47.035.473.044.473S.06.47.067.466l.01-.44C.06.003.053 0 .044 0m0 .613c-.012 0-.022.004-.03.012S0 .644 0 .655s.004.02.013.03.02.012.03.012.022-.004.03-.012.013-.018.013-.03S.084.634.075.625.056.613.044.613z"/></symbol><symbol id="L"><path d="M.2 0C.156 0 .125.01.096.026a.22.22 0 0 0-.07.07C.01.125 0 .157 0 .2V.3C0 .332.01.363.026.39s.04.052.07.07A.18.18 0 0 0 .19.486C.224.486.255.477.284.46S.336.42.353.392.38.333.38.3V.2C.38.157.37.125.353.096a.21.21 0 0 0-.069-.07C.255.01.224 0 .2 0m0 .06c.023 0 .043.006.062.018s.035.03.046.048.017.04.017.064V.3C.315.32.31.34.298.36S.272.395.253.407A.11.11 0 0 1 .19.426C.167.426.145.42.126.407S.092.38.08.36.065.32.065.3V.2C.065.167.07.146.082.126S.108.09.127.078.167.06.2.06z"/></symbol><use xlink:href="#H" transform="matrix(8.618453 0 0 -8.618453 85.94169 213.30672)"/><use xlink:href="#I" transform="matrix(8.618453 0 0 -8.618453 90.88867 213.30672)"/><use xlink:href="#I" transform="matrix(8.618453 0 0 -8.618453 93.431118 213.30672)"/><use xlink:href="#D" transform="matrix(8.618453 0 0 -8.618453 95.758098 213.36705)"/><use xlink:href="#J" transform="matrix(8.618453 0 0 -8.618453 99.85185 213.30672)"/><use xlink:href="#I" transform="matrix(8.618453 0 0 -8.618453 104.092128 213.30672)"/><use xlink:href="#K" transform="matrix(8.618453 0 0 -8.618453 106.54838 213.30672)"/><use xlink:href="#L" transform="matrix(8.618453 0 0 -8.618453 108.12555 213.36705)"/><use xlink:href="#J" transform="matrix(8.618453 0 0 -8.618453 112.32273 213.30672)"/><use xlink:href="#Z" class="F"/><use xlink:href="#Z" class="B C D"/><symbol id="M"><path d="M0 0z"/></symbol><symbol id="N"><path d="M.033 0C.024 0 .017.002.01.006S0 .016 0 .025v.68C0 .714.003.72.01.724S.023.73.03.73h.354C.393.73.4.728.403.72.41.693.407.686.402.68S.392.67.384.67H.066V.395h.158C.246.38.248.373.248.365.238.34.232.338.224.338H.066V.025c0-.01-.004-.015-.01-.02S.04 0 .033 0z"/></symbol><symbol id="O"><path d="M.19 0C.156 0 .124.01.095.026s-.052.04-.07.07S0 .155 0 .188v.267C.016.477.024.48.033.48S.05.477.055.472l.01-.284A.12.12 0 0 1 .082.126C.093.107.108.09.127.078S.168.06.19.06.234.066.253.078.287.106.298.125s.017.04.017.063v.268C.332.477.34.48.348.48S.365.477.37.472L.38.188C.38.155.37.124.354.095S.314.043.285.026.225 0 .19 0z"/></symbol><symbol id="P"><path d="M.03 0C.022 0 .015.002.01.007S.001.018.001.03.002.044.005.05C.042.06.062.068.08.086s.035.04.05.07a.4.4 0 0 1 .035.096L.003.67C0 .69.004.696.013.702A.05.05 0 0 0 .04.711C.052.71.06.706.063.697L.2.33.33.697C.333.706.34.71.35.71S.368.708.377.702.39.69.39.68L.234.25.202.167a.52.52 0 0 0-.04-.082C.147.06.128.04.107.024A.12.12 0 0 0 .031 0z"/></symbol><use xlink:href="#M" transform="matrix(8.618453 0 0 -8.618453 177.14962 203.25186)"/><use xlink:href="#N" transform="matrix(8.618453 0 0 -8.618453 179.5283 203.25186)"/><use xlink:href="#O" transform="matrix(8.618453 0 0 -8.618453 182.71714 203.3122)"/><use xlink:href="#E" transform="matrix(8.618453 0 0 -8.618453 187.10393 203.25186)"/><use xlink:href="#E" transform="matrix(8.618453 0 0 -8.618453 188.88796 203.25186)"/><use xlink:href="#P" transform="matrix(8.618453 0 0 -8.618453 190.18071 205.25135)"/><use xlink:href="#G" transform="matrix(8.618453 0 0 -8.618453 193.97284 201.42475)"/><symbol id="Q"><path d="M.207 0C.17 0 .134.007.103.02S.047.058.028.09 0 .162 0 .214v.3a.24.24 0 0 0 .028.124.17.17 0 0 0 .076.068.26.26 0 0 0 .105.021C.253.737.3.73.32.714a.17.17 0 0 0 .07-.061C.408.628.416.6.416.57.416.553.413.542.407.537S.394.53.383.53.362.532.357.537L.343.59C.34.605.333.618.323.63S.3.655.28.663.24.676.2.676C.163.676.127.664.102.64S.065.576.065.524v-.3c0-.053.013-.09.038-.116S.165.06.213.06c.03 0 .053.004.07.012s.03.018.04.03a.11.11 0 0 1 .019.04l.008.04C.35.2.362.21.382.21.393.21.402.206.407.2S.416.185.416.17C.416.14.408.11.39.085S.35.04.32.023.25 0 .207 0z"/></symbol><symbol id="R"><path d="M.194 0C.15 0 .114.008.085.025S.035.064.02.092A.22.22 0 0 0 0 .19v.107c0 .035.007.067.02.096s.035.05.064.068.065.025.1.025c.028 0 .052-.004.073-.01S.305.46.316.45.334.43.334.42.33.407.325.4.313.39.306.39.292.392.285.398.267.41.253.417a.14.14 0 0 1-.056.009C.154.426.12.414.098.39S.065.337.065.297V.2c0-.04.01-.073.033-.096S.153.06.198.06c.025 0 .045.003.06.01s.025.013.032.02.015.01.022.01.016-.003.02-.01S.34.073.34.066.334.048.322.037.293.018.27.01.223 0 .194 0z"/></symbol><symbol id="S"><path d="M.177 0C.145 0 .116.01.09.026S.04.067.024.096 0 .157 0 .2V.3c0 .034.008.065.024.093S.062.443.09.46s.057.026.1.026S.24.478.26.462.3.43.31.4v.336C.327.768.335.77.344.77S.36.768.367.763l.01-.73C.36.01.353.007.344.007S.33.01.323.015l-.01.062C.303.056.285.038.26.023S.208 0 .177 0m.01.06C.21.06.232.066.25.078S.284.105.295.12.31.15.31.16V.3c0 .027-.006.05-.018.068S.266.4.247.41.21.426.19.426.145.42.126.407.092.38.08.36.064.32.064.3V.2C.064.168.07.147.08.127S.107.09.126.078.166.06.188.06z"/></symbol><use xlink:href="#Q" transform="matrix(8.618453 0 0 -8.618453 170.10216 213.35843)"/><use xlink:href="#L" transform="matrix(8.618453 0 0 -8.618453 174.41136 213.36705)"/><use xlink:href="#J" transform="matrix(8.618453 0 0 -8.618453 178.60855 213.30672)"/><use xlink:href="#J" transform="matrix(8.618453 0 0 -8.618453 182.86606 213.30672)"/><use xlink:href="#D" transform="matrix(8.618453 0 0 -8.618453 186.97705 213.36705)"/><use xlink:href="#R" transform="matrix(8.618453 0 0 -8.618453 190.93292 213.36705)"/><use xlink:href="#I" transform="matrix(8.618453 0 0 -8.618453 194.60436 213.30672)"/><use xlink:href="#D" transform="matrix(8.618453 0 0 -8.618453 196.93134 213.36705)"/><use xlink:href="#S" transform="matrix(8.618453 0 0 -8.618453 200.87857 213.36705)"/><path d="M42.015 205.047h22.717" class="B C D E"/><use xlink:href="#a"/><g class="B C D E"><use xlink:href="#a"/><path d="M42.015 205.047h10.773c4.788 0 7.182-2.035 7.182-6.105V195.9c0-2.035.795-3.093 2.384-3.174l2.384-.115"/></g><use xlink:href="#b"/><g class="B C D E"><use xlink:href="#b"/><use xlink:href="#c"/></g><use xlink:href="#d"/><g class="B C D E"><use xlink:href="#d"/><path d="M221.566 205.047h22.717"/></g><path d="M245.9 205.047l-2.155 1.077.54-1.077-.54-1.077 2.155 1.077z"/><g class="B C D E"><path d="M245.9 205.047l-2.155 1.077.54-1.077-.54-1.077 2.155 1.077zm-110.518 0h15.535"/></g><path d="M152.532 205.047l-2.155 1.077.54-1.077-.54-1.077 2.155 1.077z"/><path d="M152.532 205.047l-2.155 1.077.54-1.077-.54-1.077 2.155 1.077z" class="B C D E"/><use xlink:href="#e" fill="#f5f5f5"/><use xlink:href="#e" class="B C G"/><use xlink:href="#f" class="F"/><use xlink:href="#f" class="B C D"/><use xlink:href="#C" transform="matrix(8.618453 0 0 -8.618453 66.441188 81.21743)"/><use xlink:href="#D" transform="matrix(8.618453 0 0 -8.618453 70.77626 81.21743)"/><use xlink:href="#E" transform="matrix(8.618453 0 0 -8.618453 74.94758 81.157108)"/><use xlink:href="#F" transform="matrix(8.618453 0 0 -8.618453 76.66265 81.157108)"/><use xlink:href="#G" transform="matrix(8.618453 0 0 -8.618453 78.75693 79.329998)"/><use xlink:href="#H" transform="matrix(8.618453 0 0 -8.618453 59.009027 91.21197)"/><use xlink:href="#I" transform="matrix(8.618453 0 0 -8.618453 63.95601 91.21197)"/><use xlink:href="#I" transform="matrix(8.618453 0 0 -8.618453 66.49844 91.21197)"/><use xlink:href="#D" transform="matrix(8.618453 0 0 -8.618453 68.82543 91.27229)"/><use xlink:href="#J" transform="matrix(8.618453 0 0 -8.618453 72.91919 91.21197)"/><use xlink:href="#I" transform="matrix(8.618453 0 0 -8.618453 77.159458 91.21197)"/><use xlink:href="#K" transform="matrix(8.618453 0 0 -8.618453 79.615718 91.21197)"/><use xlink:href="#L" transform="matrix(8.618453 0 0 -8.618453 81.19288 91.27229)"/><use xlink:href="#J" transform="matrix(8.618453 0 0 -8.618453 85.39007 91.21197)"/><path d="M20.47 82.953h22.717" class="B C D E"/><path d="M44.802 82.953l-2.155 1.077.54-1.077-.54-1.077 2.155 1.077z"/><g class="B C D E"><path d="M44.802 82.953l-2.155 1.077.54-1.077-.54-1.077 2.155 1.077zm-24.332 0h10.773c4.788 0 7.182-2.035 7.182-6.105v-3.052c0-2.035.795-3.093 2.384-3.174l2.384-.115"/></g><path d="M44.802 70.427l-2.097 1.178.488-1.1-.596-1.05 2.205.97z"/><g class="B C D E"><path d="M44.802 70.427l-2.097 1.178.488-1.1-.596-1.05 2.205.97zM20.47 82.953h10.773c4.788 0 7.182 2.155 7.182 6.464v3.232c0 2.155.795 3.2 2.384 3.1l2.384-.115"/></g><path d="M44.802 95.564l-2.097 1.178.488-1.1-.596-1.05 2.205.97z"/><path d="M44.802 95.564l-2.097 1.178.488-1.1-.596-1.05 2.205.97z" class="B C D E"/><use xlink:href="#g" class="F"/><use xlink:href="#g" class="B C D"/><use xlink:href="#N" transform="matrix(8.618453 0 0 -8.618453 205.59015 81.157108)"/><use xlink:href="#O" transform="matrix(8.618453 0 0 -8.618453 208.77899 81.21743)"/><use xlink:href="#E" transform="matrix(8.618453 0 0 -8.618453 213.16577 81.157108)"/><use xlink:href="#E" transform="matrix(8.618453 0 0 -8.618453 214.94977 81.157108)"/><use xlink:href="#P" transform="matrix(8.618453 0 0 -8.618453 216.24254 83.156589)"/><use xlink:href="#G" transform="matrix(8.618453 0 0 -8.618453 220.03467 79.329998)"/><use xlink:href="#Q" transform="matrix(8.618453 0 0 -8.618453 197.03482 91.26368)"/><use xlink:href="#L" transform="matrix(8.618453 0 0 -8.618453 201.34403 91.27229)"/><use xlink:href="#J" transform="matrix(8.618453 0 0 -8.618453 205.54122 91.21197)"/><use xlink:href="#J" transform="matrix(8.618453 0 0 -8.618453 209.7987 91.21197)"/><use xlink:href="#D" transform="matrix(8.618453 0 0 -8.618453 213.9097 91.27229)"/><use xlink:href="#R" transform="matrix(8.618453 0 0 -8.618453 217.86556 91.27229)"/><use xlink:href="#I" transform="matrix(8.618453 0 0 -8.618453 221.53699 91.21197)"/><use xlink:href="#D" transform="matrix(8.618453 0 0 -8.618453 223.86396 91.27229)"/><use xlink:href="#S" transform="matrix(8.618453 0 0 -8.618453 227.81119 91.27229)"/><path d="M103.062 70.384h20.663" class="B C D E"/><path d="M125.34 70.384l-2.155 1.077.54-1.077-.54-1.077 2.155 1.077z"/><g class="B C E"><path d="M125.34 70.384l-2.155 1.077.54-1.077-.54-1.077 2.155 1.077z" class="D"/><path d="M113.835 32.678V75.77c0 4.788 1.65 7.182 4.948 7.182h4.94" class="G"/></g><path d="M125.34 82.953l-2.155 1.077.54-1.077-.54-1.077 2.155 1.077z" fill="#666"/><g class="B C E G"><path d="M125.34 82.953l-2.155 1.077.54-1.077-.54-1.077 2.155 1.077zm-11.505-50.275v56.02c0 4.788 1.664 7.187 4.992 7.196l4.992.022"/></g><use xlink:href="#h" fill="#666"/><use xlink:href="#h" class="B C E G"/><use xlink:href="#i" class="F"/><use xlink:href="#i" class="B C D"/><symbol id="T"><path d="M.03 0C.023 0 .016.002.01.006S0 .017 0 .025v.68C0 .714.003.72.01.724S.023.73.03.73h.356C.395.73.4.728.405.72.41.693.41.686.404.68S.394.67.386.67h-.32V.395h.157C.23.395.237.392.24.386S.248.373.248.365C.238.34.232.338.223.338H.066V.06h.32C.394.06.4.058.404.05S.41.038.41.03.41.016.405.01.395 0 .386 0H.03z"/></symbol><symbol id="U"><path d="M.032 0C.023 0 .015.003.01.008L0 .45C.015.47.023.473.032.473S.048.47.054.466L.063.4c.01.02.027.038.05.054S.164.48.197.48h.035C.24.48.245.476.25.47S.258.457.258.45.255.434.25.428.24.42.232.42H.197C.175.42.154.413.133.4S.097.373.084.35A.15.15 0 0 1 .065.273V.025C.05.003.04 0 .032 0z"/></symbol><use xlink:href="#T" transform="matrix(8.618453 0 0 -8.618453 133.88193 76.12967)"/><use xlink:href="#J" transform="matrix(8.618453 0 0 -8.618453 138.13944 76.12967)"/><use xlink:href="#R" transform="matrix(8.618453 0 0 -8.618453 142.25907 76.189998)"/><use xlink:href="#L" transform="matrix(8.618453 0 0 -8.618453 145.74089 76.189998)"/><use xlink:href="#S" transform="matrix(8.618453 0 0 -8.618453 149.79157 76.189998)"/><use xlink:href="#D" transform="matrix(8.618453 0 0 -8.618453 153.96289 76.189998)"/><use xlink:href="#U" transform="matrix(8.618453 0 0 -8.618453 158.05666 76.12967)"/><use xlink:href="#G" transform="matrix(8.618453 0 0 -8.618453 160.34053 74.30256)"/><symbol id="V"><path d="M.03 0C.02 0 .013.002.008.007L0 .707C.013.728.02.73.03.73h.177C.246.73.282.724.313.7S.37.673.388.642A.24.24 0 0 0 .416.518V.214C.416.162.407.12.388.09S.344.035.313.02.246 0 .207 0H.03m.036.06h.14c.045 0 .08.012.105.037S.35.162.35.214v.304c0 .052-.013.1-.038.115S.252.67.207.67h-.14V.06z"/></symbol><use xlink:href="#V" transform="matrix(8.618453 0 0 -8.618453 135.32956 86.18453)"/><use xlink:href="#D" transform="matrix(8.618453 0 0 -8.618453 139.88872 86.24486)"/><use xlink:href="#R" transform="matrix(8.618453 0 0 -8.618453 143.84458 86.24486)"/><use xlink:href="#L" transform="matrix(8.618453 0 0 -8.618453 147.3264 86.24486)"/><use xlink:href="#S" transform="matrix(8.618453 0 0 -8.618453 151.37708 86.24486)"/><use xlink:href="#D" transform="matrix(8.618453 0 0 -8.618453 155.5484 86.24486)"/><use xlink:href="#U" transform="matrix(8.618453 0 0 -8.618453 159.64217 86.18453)"/><use xlink:href="#H" transform="matrix(8.618453 0 0 -8.618453 133.34317 96.239398)"/><use xlink:href="#I" transform="matrix(8.618453 0 0 -8.618453 138.29016 96.239398)"/><use xlink:href="#I" transform="matrix(8.618453 0 0 -8.618453 140.83261 96.239398)"/><use xlink:href="#D" transform="matrix(8.618453 0 0 -8.618453 143.15959 96.29972)"/><use xlink:href="#J" transform="matrix(8.618453 0 0 -8.618453 147.25334 96.239398)"/><use xlink:href="#I" transform="matrix(8.618453 0 0 -8.618453 151.49362 96.239398)"/><use xlink:href="#K" transform="matrix(8.618453 0 0 -8.618453 153.94988 96.239398)"/><use xlink:href="#L" transform="matrix(8.618453 0 0 -8.618453 155.52704 96.29972)"/><use xlink:href="#J" transform="matrix(8.618453 0 0 -8.618453 159.72423 96.239398)"/><path d="M171.033 82.953h12.202" class="B C D E"/><path d="M184.85 82.953l-2.155 1.077.54-1.077-.54-1.077 2.155 1.077z"/><g class="B C D E"><path d="M184.85 82.953l-2.155 1.077.54-1.077-.54-1.077 2.155 1.077zm58.262 0h22.717"/></g><use xlink:href="#j"/><use xlink:href="#j" class="B C D E"/></g><defs ><path id="X" d="M64.638 165.546h159.44a11.82 11.82 0 0 1 4.535.902 11.82 11.82 0 0 1 3.845 2.569 11.82 11.82 0 0 1 2.569 3.845 11.82 11.82 0 0 1 .674 2.223c.152.763.228 1.534.228 2.312v55.302a11.82 11.82 0 0 1-.902 4.535 11.82 11.82 0 0 1-2.569 3.845 11.82 11.82 0 0 1-1.796 1.474c-.647.432-1.33.797-2.05 1.095s-1.46.523-2.223.674a11.82 11.82 0 0 1-2.312.228H64.638a11.82 11.82 0 0 1-2.312-.228c-.763-.152-1.504-.377-2.223-.674a11.82 11.82 0 0 1-3.845-2.569 11.82 11.82 0 0 1-2.569-3.845 11.82 11.82 0 0 1-.902-4.535v-55.302a11.82 11.82 0 0 1 .902-4.535 11.82 11.82 0 0 1 2.569-3.845 11.82 11.82 0 0 1 3.845-2.569 11.82 11.82 0 0 1 4.535-.902z"/><path id="Y" d="M74.693 179.9h53.147c.495 0 .986.048 1.47.145s.957.24 1.415.43a7.52 7.52 0 0 1 1.304.697c.412.275.793.588 1.143.938s.663.73.938 1.143a7.52 7.52 0 0 1 .697 1.304c.19.457.333.93.43 1.415s.145.976.145 1.47v35.192c0 .495-.048.986-.145 1.47s-.24.957-.43 1.415-.422.892-.697 1.304-.588.793-.938 1.143-.73.663-1.143.938-.846.507-1.304.697-.93.333-1.415.43-.976.145-1.47.145H74.693c-.495 0-.986-.048-1.47-.145s-.957-.24-1.415-.43-.892-.422-1.304-.697-.793-.588-1.143-.938a7.52 7.52 0 0 1-1.635-2.447c-.19-.457-.333-.93-.43-1.415s-.145-.976-.145-1.47V187.45c0-.495.048-.986.145-1.47s.24-.957.43-1.415.422-.892.697-1.304.588-.793.938-1.143.73-.663 1.143-.938a7.52 7.52 0 0 1 1.304-.697c.457-.19.93-.333 1.415-.43s.976-.145 1.47-.145z"/><path id="Z" d="M160.878 179.9h53.147c.495 0 .986.048 1.47.145s.957.24 1.415.43a7.52 7.52 0 0 1 1.304.697c.412.275.793.588 1.143.938s.663.73.938 1.143a7.52 7.52 0 0 1 .697 1.304c.19.457.333.93.43 1.415a7.52 7.52 0 0 1 .145 1.471v35.192a7.52 7.52 0 0 1-.145 1.471c-.097.486-.24.957-.43 1.415s-.422.892-.697 1.304-.588.793-.938 1.143-.73.663-1.143.938-.846.507-1.304.697-.93.333-1.415.43-.976.145-1.47.145h-53.147c-.495 0-.986-.048-1.47-.145s-.957-.24-1.415-.43-.892-.422-1.304-.697-.793-.588-1.143-.938a7.52 7.52 0 0 1-1.635-2.447c-.19-.457-.333-.93-.43-1.415a7.52 7.52 0 0 1-.145-1.471V187.45c0-.495.048-.986.145-1.47s.24-.957.43-1.415a7.52 7.52 0 0 1 1.635-2.447c.35-.35.73-.663 1.143-.938s.846-.507 1.304-.697.93-.333 1.415-.43.976-.145 1.47-.145z"/><path id="a" d="M66.348 205.047l-2.155 1.077.54-1.077-.54-1.077 2.155 1.077z"/><path id="b" d="M66.348 192.522L64.25 193.7l.488-1.1-.596-1.05 2.205.97z"/><path id="c" d="M42.015 205.047h10.773c4.788 0 7.182 2.155 7.182 6.464v3.232c0 2.155.795 3.19 2.384 3.1l2.384-.115"/><path id="d" d="M66.348 217.66l-2.097 1.178.488-1.1-.596-1.05 2.205.97z"/><path id="e" d="M43.092 43.45h202.534a11.82 11.82 0 0 1 4.535.902 11.82 11.82 0 0 1 3.845 2.569 11.82 11.82 0 0 1 1.474 1.796c.432.647.797 1.33 1.095 2.05a11.82 11.82 0 0 1 .674 2.223c.152.763.228 1.534.228 2.312v55.302a11.82 11.82 0 0 1-.902 4.535 11.82 11.82 0 0 1-2.569 3.845c-.55.55-1.15 1.04-1.796 1.474a11.82 11.82 0 0 1-2.049 1.095c-.72.298-1.46.523-2.223.674a11.82 11.82 0 0 1-2.312.228H43.092a11.82 11.82 0 0 1-2.312-.228c-.763-.152-1.504-.377-2.223-.674a11.82 11.82 0 0 1-3.845-2.569 11.82 11.82 0 0 1-2.569-3.845 11.82 11.82 0 0 1-.902-4.535V55.302a11.82 11.82 0 0 1 .902-4.535 11.82 11.82 0 0 1 2.569-3.845 11.82 11.82 0 0 1 3.845-2.569 11.82 11.82 0 0 1 4.535-.902z"/><path id="f" d="M53.147 57.815H95.52c.495 0 .986.048 1.47.145s.957.24 1.415.43.892.422 1.304.697a7.52 7.52 0 0 1 1.143.938c.35.35.663.73.938 1.143s.507.846.697 1.304.333.93.43 1.415.145.976.145 1.47v35.192c0 .495-.048.986-.145 1.47s-.24.957-.43 1.415-.422.892-.697 1.304a7.52 7.52 0 0 1-.938 1.143c-.35.35-.73.663-1.143.938s-.846.507-1.304.697-.93.333-1.415.43-.976.145-1.47.145H53.147c-.495 0-.986-.048-1.47-.145s-.957-.24-1.415-.43-.892-.422-1.304-.697-.793-.588-1.143-.938-.663-.73-.938-1.143-.507-.846-.697-1.304-.333-.93-.43-1.415-.145-.976-.145-1.47V65.357c0-.495.048-.986.145-1.47s.24-.957.43-1.415.422-.892.697-1.304.588-.793.938-1.143a7.52 7.52 0 0 1 1.143-.938c.412-.275.846-.507 1.304-.697s.93-.333 1.415-.43.976-.145 1.47-.145z"/><path id="g" d="M193.197 57.815h42.374c.495 0 .986.048 1.47.145a7.52 7.52 0 0 1 1.415.429c.457.19.892.422 1.304.697s.793.588 1.143.938a7.52 7.52 0 0 1 1.635 2.447 7.52 7.52 0 0 1 .429 1.415c.097.486.145.976.145 1.47v35.192c0 .495-.048.986-.145 1.47a7.52 7.52 0 0 1-1.126 2.718 7.52 7.52 0 0 1-.938 1.143c-.35.35-.73.663-1.143.938s-.846.507-1.304.697-.93.333-1.415.43-.976.145-1.47.145h-42.374c-.495 0-.986-.048-1.47-.145s-.957-.24-1.415-.43-.892-.422-1.304-.697a7.52 7.52 0 0 1-2.081-2.081c-.275-.412-.507-.846-.697-1.304a7.52 7.52 0 0 1-.429-1.415c-.097-.486-.145-.976-.145-1.47V65.357c0-.495.048-.986.145-1.47a7.52 7.52 0 0 1 1.126-2.718 7.52 7.52 0 0 1 2.081-2.081c.412-.275.846-.507 1.304-.697s.93-.333 1.415-.43.976-.145 1.47-.145z"/><path id="h" d="M125.434 95.923l-2.162 1.07.546-1.077-.54-1.077 2.155 1.084z"/><path id="i" d="M132.882 57.815h31.414a6.72 6.72 0 0 1 2.578.513 6.72 6.72 0 0 1 2.186 1.46 6.72 6.72 0 0 1 1.46 2.186 6.72 6.72 0 0 1 .513 2.578v36.8a6.72 6.72 0 0 1-.513 2.578 6.72 6.72 0 0 1-1.46 2.186 6.72 6.72 0 0 1-2.186 1.46 6.72 6.72 0 0 1-2.578.513h-31.414a6.72 6.72 0 0 1-2.578-.513 6.72 6.72 0 0 1-2.186-1.46 6.72 6.72 0 0 1-1.46-2.186 6.72 6.72 0 0 1-.513-2.578v-36.8a6.72 6.72 0 0 1 .513-2.578 6.72 6.72 0 0 1 1.46-2.186 6.72 6.72 0 0 1 2.186-1.46 6.72 6.72 0 0 1 2.578-.513z"/><path id="j" d="M267.445 82.953L265.3 84.03l.54-1.077-.54-1.077 2.155 1.077z"/></defs></svg>