<svg xmlns="http://www.w3.org/2000/svg" xmlns:xlink="http://www.w3.org/1999/xlink" width="282.559998" height="108.160004" viewBox="0 0 211.92 81.119998" xmlns:v="https://vecta.io/nano"><style><![CDATA[.B{fill:none}.C{stroke-width:.718644}.D{stroke:#000}.E{stroke-miterlimit:10}.F{fill-rule:evenodd}]]></style><clipPath id="A"><path d="M0 0h211.999992v80.488135H0z" class="F"/></clipPath><g clip-path="url(#A)"><path d="M0 0h211.99998v80.488128H0z" fill="#fff"/></g><clipPath id="B"><path d="M0 0h211.999992v80.488135H0z" class="F"/></clipPath><g clip-path="url(#B)"><use xlink:href="#X" fill="#f5f5f5"/><use xlink:href="#X" stroke="#666" class="B C"/><use xlink:href="#Y" fill="#fff"/><use xlink:href="#Y" class="B C D"/><symbol id="C"><path d="M.205 0c-.042667 0-.079333.006333-.1.02S.040667.047333.024.064 0 .096 0 .108.003.124.01.132.022667.145.03.145.043333.140667.05.132l.028-.03C.1.092333.105667.082667.125.074S.169667.062.2.062c.046667 0 .083.011333.11.034S.35.154.35.2C.35.231333.344.257.332.277S.304.313.284.325.243.348333.22.357l-.07.027C.124667.393333.103.404667.083.418S.048.45.036.472.018.523333.018.558s.006667.066667.02.1.030333.042667.05.056a.2149.2149 0 0 0 .069.028C.182667.737333.206667.74.23.74S.28.737333.306.732.353667.719333.37.7.398.69.398.68C.398.672333.395333.664333.4.655S.378333.642.37.642.354667.645.344.65.318667.664.3.67.258333.68.23.68.18.676333.16.67.12.650333.105.633.084.593333.084.564.1.515667.102.5.129667.469667.15.46.190667.44.214.432l.07-.027C.31.395.330667.382.35.366S.386.329333.398.304.416.246.416.206C.416.158667.407.119667.39.09S.346.036667.314.022.246333 0 .205 0z"/></symbol><symbol id="D"><path d="M.215 0C.173 0 .135667.007667.103.023S.045667.061333.027.1 0 .152 0 .2v.112c0 .033333.008667.063667.026.09s.040333.050333.07.067.061333.026.096.026S.255.478.283.462.334667.425333.352.398.378.339333.378.304C.378.278.373667.259333.365.248S.345333.230667.332.228.305667.224.29.224H.065V.187c0-.04.014333-.072.043-.096S.173.056.217.056c.026667 0 .047.003333.06.01s.026333.013333.035.02.016667.01.024.01.014667-.003667.02-.01.008-.013.008-.02S.358667.048667.346.038.316667.02.294.01.245667 0 .215 0m-.15.272h.2c.02 0 .033333.002.04.006s.01.014.01.028C.315.327333.309667.347333.3.366S.273667.4.255.413.214667.432.2.432.145667.426333.127.415.093333.389667.082.37.065.332.065.3V.272z"/></symbol><symbol id="E"><path d="M.032 0C.022667 0 .015.002667.01.008S0 .02 0 .025V.74c0 .006667.003.012333.01.017s.013667.007.023.007S.05.760667.055.756.065.745667.065.74V.025C.065.02.061667.013333.055.008S.041333 0 .032 0z"/></symbol><symbol id="F"><path d="M.03 0C.022333 0 .015.002333.01.007S0 .017333 0 .024V.58C0 .613.008.643667.024.67S.062333.721333.09.738s.057.025.09.025h.025c.008667 0 .015333-.003.02-.01S.23.74.23.733.228333.718.223.712.211667.704.203.704H.186C.163333.704.142667.698333.124.687S.091667.661667.08.643.065667.605333.065.584v-.11h.143C.215333.473.22.470333.225.465S.23.453667.23.447.23.433.225.427.215333.42.208.42H.065V.024C.065.017333.061667.011667.055.007S.040333 0 .03 0z"/></symbol><symbol id="G"><path d="M.025 0C.017667 0 .011667.002333.007.007S0 .019333 0 .028.002333.043.007.05s.010667.01.018.01h.26C.29.058.296667.055.302.05S.3.036.3.028.307333.012333.302.007.29 0 .285 0h-.26z"/></symbol><use xlink:href="#C" transform="matrix(8.623728 0 0 -8.623728 54.62422 38.867147)"/><use xlink:href="#D" transform="matrix(8.623728 0 0 -8.623728 58.961957 38.867147)"/><use xlink:href="#E" transform="matrix(8.623728 0 0 -8.623728 63.13583 38.806779)"/><use xlink:href="#F" transform="matrix(8.623728 0 0 -8.623728 64.851947 38.806779)"/><use xlink:href="#G" transform="matrix(8.623728 0 0 -8.623728 66.9475 36.978548)"/><symbol id="H"><path d="M.038 0C.029333 0 .020667.002333.012.007S0 .019333 0 .028c0 .002667.000333.005.001.007l.21.68C.212667.722.217667.727667.225.73S.240333.737.25.737.265667.735.273.73.286333.721333.29.714l.208-.68C.497667.033.498.03.498.03.498.02.493667.014.485.008S.467333 0 .458 0 .437333.005667.434.017L.387.17H.1L.064.017C.060667.005667.052 0 .038 0m.09.228H.37L.25.63.127.228z"/></symbol><symbol id="I"><path d="M.16 0C.107667 0 .068333.011667.04.035S0 .095667 0 .147v.527C0 .680667.003333.686333.01.69s.014667.007.022.007S.048333.695667.055.69.065.680667.065.674v-.2h.13C.201667.473.207.47.21.464S.217.452667.217.446.215.432333.21.427.201667.42.195.42h-.13V.147c0-.032667.007-.055667.02-.07S.124333.06.16.06h.028C.195667.06.202667.056.208.05S.216.037333.216.03.213333.015.208.01.195667 0 .187 0H.16z"/></symbol><symbol id="J"><path d="M.032 0C.022667 0 .015.002667.01.008S0 .02 0 .025V.45c0 .006667.003.012333.01.017s.013667.007.023.007S.048.470667.054.466.063.455667.063.45V.403c.010667.019333.027333.036667.05.052S.163667.48.197.48.258333.470333.285.453.334.413667.35.385.374.326.374.292V.025c0-.008-.003333-.014333-.01-.02S.349667 0 .34 0 .326333.002.32.006.31.017.31.025v.267c0 .021333-.005667.041667-.017.06S.266333.388.247.4.207667.42.185.42.145667.414.127.404.094.379333.082.36.065.318667.065.292V.025C.065.02.061667.013333.055.008S.041333 0 .032 0z"/></symbol><symbol id="K"><path d="M.044 0C.035333 0 .027667.002667.02.008s-.01.01-.01.017V.45c0 .006667.003.012333.01.017s.014333.007.023.007S.06.470667.067.466.077.455667.077.45V.025C.077.02.073667.013333.067.008S.053333 0 .044 0m0 .613c-.012 0-.022333.004-.03.012S0 .643667 0 .655s.004333.02.013.03.02.012.03.012.022333-.004.03-.012.013-.017667.013-.03S.083667.633667.075.625.056.613.044.613z"/></symbol><symbol id="L"><path d="M.2 0C.156 0 .124667.008667.096.026s-.052.041333-.07.07S0 .156667 0 .2V.3C0 .332333.008667.363.026.39s.040333.051667.07.07S.155333.486.2.486.255333.477333.284.46.335667.420667.353.392.38.333.38.3V.2C.38.156667.37.125333.353.096S.312667.044.284.026.224 0 .2 0m0 .06c.022667 0 .043333.006.062.018s.034667.028667.046.048S.315.167333.315.2V.3c0 .021333-.005667.041667-.017.06S.272333.395.253.407.213333.426.2.426.145333.419667.126.407.092333.379333.08.36.065.320333.065.3V.2c0-.022667.005667-.044.017-.064S.108333.090667.127.078.166667.06.2.06z"/></symbol><use xlink:href="#H" transform="matrix(8.623728 0 0 -8.623728 47.18751 48.867795)"/><use xlink:href="#I" transform="matrix(8.623728 0 0 -8.623728 52.137529 48.867795)"/><use xlink:href="#I" transform="matrix(8.623728 0 0 -8.623728 54.681524 48.867795)"/><use xlink:href="#D" transform="matrix(8.623728 0 0 -8.623728 57.00993 48.92816)"/><use xlink:href="#J" transform="matrix(8.623728 0 0 -8.623728 61.10619 48.867795)"/><use xlink:href="#I" transform="matrix(8.623728 0 0 -8.623728 65.34906 48.867795)"/><use xlink:href="#K" transform="matrix(8.623728 0 0 -8.623728 67.806819 48.867795)"/><use xlink:href="#L" transform="matrix(8.623728 0 0 -8.623728 69.38495 48.92816)"/><use xlink:href="#J" transform="matrix(8.623728 0 0 -8.623728 73.584697 48.867795)"/><use xlink:href="#Z" fill="#fff"/><use xlink:href="#Z" class="B C D"/><symbol id="M"><path d="M0 0z"/></symbol><symbol id="N"><path d="M.033 0C.024333 0 .016667.002.01.006S0 .016333 0 .025v.68C0 .714.003.72.01.724S.022667.73.03.73h.354C.392667.73.4.727667.403.72S.41.708667.41.702.406667.685667.402.68.392.67.384.67H.066V.395h.158C.231333.395.237.392.24.386S.248.373.248.365.246.352.242.346.232.338.224.338H.066V.025C.066.016333.062333.01.055.006S.04 0 .033 0z"/></symbol><symbol id="O"><path d="M.19 0C.155667 0 .123667.008667.095.026s-.051667.04-.07.07S0 .154667 0 .188v.267C0 .46.003.466667.01.472S.023667.48.033.48.05.477333.055.472.065.46.065.455V.188c0-.022.005667-.042667.017-.062S.108333.090667.127.078.167667.06.19.06.234333.066.253.078.287333.105667.298.125s.017.04.017.063v.268c0 .006.003333.011333.01.016S.339333.48.348.48.365.477333.37.472.38.462.38.456V.188C.38.154667.371333.123667.354.095S.313667.043333.285.026.225 0 .19 0z"/></symbol><symbol id="P"><path d="M.03 0C.022333 0 .015.002333.01.007S.001.018333.001.03.002333.044.005.05.013667.06.02.06c.021333 0 .041333.01.06.027s.035333.040667.05.07.027.061333.035.096L.003.67C.001.674333 0 .677333 0 .68c0 .008667.004333.016.013.022S.031333.71.04.71.059667.706333.063.697L.2.33.33.697C.333.706333.340333.71.35.71S.367667.708.377.702.39.69.39.68C.39.675667.390333.673.39.67L.234.25.202.167C.190667.137667.177333.110333.162.085S.128333.039333.107.024.06 0 .03 0z"/></symbol><use xlink:href="#M" transform="matrix(8.623728 0 0 -8.623728 138.45127 38.806779)"/><use xlink:href="#N" transform="matrix(8.623728 0 0 -8.623728 140.83142 38.806779)"/><use xlink:href="#O" transform="matrix(8.623728 0 0 -8.623728 144.02219 38.867147)"/><use xlink:href="#E" transform="matrix(8.623728 0 0 -8.623728 148.41167 38.806779)"/><use xlink:href="#E" transform="matrix(8.623728 0 0 -8.623728 150.19676 38.806779)"/><use xlink:href="#P" transform="matrix(8.623728 0 0 -8.623728 151.49031 40.807485)"/><use xlink:href="#G" transform="matrix(8.623728 0 0 -8.623728 155.28475 36.978548)"/><symbol id="Q"><path d="M.207 0C.17 0 .134333.007.103.02S.046667.057667.028.09 0 .162 0 .214v.3c0 .051333.009333.092667.028.124s.044667.054.076.068.067.02.105.02C.253.737.290333.729333.32.714S.375.678333.39.653.416.6.416.57C.416.553333.413.542333.407.537S.393667.53.383.53.362333.532333.357.537.35.548333.35.555.347.577667.343.59.333.618333.323.63.299667.655.28.663.239333.676.2.676C.163333.676.127333.663667.102.64S.065.576.065.524v-.3c0-.052667.012667-.091333.038-.116S.165.06.213.06c.029333 0 .052667.004.07.012s.031333.018333.04.03.015667.026.02.04l.008.04C.351333.200667.362.21.382.21.393333.21.401667.206333.407.2S.416.185.416.17C.416.14.407667.11.39.085S.350333.04.32.023.250333 0 .207 0z"/></symbol><symbol id="R"><path d="M.194 0C.15 0 .113667.008333.085.025S.035.064.02.092 0 .153333 0 .2v.107c0 .035333.006667.067333.02.096S.055333.444333.084.46s.065333.025.1.025c.028 0 .052333-.003667.073-.01S.304667.459667.316.45.334.429667.334.42.33.407333.325.4.313333.39.306.39.292333.392.285.398.267.41.253.417.22.426.197.426C.153667.426.120667.414333.098.39S.065.337.065.297V.2c0-.040667.01-.072667.033-.096S.153333.06.198.06c.025333 0 .045.003.06.01s.024667.013.032.02.015333.01.022.01.015667-.003333.02-.01S.34.073333.34.066.334.047667.322.037.293.018333.27.01.223333 0 .194 0z"/></symbol><symbol id="S"><path d="M.177 0C.145 0 .115667.008667.09.026S.040667.067333.024.096 0 .156667 0 .2V.3c0 .034.008.065.024.093S.061667.443333.09.46s.057333.026.1.026S.24.478.26.462.300333.429333.31.4v.336c0 .006667.003.012333.01.017S.334667.77.344.77.36.767667.367.763.376.752667.376.746V.032C.376.026.373.020333.367.015S.353333.007.344.007.33.009667.323.015s-.01.01-.01.017v.045C.302667.056333.284667.038333.26.023S.207667 0 .177 0m.01.06C.211333.06.232333.066.25.078S.284333.104667.295.12.31.15.31.16V.3C.31.325667.305.348333.293.367S.265667.4.247.41.21.426.19.426.145333.419667.126.407.092333.379333.08.36.064.320333.064.3V.2C.064.168.069667.147.08.127S.107333.090667.126.078.166.06.188.06z"/></symbol><use xlink:href="#Q" transform="matrix(8.623728 0 0 -8.623728 131.39948 48.919538)"/><use xlink:href="#L" transform="matrix(8.623728 0 0 -8.623728 135.71134 48.92816)"/><use xlink:href="#J" transform="matrix(8.623728 0 0 -8.623728 139.91109 48.867795)"/><use xlink:href="#J" transform="matrix(8.623728 0 0 -8.623728 144.1712 48.867795)"/><use xlink:href="#D" transform="matrix(8.623728 0 0 -8.623728 148.28472 48.92816)"/><use xlink:href="#R" transform="matrix(8.623728 0 0 -8.623728 152.243 48.92816)"/><use xlink:href="#I" transform="matrix(8.623728 0 0 -8.623728 155.9167 48.867795)"/><use xlink:href="#D" transform="matrix(8.623728 0 0 -8.623728 158.24509 48.92816)"/><use xlink:href="#S" transform="matrix(8.623728 0 0 -8.623728 162.19475 48.92816)"/><path d="M3.233898 40.603386h22.7307" class="B C D E"/><use xlink:href="#a"/><g class="B C D E"><use xlink:href="#a"/><path d="M3.233898 40.603386h10.77966c4.79096 0 7.18644-2.036156 7.18644-6.108474v-3.054237c0-2.036156.7953-3.09496 2.385898-3.176406l2.385898-.114983"/></g><use xlink:href="#b"/><g class="B C D E"><use xlink:href="#b"/><path d="M3.233898 40.603386h10.77966c4.79096 0 7.18644 2.155932 7.18644 6.467796v3.233898c0 2.155932.7953 3.19318 2.385898 3.11173l2.385898-.114983"/></g><path d="M27.581557 53.222775l-2.09844 1.178576.488678-1.099525-.596475-1.04922 2.206237.97017z"/><g class="B C D E"><path d="M27.581557 53.222775l-2.09844 1.178576.488678-1.099525-.596475-1.04922 2.206237.97017zm155.31334-12.61939h22.7307"/></g><path d="M207.242557 40.603386l-2.155932 1.077966.538983-1.077966-.538983-1.077966 2.155932 1.077966z"/><g class="B C D E"><path d="M207.242557 40.603386l-2.155932 1.077966.538983-1.077966-.538983-1.077966 2.155932 1.077966zm-110.58494 0h15.54427"/></g><path d="M113.818837 40.603386l-2.155932 1.077966.538983-1.077966-.538983-1.077966 2.155932 1.077966z"/><path d="M113.818837 40.603386l-2.155932 1.077966.538983-1.077966-.538983-1.077966 2.155932 1.077966z" class="B C D E"/><symbol id="T"><path d="M.038 0C.030667 0 .022333.003333.013.01S0 .024 0 .032.001333.041333.004.046l.133.2-.13.194C.003667.444667.002.45.002.453s.004333.015333.013.022.018333.01.027.01c.002667 0 .006-.000667.01-.002S.06.48.06.476L.18.293.3.476c.004.006667.010333.01.02.01S.334667.482667.344.476.358.461667.358.453.356333.444667.353.44L.222.246l.134-.2C.358667.042.36.037333.36.032S.355667.017333.347.01.329667 0 .32 0 .306.003333.302.01L.18.197.06.01C.053667.003333.046667 0 .038 0z"/></symbol><symbol id="U"><path d="M0 0z"/></symbol><symbol id="V"><path d="M.033 0C.024333 0 .016667.002.01.006S0 .017 0 .025v.68c0 .009333.003333.015667.01.02S.024333.73.033.73.055.726333.063.717.078333.697.085.685l.27-.532v.554c0 .008.003333.014.01.018S.379333.73.388.73.403333.73.4.725.42.715.42.707V.025C.42.017.417333.010667.4.006S.396 0 .388 0 .370333.003667.363.01.349333.028.344.038L.066.58V.025c0-.008-.003667-.014333-.01-.02S.04 0 .033 0z"/></symbol><g fill="gray"><use xlink:href="#T" transform="matrix(8.623728 0 0 -8.623728 196.69736 78.39256)"/><use xlink:href="#U" transform="matrix(8.623728 0 0 -8.623728 200.00887 78.3322)"/><use xlink:href="#V" transform="matrix(8.623728 0 0 -8.623728 202.38903 78.3322)"/></g></g><defs ><path id="X" d="M25.871184 1.077966h159.538968c.77858 0 1.54967.075947 2.313293.22784s1.5051.376816 2.224404.674767 1.402657.663205 2.050025 1.095762 1.24633.924107 1.796876 1.474648 1.04207 1.149496 1.474622 1.796863.79783 1.33071 1.095767 2.050027.522864 1.460786.674756 2.22441.227868 1.534725.227882 2.31331V68.27118c-.000014.778585-.07596 1.549684-.227882 2.313308s-.37682 1.505085-.674756 2.224404-.663215 1.402655-1.095767 2.050025-.924083 1.246323-1.474622 1.79687-1.149485 1.04209-1.796876 1.47465-1.3307.797803-2.050025 1.095753-1.460752.522885-2.224383.67477-1.534736.22784-2.313315.227846H25.871184c-.778586-.000007-1.549688-.075953-2.3133-.227846s-1.505094-.376814-2.2244-.67477-1.40266-.663203-2.050026-1.09576-1.24632-.924104-1.796862-1.474643-1.04209-1.1495-1.47465-1.79687-.79781-1.330713-1.09576-2.050025-.522873-1.460788-.674768-2.224404-.22784-1.534723-.22784-2.313308V12.935592c-.000001-.778583.075946-1.549686.22784-2.31331s.376816-1.505093.674768-2.22441.663203-1.402658 1.095762-2.050026.924107-1.246323 1.47465-1.796864 1.149495-1.0421 1.796864-1.474648 1.33071-.79781 2.050025-1.095762 1.460786-.522873 2.22441-.674767 1.534724-.22784 2.3133-.22784z"/><path id="Y" d="M35.9322 15.450846h53.179656c.495455 0 .98616.04833 1.472092.14499s.957787.2398 1.415535.429395.892606.42204 1.30457.697304.7931.58807 1.14345.938413.663143.731497.938413 1.143458.5077.846814.697307 1.304562.33274.929593.429404 1.415533.144994.976644.144994 1.472106v35.213556c0 .495455-.048336.98616-.144994 1.4721s-.239797.957787-.429404 1.415534-.422038.8926-.697307 1.304562-.588066.7931-.938413 1.14346-.731486.663145-1.143456.938407-.84683.5077-1.304562.6973-.92959.332745-1.415527.429397-.976644.144994-1.4721.145H35.9322c-.495462-.000007-.986164-.048336-1.472106-.145s-.957787-.2398-1.415535-.429397-.892603-.42203-1.304565-.6973-.793113-.588066-1.143455-.938407-.66315-.731498-.938417-1.14346-.507695-.846814-.6973-1.304562-.33274-.929594-.429398-1.415534-.144987-.976644-.144986-1.4721V22.996608c-.000001-.495462.048327-.986164.144986-1.472106s.239794-.957786.429398-1.415533.422037-.8926.6973-1.304562.588073-.793114.938417-1.143458.731496-.663148 1.143455-.938412.846818-.5077 1.304565-.697305.929593-.332737 1.415535-.429395.976644-.14499 1.472106-.14499z"/><path id="Z" d="M122.16948 15.450846h53.179656c.495455 0 .986145.04833 1.472085.14499s.95778.2398 1.415535.429395.892592.42204 1.304554.697304.793117.58807 1.143463.938413.663136.731497.938413 1.143458.507693.846814.6973 1.304562.33274.929593.429404 1.415533.145.976644.145008 1.472106v35.213556c-.000007.495455-.048343.98616-.145008 1.4721s-.239797.957787-.429404 1.415534-.42203.8926-.6973 1.304562-.588066.7931-.938413 1.14346-.7315.663145-1.14347.938407-.846814.5077-1.304547.6973-.929595.332745-1.415527.429397-.976637.144994-1.472092.145H122.16948c-.495462-.000007-.986174-.048336-1.472113-.145s-.957794-.2398-1.415535-.429397-.8926-.42203-1.304562-.6973-.7931-.588066-1.14345-.938407-.66315-.731498-.93842-1.14346-.507693-.846814-.6973-1.304562-.332732-.929594-.429397-1.415534-.144986-.976644-.144986-1.4721V22.996608c0-.495462.04833-.986164.144986-1.472106s.2398-.957786.429397-1.415533.42203-.8926.6973-1.304562.58808-.793114.93842-1.143458.731486-.663148 1.14345-.938412.846814-.5077 1.304562-.697305.929595-.332737 1.415535-.429395.976652-.14499 1.472113-.14499z"/><path id="a" d="M27.581557 40.603386l-2.155932 1.077966.538983-1.077966-.538983-1.077966 2.155932 1.077966z"/><path id="b" d="M27.581557 28.070235l-2.09844 1.178576.488678-1.099525-.596475-1.04922 2.206237.97017z"/></defs></svg>