<svg xmlns="http://www.w3.org/2000/svg" xmlns:xlink="http://www.w3.org/1999/xlink" width="464" height="299.84" viewBox="0 0 348 224.88" xmlns:v="https://vecta.io/nano"><style><![CDATA[.B{fill:none}.C{stroke-width:.719}.D{stroke:#b85450}.E{stroke:#d6b656}.F{stroke-miterlimit:10}.G{fill-rule:evenodd}.H{fill:#f8cecc}.I{fill:#fff2cc}.J{fill:#fff}.K{fill:#d6b656}.L{fill:#b85450}.M{stroke:#bd7000}.N{fill:#c4c4c4}.O{stroke:#666}.P{stroke:#36393d}.Q{fill:#f0a30a}.R{stroke:#d79b00}.S{stroke:#000}.T{stroke:#bababa}.U{fill:#ffe6cc}.V{stroke:#6c8ebf}.W{fill:#f5f5f5}.X{fill-opacity:.902}.Y{fill-opacity:.702}]]></style><clipPath id="A"><path d="M0 0h348v224.33H0z" class="G"/></clipPath><g clip-path="url(#A)" class="J"><path d="M0 0h348v224.33H0z"/></g><clipPath id="B"><path d="M0 0h348v223.612H0z" class="G"/></clipPath><g clip-path="url(#B)"><g class="B C F"><path d="M260.64 37.03h7.2c4.793 0 7.2 2.397 7.2 7.2v7.2" class="M"/><path d="M177.955 37.03h7.2c4.793 0 7.2 2.397 7.2 7.2v7.2" class="R"/><path d="M289.4 37.03h-7.2c-4.793 0-7.2 1.994-7.2 5.982v5.975" class="M"/></g><use xlink:href="#y" fill="#bd7000"/><g class="B C F"><use xlink:href="#y" class="M"/><path d="M206.715 37.03h-7.22c-4.793 0-7.185 1.994-7.176 5.982l.007 5.975" class="R"/></g><use xlink:href="#z" fill="#d79b00"/><use xlink:href="#z" class="B C F R"/><use xlink:href="#AA" class="J"/><use xlink:href="#AA" class="B C V"/><use xlink:href="#AB" class="J"/><use xlink:href="#AB" class="B C D"/><use xlink:href="#AC" class="J"/><g class="B C"><use xlink:href="#AC" class="E"/><g stroke="#b3b3b3" class="F"><path d="M123.784 155.385l43.27-46.153m-42.428-46.664L166.94 80.7"/></g></g></g><clipPath id="C"><path d="M56.514 166.09h57.52v9.347h-57.52z" class="G"/></clipPath><g clip-path="url(#C)"><use xlink:href="#AD"/><use xlink:href="#AE"/><use xlink:href="#AF"/><use xlink:href="#AG"/><use xlink:href="#AH"/><use xlink:href="#AI"/><path d="M84.888 166.6h-.72l-1.437 6.5h.72l1.437-6.5zm1.394 3.674h-.142c-.42.375-.952.4-1.34.413v.394c.253-.006.576-.02.9-.144v3.177h-.86v.394h2.305v-.394h-.86v-3.84zm3.475 2.818v-.75h-.787v.76h.243l-.243 1.173h.4l.398-1.182z"/><use xlink:href="#AJ"/><path d="M100.616 166.065c-1.457 1.257-1.826 3.162-1.826 4.69 0 1.65.418 3.5 1.826 4.7h.583c-.38-.338-.97-1.07-1.31-2.13-.262-.835-.36-1.708-.36-2.56 0-2.768 1.02-4.12 1.67-4.7h-.583z"/><use xlink:href="#AK"/><path d="M108.533 170.274h-.142c-.42.375-.952.4-1.34.413v.394c.253-.006.576-.02.9-.144v3.177h-.86v.394h2.305v-.394h-.86v-3.84zm2.873 5.182c1.457-1.257 1.826-3.162 1.826-4.7 0-1.65-.418-3.5-1.826-4.7h-.583c.38.338.97 1.07 1.3 2.13.262.835.36 1.708.36 2.56 0 2.768-1.02 4.12-1.67 4.7h.583z"/></g><clipPath id="D"><path d="M56.514 184.8h57.52v9.347h-57.52z" class="G"/></clipPath><g clip-path="url(#D)"><path d="M61.5 188.273c.126 0 .447 0 .447-.3 0-.206-.185-.206-.36-.206H59.44c-1.457 0-2.506 1.567-2.506 2.674 0 .797.534 1.464 1.408 1.464 1.146 0 2.4-1.192 2.4-2.6 0-.366-.087-.722-.32-1.032H61.5zm-3.147 3.443c-.495 0-.855-.366-.855-1.013 0-.563.35-2.43 1.777-2.43.418 0 .884.197.884.92a3.78 3.78 0 0 1-.495 1.661c-.35.554-.874.863-1.3.863zm6.53-6.943c-1.457 1.257-1.826 3.162-1.826 4.7 0 1.65.418 3.5 1.826 4.7h.583c-.38-.338-.97-1.07-1.3-2.13-.262-.835-.36-1.708-.36-2.56 0-2.768 1.02-4.12 1.67-4.7h-.583zm5.85 3.134c0-.02-.3-.216-.573-.3-.214-.075-.466-.103-.796-.103-1.525 0-2.642 1.492-2.642 2.72 0 .873.573 1.68 1.64 1.68.66 0 1.195-.216 1.65-.478l.087-.63c-.3.206-.864.525-1.603.525-.63 0-1.03-.422-1.03-1.145 0-.835.583-2.092 1.777-2.092a1.71 1.71 0 0 1 1.243.422l.243-.6z"/><use xlink:href="#AL"/><path d="M75.147 194.165c1.457-1.257 1.826-3.162 1.826-4.7 0-1.65-.418-3.5-1.826-4.7h-.583c.38.338.97 1.07 1.3 2.13.262.835.36 1.708.36 2.56 0 2.768-1.02 4.12-1.67 4.7h.583zm4.286-2.365v-.75h-.787v.76h.243l-.243 1.173h.4l.398-1.182zm5.455-6.5h-.72l-1.437 6.5h.72l1.437-6.5zm1.148 7.436l-.233.006h-.738l1.004-.857.557-.432c.285-.25.667-.575.667-1.12 0-.707-.544-1.35-1.47-1.35-.686 0-1.114.357-1.334.995l.304.37c.15-.525.376-.932.94-.932.544 0 .958.37.958.932 0 .52-.317.813-.706 1.17-.13.125-.48.407-.615.532l-.822.738v.432h2.745v-.482h-1.256zm3.72-.936v-.75h-.787v.76h.243l-.243 1.173h.4l.398-1.182zm7.476-3.527c.126 0 .447 0 .447-.3 0-.206-.185-.206-.36-.206h-2.146c-1.457 0-2.506 1.567-2.506 2.674 0 .797.534 1.464 1.408 1.464 1.146 0 2.4-1.192 2.4-2.6 0-.366-.087-.722-.32-1.032h1.078zm-3.147 3.443c-.495 0-.855-.366-.855-1.013 0-.563.35-2.43 1.777-2.43.418 0 .884.197.884.92a3.78 3.78 0 0 1-.495 1.661c-.35.554-.874.863-1.3.863zm6.53-6.943c-1.457 1.257-1.826 3.162-1.826 4.7 0 1.65.418 3.5 1.826 4.7h.583c-.38-.338-.97-1.07-1.3-2.13-.262-.835-.36-1.708-.36-2.56 0-2.768 1.02-4.12 1.67-4.7h-.583zm6.074 4.457c0-.966-.65-1.726-1.65-1.726-1.37 0-2.632 1.398-2.632 2.72 0 .966.67 1.68 1.67 1.68 1.3 0 2.613-1.267 2.613-2.674zm-2.486 2.092c-.456 0-1.04-.253-1.04-1.154 0-1.145.777-2.102 1.748-2.102.602 0 1.06.385 1.06 1.116 0 .938-.7 2.14-1.768 2.14z"/><path d="M108.287 192.736l-.233.006h-.738l1.004-.857.557-.432c.285-.25.667-.575.667-1.12 0-.707-.544-1.35-1.47-1.35-.686 0-1.114.357-1.334.995l.304.37c.15-.525.376-.932.94-.932.544 0 .958.37.958.932 0 .52-.317.813-.706 1.17-.13.125-.48.407-.615.532l-.822.738v.432h2.745v-.482h-1.256zm3.12 1.43c1.457-1.257 1.826-3.162 1.826-4.7 0-1.65-.418-3.5-1.826-4.7h-.583c.38.338.97 1.07 1.3 2.13.262.835.36 1.708.36 2.56 0 2.768-1.02 4.12-1.67 4.7h.583z"/></g><clipPath id="E"><path d="M56.514 209.95h74.777v10.066H56.514z" class="G"/></clipPath><g clip-path="url(#E)"><use xlink:href="#AM"/><use xlink:href="#AN"/><path d="M70.712 213.133c0-.018-.31-.21-.574-.29-.214-.073-.467-.1-.798-.1-1.528 0-2.647 1.448-2.647 2.64 0 .847.574 1.63 1.645 1.63.662 0 1.197-.21 1.655-.464l.088-.6c-.31.2-.866.5-1.606.5-.633 0-1.032-.4-1.032-1.11 0-.8.584-2.03 1.78-2.03a1.75 1.75 0 0 1 1.246.41l.243-.583z"/><use xlink:href="#AO"/><use xlink:href="#AP"/><path d="M78.526 214.015c0-.097 0-.23-.15-.23s-.15.134-.15.23v5.61c0 .097 0 .23.15.23s.15-.134.15-.23v-5.61z"/><use xlink:href="#AQ"/><use xlink:href="#AR"/><path d="M90.643 210.6h-.72l-1.44 6.32h.72l1.44-6.32zm.417 3.415c0-.097 0-.23-.15-.23s-.15.134-.15.23v5.6c0 .097 0 .23.15.23s.15-.134.15-.23v-5.6zm3.763.1h-.6v3.145c-.857-.22-.895-1.087-.895-1.5 0-.898-.104-1.172-.526-1.172h-.545v.4c.454.018.46.6.46.898.006.935.493 1.657 1.505 1.8v.65h.6v-.65c1.538-.188 1.55-1.542 1.55-1.95 0-.182.04-.722.46-.74v-.4H96.3c-.298 0-.526.08-.526 1.068 0 .455-.006 1.384-.94 1.603v-3.145zm3.477-.1c0-.097 0-.23-.15-.23s-.15.134-.15.23v5.6c0 .097 0 .23.15.23s.15-.134.15-.23v-5.6zm2.967 2.897v-.73h-.788v.738h.243l-.243 1.138h.4l.4-1.147zm7.493-3.424c.127 0 .448 0 .448-.3 0-.2-.185-.2-.36-.2h-2.15c-1.46 0-2.5 1.52-2.5 2.595 0 .774.535 1.42 1.4 1.42 1.15 0 2.404-1.156 2.404-2.522 0-.355-.088-.7-.32-1.002h1.08zm-3.154 3.342c-.496 0-.857-.355-.857-.983 0-.546.35-2.36 1.78-2.36.42 0 .886.2.886.892 0 .32-.156 1.084-.496 1.612-.35.537-.876.838-1.314.838zm6.544-6.738c-1.46 1.22-1.83 3.07-1.83 4.553 0 1.603.42 3.388 1.83 4.562h.584c-.38-.328-.973-1.038-1.314-2.067-.263-.8-.36-1.657-.36-2.486 0-2.686 1.022-3.998 1.674-4.562h-.584zm6.086 4.325c0-.938-.652-1.676-1.655-1.676-1.372 0-2.638 1.357-2.638 2.64 0 .938.672 1.63 1.674 1.63 1.314 0 2.618-1.23 2.618-2.595zm-2.492 2.03c-.457 0-1.04-.246-1.04-1.12 0-1.1.78-2.04 1.752-2.04.603 0 1.06.373 1.06 1.084 0 .9-.7 2.076-1.77 2.076zm3.36-2.432c0-.097 0-.23-.15-.23s-.15.134-.15.23v5.6c0 .097 0 .23.15.23s.15-.134.15-.23v-5.6zm3.764.1h-.6v3.145c-.857-.22-.895-1.087-.895-1.5 0-.898-.104-1.172-.526-1.172h-.545v.4c.454.018.46.6.46.898.006.935.493 1.657 1.505 1.8v.65h.6v-.65c1.538-.188 1.55-1.542 1.55-1.95 0-.182.04-.722.46-.74v-.4h-.545c-.298 0-.526.08-.526 1.068 0 .455-.006 1.384-.94 1.603v-3.145zm3.487-.1c0-.097 0-.23-.15-.23s-.15.134-.15.23v5.6c0 .097 0 .23.15.23s.15-.134.15-.23v-5.6zm2.354 5.192c1.46-1.22 1.83-3.07 1.83-4.553 0-1.603-.42-3.388-1.83-4.562h-.584c.38.328.973 1.038 1.314 2.067.263.8.36 1.657.36 2.486 0 2.686-1.022 3.998-1.674 4.562h.584z"/></g><clipPath id="F"><path d="M0 0h348v223.612H0z" class="G"/></clipPath><g clip-path="url(#F)"><use xlink:href="#AS" class="J"/><g class="B C"><use xlink:href="#AS" class="S"/><g class="F"><path d="M134.526 21.973v-1.798c0-1.198-1.198-1.798-3.595-1.798h-1.798c-1.198 0-1.798-.6-1.798-1.798v-.9c0-.6 0-.3 0 .9v.9c0 .6-1.198.9-3.595.9h-1.798c-1.198 0-1.798.6-1.798 1.798v1.798" class="T"/><g class="O"><path d="M66.508 51.41l21.57 25.165"/><path d="M73.698 51.4l14.38 25.165M95.27 51.4l-7.2 25.165"/></g></g></g><symbol id="G"><path d="M.033 0C.024 0 .017.002.01.006S0 .017 0 .026v.68C.012.728.02.73.028.73h.184C.25.73.286.724.317.7S.373.673.39.642.418.57.418.52V.51C.418.457.41.415.4.384S.347.33.315.317.25.296.2.296H.066v-.27c0-.01-.004-.015-.01-.02S.04 0 .033 0m.033.353H.2C.255.353.29.365.314.4s.038.064.038.116v.012c0 .052-.013.1-.038.115S.255.67.2.67H.066V.353z"/></symbol><symbol id="H"><path d="M.136 0C.1 0 .067.01.04.032S0 .087 0 .132C0 .17.01.197.03.216S.076.25.11.257.187.27.233.27h.05v.024c0 .02-.004.042-.012.063s-.02.04-.037.052-.04.02-.07.02C.144.43.126.427.112.422S.087.412.08.407.064.4.06.4.045.404.04.412.033.428.033.435.04.452.053.46s.03.014.052.02a.26.26 0 0 0 .063.008c.045 0 .08-.01.106-.028S.32.416.33.387.35.326.35.293v-.26C.35.026.346.02.34.014S.327.007.317.007.302.01.296.014s-.01.012-.01.02v.044C.27.058.25.04.224.024S.17 0 .136 0m.016.055c.022 0 .043.006.063.017s.036.025.05.04.02.032.02.047v.064H.242C.212.224.183.222.156.218S.107.207.1.195.065.164.065.138.073.088.1.075.128.055.152.055z"/></symbol><symbol id="I"><path d="M.177 0C.146 0 .116.01.09.026S.04.068.024.097 0 .157 0 .2V.3c0 .035.008.066.024.094S.062.443.09.46s.057.026.1.026S.24.478.26.462.3.43.31.4v.336C.328.768.335.77.344.77S.362.768.367.763l.01-.73C.376.026.373.02.367.015S.354.007.344.007.33.01.323.015s-.01.01-.01.018v.044C.303.056.285.038.26.023S.208 0 .177 0m.01.06C.212.06.233.066.25.078S.284.105.295.12.31.15.31.16V.3c0 .027-.006.05-.018.068S.266.4.247.4.21.426.19.426.146.42.127.407.093.38.082.36.065.32.065.3V.2C.065.168.07.147.082.127S.108.09.127.078.166.06.188.06z"/></symbol><symbol id="J"><path d="M.044 0C.035 0 .028.003.02.008s-.01.01-.01.018V.45C.028.47.035.473.044.473S.06.47.067.466l.01-.44C.077.02.074.013.067.008S.053 0 .044 0m0 .613c-.012 0-.022.004-.03.012S0 .644 0 .655s.004.02.013.03.02.012.03.012.023-.004.03-.012.013-.018.013-.03S.084.634.075.625.057.613.044.613z"/></symbol><symbol id="K"><path d="M.032 0C.023 0 .016.003.01.008S0 .02 0 .026V.45C.016.47.023.473.032.473S.048.47.054.466l.01-.063c.01.02.027.037.05.052S.164.48.197.48.258.47.285.453.334.414.35.386.374.327.374.292V.026C.374.017.37.01.364.006S.35 0 .34 0 .326.002.32.006.31.017.31.026v.266c0 .02-.006.042-.017.06S.266.388.247.4.208.42.185.42.146.414.127.403.094.38.082.36.065.32.065.292V.026C.065.02.062.013.055.008S.04 0 .032 0z"/></symbol><symbol id="L"><path d="M.203 0C.164 0 .13.006.098.017S.044.043.026.063 0 .106 0 .133s.01.053.026.07.037.03.06.04C.07.248.056.256.045.266S.03.292.03.31.035.344.044.355s.02.02.036.028C.062.398.048.416.04.437S.025.483.025.51v.038c0 .032.007.06.02.085S.08.676.106.7s.056.02.09.02C.22.71.242.707.262.7S.3.682.314.67a.14.14 0 0 0 .034.047c.013.01.025.016.037.016S.402.73.407.723C.415.7.413.695.4.69L.37.673C.36.667.35.656.342.64.35.628.358.614.363.598S.37.565.37.547V.51C.37.478.363.45.348.424S.313.38.286.364.23.343.196.343A.17.17 0 0 0 .119.36.11.11 0 0 1 .098.345C.09.34.088.332.088.32S.096.296.11.29.146.278.17.275l.074-.01C.27.263.295.258.318.25A.13.13 0 0 0 .376.213C.39.196.4.173.4.142S.4.085.373.064A.15.15 0 0 0 .304.016C.275.005.24 0 .203 0M.202.05C.244.05.277.057.3.074s.036.04.036.066c0 .02-.007.038-.02.05s-.03.018-.05.023a.43.43 0 0 1-.061.01L.152.228C.13.22.108.2.1.196S.063.163.063.14.075.09.1.074A.18.18 0 0 1 .202.049M.198.392c.034 0 .06.01.08.033s.03.05.03.084v.038a.12.12 0 0 1-.029.082C.258.65.232.662.197.662S.135.65.116.63.088.58.088.547V.5c0-.033.01-.06.03-.084S.163.392.198.392z"/></symbol><use xlink:href="#G" transform="matrix(8.628099 0 0 -8.628099 114.764598 11.504132)"/><use xlink:href="#H" transform="matrix(8.628099 0 0 -8.628099 118.724887 11.564529)"/><use xlink:href="#I" transform="matrix(8.628099 0 0 -8.628099 122.62479 11.564529)"/><use xlink:href="#I" transform="matrix(8.628099 0 0 -8.628099 126.80078 11.564529)"/><use xlink:href="#J" transform="matrix(8.628099 0 0 -8.628099 131.01993 11.504132)"/><use xlink:href="#K" transform="matrix(8.628099 0 0 -8.628099 132.75417 11.504132)"/><use xlink:href="#L" transform="matrix(8.628099 0 0 -8.628099 136.71445 13.505852)"/><path d="M98.864 22.65V20.85c0-1.198-2.397-1.798-7.2-1.798H86.28c-3.595 0-5.393-.6-5.393-1.798v-.9c0-.6 0-.3 0 .9v.9c0 .6-2.397.9-7.2.9h-5.393c-3.595 0-5.393.6-5.393 1.798v1.798" class="B C F T"/><symbol id="M"><path d="M.032.002C.023.002.016.005.01.01S0 .02 0 .028V.74c.016.022.023.024.032.024S.05.763.055.758l.01-.504L.31.47c.02.006.025.005.03.002C.355.457.357.452.357.446L.203.3.376.046C.38.027.378.022.375.017.356.001.35 0 .345 0S.33.004.325.01L.157.258.065.177v-.15C.065.02.062.015.055.01S.04.002.032.002z"/></symbol><use xlink:href="#M" transform="matrix(10.066115 0 2.516529 -10.066115 78.50672 12.243273)"/><g class="B C F O"><path d="M88.08 51.41v25.165"/><path d="M80.888 51.41l7.2 25.165"/></g><g fill="#4d4d4d"><use xlink:href="#AT"/><path d="M94.62 203.48a1.07 1.07 0 0 1-1.079 1.079 1.07 1.07 0 0 1-1.079-1.079 1.07 1.07 0 0 1 1.079-1.079 1.07 1.07 0 0 1 1.079 1.079zm-7.2 0a1.07 1.07 0 0 1-1.079 1.079 1.07 1.07 0 0 1-1.079-1.079 1.07 1.07 0 0 1 1.079-1.079 1.07 1.07 0 0 1 1.079 1.079z"/></g></g><clipPath id="N"><path d="M.72 184.785h44.58v11.504H.72z" class="G"/></clipPath><g clip-path="url(#N)"><symbol id="O"><path d="M.032 0C.023 0 .016.003.01.008S0 .02 0 .026V.45C.016.47.023.473.032.473S.048.47.054.466L.063.4C.07.413.08.426.093.438S.12.46.138.467.175.48.197.48h.035C.24.48.245.476.25.47S.258.458.258.45.255.434.25.428.24.42.232.42H.197C.175.42.154.413.133.4S.097.373.084.35A.15.15 0 0 1 .065.273V.026C.065.02.062.013.055.008S.04 0 .032 0z"/></symbol><symbol id="P"><path d="M.215 0C.173 0 .136.008.103.024S.046.062.027.1 0 .152 0 .2v.112c0 .033.01.064.026.092s.04.05.07.067.06.025.096.025S.255.478.283.462.335.425.352.398.378.34.378.304C.378.278.374.26.365.248S.345.23.332.228.306.224.29.224H.065V.187c0-.04.014-.072.043-.095S.173.057.217.057c.027 0 .047.003.062.01s.026.013.034.02.017.01.024.01C.356.088.36.084.36.08.365.06.36.05.347.04S.318.02.295.01A.26.26 0 0 0 .215 0m-.15.272h.2c.02 0 .033.002.04.006s.01.014.01.028C.315.327.3.348.3.367S.274.402.255.414.215.432.2.432.146.426.127.415.093.4.082.37.065.333.065.3V.272z"/></symbol><symbol id="Q"><path d="M.194 0C.15 0 .114.008.085.025S.035.064.02.093 0 .154 0 .2v.107c0 .035.007.067.02.096s.035.05.064.068a.22.22 0 0 0 .11.025c.028 0 .052-.004.073-.01S.305.46.316.45.334.43.334.42C.328.402.325.398.32.394.3.39.293.392.285.398S.267.41.254.417.222.426.197.426C.154.426.12.414.098.39S.065.337.065.297V.2c0-.04.01-.073.033-.096S.154.06.198.06c.025 0 .045.003.06.01s.025.013.032.02.015.01.022.01C.33.1.334.086.336.08.34.057.334.048.322.037S.293.018.27.01.224 0 .194 0z"/></symbol><symbol id="R"><path d="M.16 0C.108 0 .068.012.04.035S0 .096 0 .147v.527c.017.022.025.024.032.024S.048.696.055.69l.01-.218h.13C.215.46.217.453.217.446.207.422.202.42.195.42h-.13V.147c0-.033.007-.056.02-.07S.124.06.16.06h.028c.01 0 .016-.003.02-.01S.216.038.216.03.213.015.208.01.196 0 .187 0H.16z"/></symbol><symbol id="S"><path d="M.2 0C.156 0 .125.01.096.026a.22.22 0 0 0-.07.07C.01.125 0 .157 0 .2V.3C0 .332.01.363.026.39s.04.052.07.07A.18.18 0 0 0 .19.486C.224.486.255.477.284.46S.337.42.354.393.38.334.38.3V.2A.18.18 0 0 0 .354.097C.337.068.313.044.284.026S.224 0 .2 0m0 .06c.023 0 .044.006.063.018s.034.03.045.05.017.04.017.063V.3C.315.32.31.34.298.36S.272.395.253.407A.11.11 0 0 1 .19.426.11.11 0 0 1 .127.407C.108.395.093.38.082.36S.065.32.065.3V.2C.065.168.07.147.082.127S.108.09.127.078.167.06.2.06z"/></symbol><symbol id="T"><path d="M.157 0c-.03 0-.06.004-.082.012S.033.03.02.04 0 .062 0 .072C.005.1.008.094.01.097.03.102.038.098.047.1S.07.075.085.067.125.055.155.055c.038 0 .065.007.08.02s.023.03.023.05-.006.04-.018.05S.213.2.194.206.155.22.134.225a.46.46 0 0 0-.06.022C.055.256.04.27.028.285S.01.323.01.35c0 .02.005.042.016.063s.027.04.05.052.054.02.092.02A.29.29 0 0 0 .233.479.16.16 0 0 0 .283.46C.296.453.303.445.303.437.297.42.294.414.3.41.27.403.263.405.254.4S.234.42.22.424.19.43.17.43.127.427.112.418.087.4.08.387.07.364.07.353C.07.334.076.32.088.31A.15.15 0 0 1 .134.284l.06-.018a.26.26 0 0 0 .06-.023C.273.233.29.22.3.2S.318.16.318.13C.318.1.304.058.276.035S.208 0 .157 0z"/></symbol><symbol id="U"><path d="M0 0z"/></symbol><use xlink:href="#G" transform="matrix(8.628099 0 0 -8.628099 1.498324 192.69422)"/><use xlink:href="#O" transform="matrix(8.628099 0 0 -8.628099 5.846877 192.69422)"/><use xlink:href="#P" transform="matrix(8.628099 0 0 -8.628099 8.366277 192.75461)"/><use xlink:href="#I" transform="matrix(8.628099 0 0 -8.628099 12.317937 192.75461)"/><use xlink:href="#J" transform="matrix(8.628099 0 0 -8.628099 16.537075 192.69422)"/><use xlink:href="#Q" transform="matrix(8.628099 0 0 -8.628099 18.133267 192.75461)"/><use xlink:href="#R" transform="matrix(8.628099 0 0 -8.628099 21.808829 192.69422)"/><use xlink:href="#J" transform="matrix(8.628099 0 0 -8.628099 24.26783 192.69422)"/><use xlink:href="#S" transform="matrix(8.628099 0 0 -8.628099 25.846766 192.75461)"/><use xlink:href="#K" transform="matrix(8.628099 0 0 -8.628099 30.048644 192.69422)"/><use xlink:href="#T" transform="matrix(8.628099 0 0 -8.628099 34.069334 192.75461)"/><use xlink:href="#U" transform="matrix(8.628099 0 0 -8.628099 37.11505 192.69422)"/><use xlink:href="#H" transform="matrix(8.628099 0 0 -8.628099 39.108137 192.75461)"/><use xlink:href="#R" transform="matrix(8.628099 0 0 -8.628099 43.137456 192.69422)"/></g><clipPath id="V"><path d="M19.054 199.884h7.2v6.47h-7.2z" class="G"/></clipPath><g clip-path="url(#V)"><path d="M21.634 201.607h1.407l.122-.532h-1.407l.275-1.166h-.704l-.275 1.166h-.857l-.122.532h.836l-.6 2.533c-.02.092-.06.248-.06.413 0 .514.265.688.632.688.734 0 1.326-.257 1.55-.358l-.04-.514c-.01 0-.02 0-.082.037a1.71 1.71 0 0 1-.897.266c-.214 0-.377-.092-.377-.422 0-.064 0-.128.03-.257l.56-2.386zm4.376 3.17c.095-.043.13-.055.13-.1 0-.037-.04-.08-.095-.08-.014 0-.197.03-.3.05l-1.04.184-.15-1.126c-.014-.098-.034-.16-.1-.16-.082 0-.088.05-.102.16l-.15 1.126-1.25-.22-.095-.012c-.054 0-.095.043-.095.08 0 .06.054.086.122.1l1.162.477-.537.863-.136.245c0 .037.027.086.095.086.014 0 .034 0 .075-.03l.238-.232.673-.655.748.722a1.28 1.28 0 0 0 .136.128c.068.06.075.067.102.067.068 0 .095-.05.095-.086 0-.043-.6-.98-.673-1.1l1.156-.483z"/></g><clipPath id="W"><path d="M.72 28.04h32.355v21.57H.72z" class="G"/></clipPath><g clip-path="url(#W)"><symbol id="X"><path d="M.03 0C.023 0 .016.002.01.006S0 .017 0 .026v.68C0 .714.003.72.01.724S.023.73.03.73h.356C.395.73.4.728.405.72.41.693.41.686.404.68S.394.67.386.67h-.32V.395h.157C.23.395.237.392.24.386S.248.373.248.365C.238.34.232.338.223.338H.066V.06h.32C.394.06.4.058.404.052S.41.04.41.03.41.016.405.01.395 0 .386 0H.03z"/></symbol><symbol id="Y"><path d="M.032 0C.012.012.01.017.01.023L0 .17C.017.2.025.192.032.192S.046.2.053.186L.054.023C.046.002.04 0 .032 0z"/></symbol><use xlink:href="#X" transform="matrix(8.628099 0 0 -8.628099 1.790421 35.950414)"/><use xlink:href="#K" transform="matrix(8.628099 0 0 -8.628099 6.052696 35.950414)"/><use xlink:href="#Q" transform="matrix(8.628099 0 0 -8.628099 10.176924 36.01081)"/><use xlink:href="#S" transform="matrix(8.628099 0 0 -8.628099 13.662661 36.01081)"/><use xlink:href="#I" transform="matrix(8.628099 0 0 -8.628099 17.71786 36.01081)"/><use xlink:href="#P" transform="matrix(8.628099 0 0 -8.628099 21.893858 36.01081)"/><use xlink:href="#O" transform="matrix(8.628099 0 0 -8.628099 25.992197 35.950414)"/><use xlink:href="#Y" transform="matrix(8.628099 0 0 -8.628099 28.56337 30.980628)"/><use xlink:href="#T" transform="matrix(8.628099 0 0 -8.628099 29.60737 36.01081)"/><symbol id="Z"><path d="M.207 0C.168 0 .133.007.102.02S.046.058.027.09A.25.25 0 0 0 0 .214v.3c0 .05.01.093.027.124S.07.702.1.716s.067.02.106.02S.282.73.313.716.37.68.388.648A.24.24 0 0 0 .416.524v-.3C.416.162.407.12.388.09S.344.035.313.02.246 0 .207 0m0 .06c.045 0 .08.012.105.037S.35.16.35.214v.3c0 .052-.013.1-.038.115S.252.676.207.676.128.664.103.64.066.576.066.524v-.3c0-.053.012-.09.037-.116S.162.06.207.06z"/></symbol><symbol id="a"><path d="M.19 0C.156 0 .124.01.095.026s-.052.04-.07.07A.18.18 0 0 0 0 .188v.267C.017.477.024.48.033.48S.05.477.055.472l.01-.284A.12.12 0 0 1 .082.126C.093.107.108.09.127.078S.167.06.2.06.235.066.254.078.287.106.298.125s.017.04.017.063v.268C.332.478.34.48.348.48S.366.478.37.473L.38.188C.38.154.37.123.354.094S.314.043.285.026.225 0 .19 0z"/></symbol><symbol id="b"><path d="M.032 0C.023 0 .016.003.01.008S0 .02 0 .026V.68c.016.022.023.024.032.024S.048.703.054.698l.01-.063c.01.02.028.037.05.052a.14.14 0 0 0 .083.024C.23.71.26.702.287.685s.05-.04.065-.067A.18.18 0 0 0 .377.524v-.11C.377.382.37.35.352.322A.2.2 0 0 0 .288.251C.26.234.232.225.2.225S.142.233.118.248.076.28.065.302V.026C.065.02.062.013.055.008S.04 0 .032 0m.156.285C.2.285.23.29.25.303s.034.03.045.05.018.04.018.063v.11c0 .02-.006.042-.017.06S.268.62.25.632a.11.11 0 0 1-.063.019C.166.65.147.646.128.635S.095.61.083.592.065.55.065.524v-.14C.065.374.07.36.08.345S.106.316.125.303.165.285.188.285z"/></symbol><use xlink:href="#Z" transform="matrix(8.628099 0 0 -8.628099 6.212591 46.0683)"/><use xlink:href="#a" transform="matrix(8.628099 0 0 -8.628099 10.854496 46.076929)"/><use xlink:href="#R" transform="matrix(8.628099 0 0 -8.628099 15.151286 46.01653)"/><use xlink:href="#b" transform="matrix(8.628099 0 0 -8.628099 17.722455 48.01825)"/><use xlink:href="#a" transform="matrix(8.628099 0 0 -8.628099 21.855313 46.076929)"/><use xlink:href="#R" transform="matrix(8.628099 0 0 -8.628099 26.152106 46.01653)"/></g><clipPath id="c"><path d="M0 0h348v223.612H0z" class="G"/></clipPath><g clip-path="url(#c)"><path d="M134.526 51.41h1.798c1.198 0 1.798-2.397 1.798-7.2v-3.595c0-2.397.6-3.595 1.798-3.595h.9c.6 0 .3 0-.9 0h-.9c-.6 0-.9-2.397-.9-7.2v-3.595c0-2.397-.6-3.595-1.798-3.595h-1.798" class="B C F T"/><use xlink:href="#AU" class="N"/><use xlink:href="#AU" class="B C S"/><path d="M127.624 23.727V50.33a1.07 1.07 0 0 1-.316.763 1.07 1.07 0 0 1-.763.316h-5.033a1.07 1.07 0 0 1-.763-.316 1.07 1.07 0 0 1-.316-.763V23.727a1.07 1.07 0 0 1 .316-.763 1.07 1.07 0 0 1 .763-.316h5.033a1.07 1.07 0 0 1 .763.316 1.07 1.07 0 0 1 .316.763z" class="J"/><path d="M127.624 23.727V50.33a1.07 1.07 0 0 1-.316.763 1.07 1.07 0 0 1-.763.316h-5.033a1.07 1.07 0 0 1-.763-.316 1.07 1.07 0 0 1-.316-.763V23.727a1.07 1.07 0 0 1 .316-.763 1.07 1.07 0 0 1 .763-.316h5.033a1.07 1.07 0 0 1 .763.316 1.07 1.07 0 0 1 .316.763z" class="B C S"/><path d="M120.434 23.727V50.33a1.07 1.07 0 0 1-.316.763 1.07 1.07 0 0 1-.763.316h-5.033a1.07 1.07 0 0 1-.763-.316 1.07 1.07 0 0 1-.316-.763V23.727a1.07 1.07 0 0 1 .316-.763 1.07 1.07 0 0 1 .763-.316h5.033a1.07 1.07 0 0 1 .763.316 1.07 1.07 0 0 1 .316.763z" class="N"/><path d="M120.434 23.727V50.33a1.07 1.07 0 0 1-.316.763 1.07 1.07 0 0 1-.763.316h-5.033a1.07 1.07 0 0 1-.763-.316 1.07 1.07 0 0 1-.316-.763V23.727a1.07 1.07 0 0 1 .316-.763 1.07 1.07 0 0 1 .763-.316h5.033a1.07 1.07 0 0 1 .763.316 1.07 1.07 0 0 1 .316.763z" class="B C P"/><path d="M106.054 23.727V50.33a1.07 1.07 0 0 1-.316.763 1.07 1.07 0 0 1-.763.316h-5.033a1.07 1.07 0 0 1-.763-.316 1.07 1.07 0 0 1-.316-.763V23.727a1.07 1.07 0 0 1 .316-.763 1.07 1.07 0 0 1 .763-.316h5.033a1.07 1.07 0 0 1 .763.316 1.07 1.07 0 0 1 .316.763z" class="N"/><path d="M106.054 23.727V50.33a1.07 1.07 0 0 1-.316.763 1.07 1.07 0 0 1-.763.316h-5.033a1.07 1.07 0 0 1-.763-.316 1.07 1.07 0 0 1-.316-.763V23.727a1.07 1.07 0 0 1 .316-.763 1.07 1.07 0 0 1 .763-.316h5.033a1.07 1.07 0 0 1 .763.316 1.07 1.07 0 0 1 .316.763z" class="B C P"/><path d="M113.244 23.727V50.33a1.07 1.07 0 0 1-.316.763 1.07 1.07 0 0 1-.763.316h-5.033a1.07 1.07 0 0 1-.763-.316 1.07 1.07 0 0 1-.316-.763V23.727a1.07 1.07 0 0 1 .316-.763 1.07 1.07 0 0 1 .763-.316h5.033a1.07 1.07 0 0 1 .763.316 1.07 1.07 0 0 1 .316.763z" class="N"/><path d="M113.244 23.727V50.33a1.07 1.07 0 0 1-.316.763 1.07 1.07 0 0 1-.763.316h-5.033a1.07 1.07 0 0 1-.763-.316 1.07 1.07 0 0 1-.316-.763V23.727a1.07 1.07 0 0 1 .316-.763 1.07 1.07 0 0 1 .763-.316h5.033a1.07 1.07 0 0 1 .763.316 1.07 1.07 0 0 1 .316.763z" class="B C P"/><path d="M98.864 23.727V50.33a1.07 1.07 0 0 1-.316.763 1.07 1.07 0 0 1-.763.316h-5.033a1.07 1.07 0 0 1-.763-.316 1.07 1.07 0 0 1-.316-.763V23.727a1.07 1.07 0 0 1 .316-.763 1.07 1.07 0 0 1 .763-.316h5.033a1.07 1.07 0 0 1 .763.316 1.07 1.07 0 0 1 .316.763z" class="N"/><path d="M98.864 23.727V50.33a1.07 1.07 0 0 1-.316.763 1.07 1.07 0 0 1-.763.316h-5.033a1.07 1.07 0 0 1-.763-.316 1.07 1.07 0 0 1-.316-.763V23.727a1.07 1.07 0 0 1 .316-.763 1.07 1.07 0 0 1 .763-.316h5.033a1.07 1.07 0 0 1 .763.316 1.07 1.07 0 0 1 .316.763z" class="B C P"/><path d="M84.483 23.727V50.33a1.07 1.07 0 0 1-.316.763 1.07 1.07 0 0 1-.763.316h-5.033a1.07 1.07 0 0 1-.763-.316 1.07 1.07 0 0 1-.316-.763V23.727a1.07 1.07 0 0 1 .316-.763 1.07 1.07 0 0 1 .763-.316h5.033a1.07 1.07 0 0 1 .763.316 1.07 1.07 0 0 1 .316.763z" class="N"/><path d="M84.483 23.727V50.33a1.07 1.07 0 0 1-.316.763 1.07 1.07 0 0 1-.763.316h-5.033a1.07 1.07 0 0 1-.763-.316 1.07 1.07 0 0 1-.316-.763V23.727a1.07 1.07 0 0 1 .316-.763 1.07 1.07 0 0 1 .763-.316h5.033a1.07 1.07 0 0 1 .763.316 1.07 1.07 0 0 1 .316.763z" class="B C P"/><path d="M91.674 23.727V50.33a1.07 1.07 0 0 1-.316.763 1.07 1.07 0 0 1-.763.316h-5.033a1.07 1.07 0 0 1-.763-.316 1.07 1.07 0 0 1-.316-.763V23.727a1.07 1.07 0 0 1 .316-.763 1.07 1.07 0 0 1 .763-.316h5.033a1.07 1.07 0 0 1 .763.316 1.07 1.07 0 0 1 .316.763z" class="N"/><path d="M91.674 23.727V50.33a1.07 1.07 0 0 1-.316.763 1.07 1.07 0 0 1-.763.316h-5.033a1.07 1.07 0 0 1-.763-.316 1.07 1.07 0 0 1-.316-.763V23.727a1.07 1.07 0 0 1 .316-.763 1.07 1.07 0 0 1 .763-.316h5.033a1.07 1.07 0 0 1 .763.316 1.07 1.07 0 0 1 .316.763z" class="B C P"/><path d="M77.293 23.727V50.33a1.07 1.07 0 0 1-.316.763 1.07 1.07 0 0 1-.763.316h-5.033a1.07 1.07 0 0 1-.763-.316 1.07 1.07 0 0 1-.316-.763V23.727a1.07 1.07 0 0 1 .316-.763 1.07 1.07 0 0 1 .763-.316h5.033a1.07 1.07 0 0 1 .763.316 1.07 1.07 0 0 1 .316.763z" class="N"/><path d="M77.293 23.727V50.33a1.07 1.07 0 0 1-.316.763 1.07 1.07 0 0 1-.763.316h-5.033a1.07 1.07 0 0 1-.763-.316 1.07 1.07 0 0 1-.316-.763V23.727a1.07 1.07 0 0 1 .316-.763 1.07 1.07 0 0 1 .763-.316h5.033a1.07 1.07 0 0 1 .763.316 1.07 1.07 0 0 1 .316.763z" class="B C P"/><path d="M62.913 23.727V50.33a1.07 1.07 0 0 1-.316.763 1.07 1.07 0 0 1-.763.316h-5.033a1.07 1.07 0 0 1-.763-.316 1.07 1.07 0 0 1-.316-.763V23.727a1.07 1.07 0 0 1 .316-.763 1.07 1.07 0 0 1 .763-.316h5.033a1.07 1.07 0 0 1 .763.316 1.07 1.07 0 0 1 .316.763z" class="N"/><path d="M62.913 23.727V50.33a1.07 1.07 0 0 1-.316.763 1.07 1.07 0 0 1-.763.316h-5.033a1.07 1.07 0 0 1-.763-.316 1.07 1.07 0 0 1-.316-.763V23.727a1.07 1.07 0 0 1 .316-.763 1.07 1.07 0 0 1 .763-.316h5.033a1.07 1.07 0 0 1 .763.316 1.07 1.07 0 0 1 .316.763z" class="B C P"/><path d="M70.103 23.727V50.33a1.07 1.07 0 0 1-.316.763 1.07 1.07 0 0 1-.763.316h-5.033a1.07 1.07 0 0 1-.763-.316 1.07 1.07 0 0 1-.316-.763V23.727a1.07 1.07 0 0 1 .316-.763 1.07 1.07 0 0 1 .763-.316h5.033a1.07 1.07 0 0 1 .763.316 1.07 1.07 0 0 1 .316.763z" class="N"/><path d="M70.103 23.727V50.33a1.07 1.07 0 0 1-.316.763 1.07 1.07 0 0 1-.763.316h-5.033a1.07 1.07 0 0 1-.763-.316 1.07 1.07 0 0 1-.316-.763V23.727a1.07 1.07 0 0 1 .316-.763 1.07 1.07 0 0 1 .763-.316h5.033a1.07 1.07 0 0 1 .763.316 1.07 1.07 0 0 1 .316.763z" class="B C P"/><use xlink:href="#AV" class="N"/><use xlink:href="#AV" class="B C S"/><path d="M134.814 23.727V50.33a1.07 1.07 0 0 1-.316.763 1.07 1.07 0 0 1-.763.316h-5.033a1.07 1.07 0 0 1-.763-.316 1.07 1.07 0 0 1-.316-.763V23.727a1.07 1.07 0 0 1 .316-.763 1.07 1.07 0 0 1 .763-.316h5.033a1.07 1.07 0 0 1 .763.316 1.07 1.07 0 0 1 .316.763z" class="J"/><path d="M134.814 23.727V50.33a1.07 1.07 0 0 1-.316.763 1.07 1.07 0 0 1-.763.316h-5.033a1.07 1.07 0 0 1-.763-.316 1.07 1.07 0 0 1-.316-.763V23.727a1.07 1.07 0 0 1 .316-.763 1.07 1.07 0 0 1 .763-.316h5.033a1.07 1.07 0 0 1 .763.316 1.07 1.07 0 0 1 .316.763z" class="B C S"/></g><clipPath id="d"><path d="M76.934 33.973h7.2v5.393h-7.2z" class="G"/></clipPath><g clip-path="url(#d)"><path d="M83.417 36.22c.154-.085.224-.122.224-.256 0-.146-.118-.22-.213-.22-.118 0-1.653.244-1.9.28l-.4.06-.366-2.156c-.035-.22-.06-.353-.236-.353s-.213.17-.236.34l-.366 2.168-2.114-.317c-.118-.024-.142-.024-.177-.024-.094 0-.213.073-.213.22 0 .134.047.158.295.304l1.842 1-.815 1.717-.224.512c.024.097.106.183.2.207.024-.012.094-.024.118-.037.07-.037.4-.365.508-.487.094-.1.425-.438.626-.645l.555-.536c.19.158.53.524.79.792l.744.743c.118.122.142.122.272.17.094-.024.177-.1.2-.207-.047-.146-.047-.17-.236-.548l-.803-1.68 1.913-1.047z"/></g><clipPath id="e"><path d="M0 0h348v223.612H0z" class="G"/></clipPath><g clip-path="url(#e)"><path d="M88.08 141.285v19.147" class="B C F O"/><use xlink:href="#AW" fill="#666"/><use xlink:href="#AW" class="B C F O"/><use xlink:href="#AX" class="W"/><use xlink:href="#AX" class="B C O"/><symbol id="f"><path d="M.118 0C.11 0 .102.002.095.006s-.01.01-.01.02V.62L.045.554C.033.543.03.542.026.542S.012.545.007.55 0 .564 0 .57C.008.594.012.598.015.6l.082.116C.1.73.115.732.122.732S.136.73.142.725.15.715.15.707v-.68C.15.017.147.01.14.006S.126 0 .118 0z"/></symbol><symbol id="g"><path d="M.025 0C.002.013 0 .02 0 .028s.002.016.007.02.01.01.018.01h.26C.307.044.3.037.3.028S.307.013.302.008L.025 0z"/></symbol><symbol id="h"><path d="M.03 0C.02 0 .014.002.008.007L0 .707C.014.73.02.73.03.73h.177C.246.73.282.724.313.7S.37.673.388.642A.24.24 0 0 0 .416.518V.214C.416.162.407.12.388.09S.345.035.313.02.246 0 .207 0H.03m.036.06h.14c.045 0 .08.012.105.037S.35.16.35.214v.304c0 .052-.013.1-.038.115S.252.67.207.67h-.14V.06z"/></symbol><symbol id="i"><path d="M.207 0C.17 0 .135.007.103.02S.047.058.028.09 0 .162 0 .214v.3a.24.24 0 0 0 .028.124.17.17 0 0 0 .076.068.26.26 0 0 0 .105.021C.253.737.3.73.32.714a.17.17 0 0 0 .07-.061C.408.628.416.6.416.57.416.554.413.543.407.538S.394.53.383.53.362.532.357.537L.343.592C.34.606.333.62.323.632S.3.655.28.663.24.676.2.676C.163.676.128.664.103.64S.066.576.066.524v-.3c0-.053.012-.09.037-.116S.165.06.213.06c.03 0 .054.004.07.012s.03.02.04.03a.11.11 0 0 1 .019.04l.008.04C.35.193.354.2.36.203S.372.2.382.2.402.207.407.2.416.185.416.17C.416.14.408.11.39.085S.35.04.32.023.25 0 .207 0z"/></symbol><symbol id="j"><path d="M.195 0C.17.007.167.01.165.016l-.16.422C0 .458.002.463.006.468.028.482.034.483.04.483.058.477.06.473.063.468l.132-.36.132.356c.01.017.016.02.023.02C.373.476.378.473.383.468.4.45.4.448.39.445L.225.016C.208.002.202 0 .195 0z"/></symbol><g fill="#333"><use xlink:href="#f" transform="matrix(8.628099 0 0 -8.628099 73.61692 87)"/><use xlink:href="#g" transform="matrix(8.628099 0 0 -8.628099 75.903369 85.170848)"/><use xlink:href="#h" transform="matrix(8.628099 0 0 -8.628099 79.62207 87)"/><use xlink:href="#U" transform="matrix(8.628099 0 0 -8.628099 83.79806 87)"/><use xlink:href="#i" transform="matrix(8.628099 0 0 -8.628099 86.11901 87.051769)"/><use xlink:href="#S" transform="matrix(8.628099 0 0 -8.628099 90.43305 87.060398)"/><use xlink:href="#K" transform="matrix(8.628099 0 0 -8.628099 94.63493 87)"/><use xlink:href="#j" transform="matrix(8.628099 0 0 -8.628099 98.43129 87.06902)"/></g><use xlink:href="#AY" class="W"/><use xlink:href="#AY" class="B C O"/><g fill="#333"><use xlink:href="#f" transform="matrix(8.628099 0 0 -8.628099 73.61692 112.16529)"/><use xlink:href="#g" transform="matrix(8.628099 0 0 -8.628099 75.903369 110.336139)"/><use xlink:href="#h" transform="matrix(8.628099 0 0 -8.628099 79.62207 112.16529)"/><use xlink:href="#U" transform="matrix(8.628099 0 0 -8.628099 83.79806 112.16529)"/><use xlink:href="#i" transform="matrix(8.628099 0 0 -8.628099 86.11901 112.21706)"/><use xlink:href="#S" transform="matrix(8.628099 0 0 -8.628099 90.43305 112.225688)"/><use xlink:href="#K" transform="matrix(8.628099 0 0 -8.628099 94.63493 112.16529)"/><use xlink:href="#j" transform="matrix(8.628099 0 0 -8.628099 98.43129 112.234317)"/></g><path d="M120.434 129.062v10.066c0 .286-.055.56-.164.825s-.265.498-.468.7-.436.358-.7.468-.54.164-.825.164H57.88c-.286 0-.56-.055-.825-.164s-.498-.265-.7-.468-.358-.436-.468-.7-.164-.54-.164-.825v-10.066c0-.286.055-.56.164-.825s.265-.498.468-.7.436-.358.7-.468.54-.164.825-.164h60.397c.286 0 .56.055.825.164s.498.265.7.468.358.436.468.7.164.54.164.825z" class="W"/><path d="M120.434 129.062v10.066c0 .286-.055.56-.164.825s-.265.498-.468.7-.436.358-.7.468-.54.164-.825.164H57.88c-.286 0-.56-.055-.825-.164s-.498-.265-.7-.468-.358-.436-.468-.7-.164-.54-.164-.825v-10.066c0-.286.055-.56.164-.825s.265-.498.468-.7.436-.358.7-.468.54-.164.825-.164h60.397c.286 0 .56.055.825.164s.498.265.7.468.358.436.468.7.164.54.164.825z" class="B C O"/><g fill="#333"><use xlink:href="#f" transform="matrix(8.628099 0 0 -8.628099 73.61692 137.33058)"/><use xlink:href="#g" transform="matrix(8.628099 0 0 -8.628099 75.903369 135.50142)"/><use xlink:href="#h" transform="matrix(8.628099 0 0 -8.628099 79.62207 137.33058)"/><use xlink:href="#U" transform="matrix(8.628099 0 0 -8.628099 83.79806 137.33058)"/><use xlink:href="#i" transform="matrix(8.628099 0 0 -8.628099 86.11901 137.38236)"/><use xlink:href="#S" transform="matrix(8.628099 0 0 -8.628099 90.43305 137.39098)"/><use xlink:href="#K" transform="matrix(8.628099 0 0 -8.628099 94.63493 137.33058)"/><use xlink:href="#j" transform="matrix(8.628099 0 0 -8.628099 98.43129 137.39962)"/></g><g class="B C F O"><path d="M88.08 90.955v10.785m0 14.38v10.785"/></g><use xlink:href="#M" transform="matrix(10.066115 0 2.516529 -10.066115 60.172006 87.73914)"/><use xlink:href="#f" transform="matrix(10.066115 0 2.516529 -10.066115 60.796014 112.8843)"/><use xlink:href="#f" transform="matrix(10.066115 0 2.516529 -10.066115 60.796014 138.04959)"/><use xlink:href="#I" transform="matrix(8.628099 0 2.157025 -8.628099 143.52323 40.32486)"/><use xlink:href="#AZ" class="H"/><use xlink:href="#AZ" class="B C D"/><use xlink:href="#Aa" class="H"/><use xlink:href="#Aa" class="B C D"/><use xlink:href="#Ab" class="H"/><use xlink:href="#Ab" class="B C D"/><use xlink:href="#Ac" class="H"/><use xlink:href="#Ac" class="B C D"/><path d="M271.67 58.24h21.14a4.52 4.52 0 0 1 1.733.345 4.52 4.52 0 0 1 1.47.982 4.52 4.52 0 0 1 .982 1.47 4.52 4.52 0 0 1 .258.85c.058.292.087.586.087.884v21.14c0 .297-.03.592-.087.884a4.52 4.52 0 0 1-.258.85c-.114.275-.253.536-.42.783a4.52 4.52 0 0 1-1.25 1.25 4.52 4.52 0 0 1-1.633.676 4.52 4.52 0 0 1-.884.087h-21.14a4.52 4.52 0 0 1-1.733-.345 4.52 4.52 0 0 1-.783-.419c-.247-.165-.476-.353-.686-.563s-.398-.44-.563-.686a4.52 4.52 0 0 1-.676-1.633 4.52 4.52 0 0 1-.087-.884V62.77a4.52 4.52 0 0 1 .345-1.733 4.52 4.52 0 0 1 .982-1.47 4.52 4.52 0 0 1 1.47-.982 4.52 4.52 0 0 1 1.733-.345z" class="J X"/><use xlink:href="#Ad" class="H"/><use xlink:href="#Ad" class="B C D"/><use xlink:href="#Ae" class="H"/><use xlink:href="#Ae" class="B C D"/><use xlink:href="#Af" class="H"/><use xlink:href="#Af" class="B C D"/><use xlink:href="#Ag" class="H"/><use xlink:href="#Ag" class="B C D"/><path d="M264.732 65.79h20.636a4.41 4.41 0 0 1 1.692.337 4.41 4.41 0 0 1 1.435.959 4.41 4.41 0 0 1 .959 1.435 4.41 4.41 0 0 1 .337 1.692v20.636a4.41 4.41 0 0 1-.337 1.692 4.41 4.41 0 0 1-.959 1.435 4.41 4.41 0 0 1-1.435.959 4.41 4.41 0 0 1-1.692.337h-20.636a4.41 4.41 0 0 1-1.692-.337 4.41 4.41 0 0 1-1.435-.959 4.41 4.41 0 0 1-.959-1.435 4.41 4.41 0 0 1-.337-1.692V70.21a4.41 4.41 0 0 1 .337-1.692 4.41 4.41 0 0 1 .959-1.435 4.41 4.41 0 0 1 1.435-.959 4.41 4.41 0 0 1 1.692-.337z" class="J Y"/><use xlink:href="#Ah" class="H"/><use xlink:href="#Ah" class="B C D"/><use xlink:href="#Ai" class="H"/><use xlink:href="#Ai" class="B C D"/><use xlink:href="#Aj" class="H"/><use xlink:href="#Aj" class="B C D"/><use xlink:href="#Ak" class="H"/><use xlink:href="#Ak" class="B C D"/><path d="M257.542 72.98h20.636a4.41 4.41 0 0 1 1.692.337 4.41 4.41 0 0 1 1.435.959 4.41 4.41 0 0 1 .55.67c.16.24.297.496.41.764a4.41 4.41 0 0 1 .337 1.692v20.636a4.41 4.41 0 0 1-.337 1.692c-.11.268-.247.523-.41.764a4.41 4.41 0 0 1-1.22 1.22 4.41 4.41 0 0 1-1.594.66 4.41 4.41 0 0 1-.863.085h-20.636a4.41 4.41 0 0 1-1.692-.337 4.41 4.41 0 0 1-1.435-.959 4.41 4.41 0 0 1-.959-1.435 4.41 4.41 0 0 1-.337-1.692V77.4a4.41 4.41 0 0 1 .337-1.692 4.41 4.41 0 0 1 .959-1.435 4.41 4.41 0 0 1 1.435-.959 4.41 4.41 0 0 1 1.692-.337z" fill-opacity=".4" class="J"/><use xlink:href="#Al" class="H"/><use xlink:href="#Al" class="B C D"/><use xlink:href="#Am" class="H"/><use xlink:href="#Am" class="B C D"/><use xlink:href="#An" class="H"/><use xlink:href="#An" class="B C D"/><use xlink:href="#Ao" class="H"/><use xlink:href="#Ao" class="B C D"/><symbol id="k"><path d="M.033.001C.024.001.017.003.01.007S0 .018 0 .027v.68c0 .01.003.015.01.018s.014.006.023.006S.048.73.055.726s.01-.01.01-.018V.354l.29.368c.005.007.012.01.02.01C.398.724.403.72.406.714.412.696.412.693.41.7L.192.416.438.046C.442.027.44.02.436.016.417.001.41 0 .404 0 .386.006.382.01.38.014L.148.36.066.257v-.23c0-.01-.004-.015-.01-.02S.04.001.033.001z"/></symbol><use xlink:href="#k" transform="matrix(8.628099 0 2.157025 -8.628099 293.05403 107.85987)"/><use xlink:href="#H" transform="matrix(7.190083 0 1.797521 -7.190083 297.11579 110.05859)"/><path d="M276.6 108.352l1.017 1.017c.678.678 2.712-.678 6.1-4.067l2.745-2.745c1.834-1.834 3.09-2.412 3.767-1.734l.508.508c.34.34.17.17-.508-.508l-.508-.508c-.34-.34 1.186-2.203 4.576-5.593l2.745-2.745c1.83-1.83 2.407-3.084 1.73-3.762l-1.017-1.017" class="B C F T"/><use xlink:href="#Ap" class="I"/><use xlink:href="#Ap" class="B C E"/><use xlink:href="#Aq" class="I"/><use xlink:href="#Aq" class="B C E"/><use xlink:href="#Ar" class="I"/><use xlink:href="#Ar" class="B C E"/><use xlink:href="#As" class="I"/><use xlink:href="#As" class="B C E"/><path d="M188.955 58.24h21.14a4.52 4.52 0 0 1 1.733.345 4.52 4.52 0 0 1 1.47.982c.2.2.398.44.563.686a4.52 4.52 0 0 1 .676 1.633 4.52 4.52 0 0 1 .087.884v21.14a4.52 4.52 0 0 1-.345 1.733 4.52 4.52 0 0 1-.982 1.47 4.52 4.52 0 0 1-.686.563c-.247.165-.508.305-.783.42a4.52 4.52 0 0 1-1.733.345h-21.14a4.52 4.52 0 0 1-1.733-.345 4.52 4.52 0 0 1-1.47-.982 4.52 4.52 0 0 1-.982-1.47 4.52 4.52 0 0 1-.258-.85c-.058-.292-.087-.586-.087-.884V62.77a4.52 4.52 0 0 1 .345-1.733 4.52 4.52 0 0 1 .982-1.47 4.52 4.52 0 0 1 1.47-.982 4.52 4.52 0 0 1 1.733-.345z" class="J X"/><use xlink:href="#At" class="I"/><use xlink:href="#At" class="B C E"/><path d="M185.684 78.73h13.302a.52.52 0 0 1 .539.539v2.517a.52.52 0 0 1-.539.539h-13.302a.52.52 0 0 1-.539-.539V79.27a.52.52 0 0 1 .539-.539z" class="I"/><path d="M185.684 78.73h13.302a.52.52 0 0 1 .539.539v2.517a.52.52 0 0 1-.539.539h-13.302a.52.52 0 0 1-.539-.539V79.27a.52.52 0 0 1 .539-.539z" class="B C E"/><path d="M185.684 85.92h13.302a.52.52 0 0 1 .539.539v2.517a.52.52 0 0 1-.539.539h-13.302a.52.52 0 0 1-.539-.539V86.46a.52.52 0 0 1 .539-.539z" class="I"/><path d="M185.684 85.92h13.302a.52.52 0 0 1 .539.539v2.517a.52.52 0 0 1-.539.539h-13.302a.52.52 0 0 1-.539-.539V86.46a.52.52 0 0 1 .539-.539z" class="B C E"/><path d="M185.684 71.54h13.302a.52.52 0 0 1 .539.539v2.517a.52.52 0 0 1-.539.539h-13.302a.52.52 0 0 1-.539-.539V72.08a.52.52 0 0 1 .539-.539z" class="I"/><path d="M185.684 71.54h13.302a.52.52 0 0 1 .539.539v2.517a.52.52 0 0 1-.539.539h-13.302a.52.52 0 0 1-.539-.539V72.08a.52.52 0 0 1 .539-.539z" class="B C E"/><path d="M182.017 65.79h20.636a4.41 4.41 0 0 1 1.692.337 4.41 4.41 0 0 1 1.435.959 4.41 4.41 0 0 1 .959 1.435c.11.268.195.545.252.83a4.41 4.41 0 0 1 .085.863v20.636a4.41 4.41 0 0 1-.085.863c-.057.285-.14.56-.252.83a4.41 4.41 0 0 1-.959 1.435 4.41 4.41 0 0 1-1.435.959c-.268.11-.545.195-.83.252a4.41 4.41 0 0 1-.863.085h-20.636a4.41 4.41 0 0 1-1.692-.337 4.41 4.41 0 0 1-1.435-.959 4.41 4.41 0 0 1-.959-1.435 4.41 4.41 0 0 1-.337-1.692V70.21a4.41 4.41 0 0 1 .337-1.692 4.41 4.41 0 0 1 .959-1.435 4.41 4.41 0 0 1 1.435-.959 4.41 4.41 0 0 1 1.692-.337z" class="J Y"/><use xlink:href="#Au" class="I"/><use xlink:href="#Au" class="B C E"/><path d="M178.494 85.92h13.302a.52.52 0 0 1 .539.539v2.517a.52.52 0 0 1-.539.539h-13.302a.52.52 0 0 1-.539-.539V86.46a.52.52 0 0 1 .539-.539z" class="I"/><path d="M178.494 85.92h13.302a.52.52 0 0 1 .539.539v2.517a.52.52 0 0 1-.539.539h-13.302a.52.52 0 0 1-.539-.539V86.46a.52.52 0 0 1 .539-.539z" class="B C E"/><path d="M178.494 93.112h13.302a.52.52 0 0 1 .539.539v2.517a.52.52 0 0 1-.539.539h-13.302a.52.52 0 0 1-.539-.539V93.65a.52.52 0 0 1 .539-.539z" class="I"/><path d="M178.494 93.112h13.302a.52.52 0 0 1 .539.539v2.517a.52.52 0 0 1-.539.539h-13.302a.52.52 0 0 1-.539-.539V93.65a.52.52 0 0 1 .539-.539z" class="B C E"/><path d="M178.494 78.73h13.302a.52.52 0 0 1 .539.539v2.517a.52.52 0 0 1-.539.539h-13.302a.52.52 0 0 1-.539-.539V79.27a.52.52 0 0 1 .539-.539z" class="I"/><path d="M178.494 78.73h13.302a.52.52 0 0 1 .539.539v2.517a.52.52 0 0 1-.539.539h-13.302a.52.52 0 0 1-.539-.539V79.27a.52.52 0 0 1 .539-.539z" class="B C E"/><path d="M174.827 72.98h20.636a4.41 4.41 0 0 1 1.692.337 4.41 4.41 0 0 1 1.435.959 4.41 4.41 0 0 1 .959 1.435c.11.268.195.545.252.83a4.41 4.41 0 0 1 .085.863v20.636a4.41 4.41 0 0 1-.085.863c-.057.285-.14.56-.252.83s-.247.523-.41.764a4.41 4.41 0 0 1-1.22 1.22 4.41 4.41 0 0 1-1.594.66 4.41 4.41 0 0 1-.863.085h-20.636a4.41 4.41 0 0 1-1.692-.337 4.41 4.41 0 0 1-1.435-.959 4.41 4.41 0 0 1-.959-1.435 4.41 4.41 0 0 1-.337-1.692V77.4a4.41 4.41 0 0 1 .337-1.692 4.41 4.41 0 0 1 .959-1.435 4.41 4.41 0 0 1 1.435-.959 4.41 4.41 0 0 1 1.692-.337z" fill-opacity=".4" class="J"/><use xlink:href="#Av" class="I"/><use xlink:href="#Av" class="B C E"/><path d="M171.304 93.112h13.302a.52.52 0 0 1 .539.539v2.517a.52.52 0 0 1-.539.539h-13.302a.52.52 0 0 1-.539-.539V93.65a.52.52 0 0 1 .539-.539z" class="I"/><path d="M171.304 93.112h13.302a.52.52 0 0 1 .539.539v2.517a.52.52 0 0 1-.539.539h-13.302a.52.52 0 0 1-.539-.539V93.65a.52.52 0 0 1 .539-.539z" class="B C E"/><path d="M171.304 100.302h13.302a.52.52 0 0 1 .539.539v2.517a.52.52 0 0 1-.539.539h-13.302a.52.52 0 0 1-.539-.539v-2.517a.52.52 0 0 1 .539-.539z" class="I"/><path d="M171.304 100.302h13.302a.52.52 0 0 1 .539.539v2.517a.52.52 0 0 1-.539.539h-13.302a.52.52 0 0 1-.539-.539v-2.517a.52.52 0 0 1 .539-.539z" class="B C E"/><path d="M171.304 85.92h13.302a.52.52 0 0 1 .539.539v2.517a.52.52 0 0 1-.539.539h-13.302a.52.52 0 0 1-.539-.539V86.46a.52.52 0 0 1 .539-.539z" class="I"/><g class="B C"><path d="M171.304 85.92h13.302a.52.52 0 0 1 .539.539v2.517a.52.52 0 0 1-.539.539h-13.302a.52.52 0 0 1-.539-.539V86.46a.52.52 0 0 1 .539-.539z" class="E"/><path d="M193.56 108.67l1.017 1.017c.678.678 2.712-.678 6.1-4.067l2.745-2.745c1.83-1.83 3.084-2.407 3.762-1.73l.508.508c.34.34.17.17-.508-.508l-.508-.508c-.34-.34 1.186-2.203 4.576-5.593l2.75-2.75c1.83-1.83 2.407-3.084 1.73-3.762l-1.017-1.017" class="F T"/></g><use xlink:href="#k" transform="matrix(8.628099 0 2.157025 -8.628099 209.71646 108.57888)"/><use xlink:href="#j" transform="matrix(7.190083 0 1.797521 -7.190083 213.66139 110.78479)"/><use xlink:href="#Aw" class="Q"/><use xlink:href="#Aw" class="B C M"/><path d="M264.775 19.054h2.517a.52.52 0 0 1 .539.539v13.302a.52.52 0 0 1-.539.539h-2.517a.52.52 0 0 1-.539-.539V19.593a.52.52 0 0 1 .539-.539z" class="Q"/><path d="M264.775 19.054h2.517a.52.52 0 0 1 .539.539v13.302a.52.52 0 0 1-.539.539h-2.517a.52.52 0 0 1-.539-.539V19.593a.52.52 0 0 1 .539-.539z" class="B C M"/><path d="M268.37 19.054h2.517a.52.52 0 0 1 .539.539v13.302a.52.52 0 0 1-.539.539h-2.517a.52.52 0 0 1-.539-.539V19.593a.52.52 0 0 1 .539-.539z" class="Q"/><path d="M268.37 19.054h2.517a.52.52 0 0 1 .539.539v13.302a.52.52 0 0 1-.539.539h-2.517a.52.52 0 0 1-.539-.539V19.593a.52.52 0 0 1 .539-.539z" class="B C M"/><path d="M271.965 19.054h2.517a.52.52 0 0 1 .539.539v13.302a.52.52 0 0 1-.539.539h-2.517a.52.52 0 0 1-.539-.539V19.593a.52.52 0 0 1 .539-.539z" class="Q"/><path d="M271.965 19.054h2.517a.52.52 0 0 1 .539.539v13.302a.52.52 0 0 1-.539.539h-2.517a.52.52 0 0 1-.539-.539V19.593a.52.52 0 0 1 .539-.539z" class="B C M"/><path d="M275.56 19.054h2.517a.52.52 0 0 1 .539.539v13.302a.52.52 0 0 1-.539.539h-2.517a.52.52 0 0 1-.539-.539V19.593a.52.52 0 0 1 .539-.539z" class="Q"/><path d="M275.56 19.054h2.517a.52.52 0 0 1 .539.539v13.302a.52.52 0 0 1-.539.539h-2.517a.52.52 0 0 1-.539-.539V19.593a.52.52 0 0 1 .539-.539z" class="B C M"/><path d="M279.155 19.054h2.517a.52.52 0 0 1 .539.539v13.302a.52.52 0 0 1-.539.539h-2.517a.52.52 0 0 1-.539-.539V19.593a.52.52 0 0 1 .539-.539z" class="Q"/><path d="M279.155 19.054h2.517a.52.52 0 0 1 .539.539v13.302a.52.52 0 0 1-.539.539h-2.517a.52.52 0 0 1-.539-.539V19.593a.52.52 0 0 1 .539-.539z" class="B C M"/><path d="M282.75 19.054h2.517a.52.52 0 0 1 .539.539v13.302a.52.52 0 0 1-.539.539h-2.517a.52.52 0 0 1-.539-.539V19.593a.52.52 0 0 1 .539-.539z" class="Q"/><path d="M282.75 19.054h2.517a.52.52 0 0 1 .539.539v13.302a.52.52 0 0 1-.539.539h-2.517a.52.52 0 0 1-.539-.539V19.593a.52.52 0 0 1 .539-.539z" class="B C M"/><path d="M286.345 19.054h2.517a.52.52 0 0 1 .539.539v13.302a.52.52 0 0 1-.539.539h-2.517a.52.52 0 0 1-.539-.539V19.593a.52.52 0 0 1 .539-.539z" class="Q"/><path d="M286.345 19.054h2.517a.52.52 0 0 1 .539.539v13.302a.52.52 0 0 1-.539.539h-2.517a.52.52 0 0 1-.539-.539V19.593a.52.52 0 0 1 .539-.539z" class="B C M"/><use xlink:href="#Ax" class="U"/><use xlink:href="#Ax" class="B C R"/><path d="M186.194 19.054h5.033a1.07 1.07 0 0 1 .763.316 1.07 1.07 0 0 1 .316.763v12.223a1.07 1.07 0 0 1-.316.763 1.07 1.07 0 0 1-.763.316h-5.033a1.07 1.07 0 0 1-.763-.316 1.07 1.07 0 0 1-.316-.763V20.132a1.07 1.07 0 0 1 .316-.763 1.07 1.07 0 0 1 .763-.316z" class="U"/><path d="M186.194 19.054h5.033a1.07 1.07 0 0 1 .763.316 1.07 1.07 0 0 1 .316.763v12.223a1.07 1.07 0 0 1-.316.763 1.07 1.07 0 0 1-.763.316h-5.033a1.07 1.07 0 0 1-.763-.316 1.07 1.07 0 0 1-.316-.763V20.132a1.07 1.07 0 0 1 .316-.763 1.07 1.07 0 0 1 .763-.316z" class="B C R"/><path d="M193.384 19.054h5.033a1.07 1.07 0 0 1 .763.316 1.07 1.07 0 0 1 .316.763v12.223a1.07 1.07 0 0 1-.316.763 1.07 1.07 0 0 1-.763.316h-5.033a1.07 1.07 0 0 1-.763-.316 1.07 1.07 0 0 1-.316-.763V20.132a1.07 1.07 0 0 1 .316-.763 1.07 1.07 0 0 1 .763-.316z" class="U"/><path d="M193.384 19.054h5.033a1.07 1.07 0 0 1 .763.316 1.07 1.07 0 0 1 .316.763v12.223a1.07 1.07 0 0 1-.316.763 1.07 1.07 0 0 1-.763.316h-5.033a1.07 1.07 0 0 1-.763-.316 1.07 1.07 0 0 1-.316-.763V20.132a1.07 1.07 0 0 1 .316-.763 1.07 1.07 0 0 1 .763-.316z" class="B C R"/><path d="M200.575 19.054h5.033a1.07 1.07 0 0 1 .763.316 1.07 1.07 0 0 1 .316.763v12.223a1.07 1.07 0 0 1-.316.763 1.07 1.07 0 0 1-.763.316h-5.033a1.07 1.07 0 0 1-.763-.316 1.07 1.07 0 0 1-.316-.763V20.132a1.07 1.07 0 0 1 .316-.763 1.07 1.07 0 0 1 .763-.316z" class="U"/><g class="B C"><path d="M200.575 19.054h5.033a1.07 1.07 0 0 1 .763.316 1.07 1.07 0 0 1 .316.763v12.223a1.07 1.07 0 0 1-.316.763 1.07 1.07 0 0 1-.763.316h-5.033a1.07 1.07 0 0 1-.763-.316 1.07 1.07 0 0 1-.316-.763V20.132a1.07 1.07 0 0 1 .316-.763 1.07 1.07 0 0 1 .763-.316z" class="R"/><path d="M192.335 116.12v8.362" class="E F"/></g><path d="M192.335 126.1l-1.08-2.157 1.08.54 1.08-.54-1.08 2.157z" class="K"/><g class="B C F"><path d="M192.335 126.1l-1.08-2.157 1.08.54 1.08-.54-1.08 2.157z" class="E"/><path d="M275.02 116.12l-.05 8.506" class="D"/></g><use xlink:href="#Ay" class="L"/><g class="B C F"><use xlink:href="#Ay" class="D"/><path d="M208.153 141.645h-42.42" class="E"/></g><use xlink:href="#Az" class="K"/><use xlink:href="#Az" class="B C E"/><path d="M165.73 141.645c0 .286-.055.56-.164.825s-.265.498-.468.7-.436.358-.7.468-.54.164-.825.164-.56-.055-.825-.164-.498-.265-.7-.468-.358-.436-.468-.7-.164-.54-.164-.825.055-.56.164-.825.265-.498.468-.7.436-.358.7-.468.54-.164.825-.164.56.055.825.164.498.265.7.468.358.436.468.7.164.54.164.825z" class="K"/><g class="B C E"><path d="M165.73 141.645c0 .286-.055.56-.164.825s-.265.498-.468.7-.436.358-.7.468-.54.164-.825.164-.56-.055-.825-.164-.498-.265-.7-.468-.358-.436-.468-.7-.164-.54-.164-.825.055-.56.164-.825.265-.498.468-.7.436-.358.7-.468.54-.164.825-.164.56.055.825.164.498.265.7.468.358.436.468.7.164.54.164.825z"/><path d="M204.558 148.835H165.73" class="F"/></g><path d="M208.872 148.835c0 .286-.055.56-.164.825s-.265.498-.468.7-.436.358-.7.468-.54.164-.825.164-.56-.055-.825-.164-.498-.265-.7-.468-.358-.436-.468-.7-.164-.54-.164-.825.055-.56.164-.825.265-.498.468-.7.436-.358.7-.468.54-.164.825-.164.56.055.825.164.498.265.7.468.358.436.468.7.164.54.164.825z" class="K"/><path d="M208.872 148.835c0 .286-.055.56-.164.825s-.265.498-.468.7-.436.358-.7.468-.54.164-.825.164-.56-.055-.825-.164-.498-.265-.7-.468-.358-.436-.468-.7-.164-.54-.164-.825.055-.56.164-.825.265-.498.468-.7.436-.358.7-.468.54-.164.825-.164.56.055.825.164.498.265.7.468.358.436.468.7.164.54.164.825z" class="B C E"/><path d="M165.73 148.835c0 .286-.055.56-.164.825s-.265.498-.468.7-.436.358-.7.468-.54.164-.825.164-.56-.055-.825-.164-.498-.265-.7-.468-.358-.436-.468-.7-.164-.54-.164-.825.055-.56.164-.825.265-.498.468-.7.436-.358.7-.468.54-.164.825-.164.56.055.825.164.498.265.7.468.358.436.468.7.164.54.164.825z" class="K"/><g class="B C E"><path d="M165.73 148.835c0 .286-.055.56-.164.825s-.265.498-.468.7-.436.358-.7.468-.54.164-.825.164-.56-.055-.825-.164-.498-.265-.7-.468-.358-.436-.468-.7-.164-.54-.164-.825.055-.56.164-.825.265-.498.468-.7.436-.358.7-.468.54-.164.825-.164.56.055.825.164.498.265.7.468.358.436.468.7.164.54.164.825z"/><path d="M222.533 134.455H165.73" class="F"/></g><path d="M226.847 134.455c0 .286-.055.56-.164.825s-.265.498-.468.7-.436.358-.7.468-.54.164-.825.164-.56-.055-.825-.164-.498-.265-.7-.468-.358-.436-.468-.7-.164-.54-.164-.825.055-.56.164-.825.265-.498.468-.7.436-.358.7-.468.54-.164.825-.164.56.055.825.164.498.265.7.468.358.436.468.7.164.54.164.825z" class="K"/><path d="M226.847 134.455c0 .286-.055.56-.164.825s-.265.498-.468.7-.436.358-.7.468-.54.164-.825.164-.56-.055-.825-.164-.498-.265-.7-.468-.358-.436-.468-.7-.164-.54-.164-.825.055-.56.164-.825.265-.498.468-.7.436-.358.7-.468.54-.164.825-.164.56.055.825.164.498.265.7.468.358.436.468.7.164.54.164.825z" class="B C E"/><path d="M165.73 134.455c0 .286-.055.56-.164.825s-.265.498-.468.7-.436.358-.7.468-.54.164-.825.164-.56-.055-.825-.164-.498-.265-.7-.468-.358-.436-.468-.7-.164-.54-.164-.825.055-.56.164-.825.265-.498.468-.7.436-.358.7-.468.54-.164.825-.164.56.055.825.164.498.265.7.468.358.436.468.7.164.54.164.825z" class="K"/><g class="B C E"><path d="M165.73 134.455c0 .286-.055.56-.164.825s-.265.498-.468.7-.436.358-.7.468-.54.164-.825.164-.56-.055-.825-.164-.498-.265-.7-.468-.358-.436-.468-.7-.164-.54-.164-.825.055-.56.164-.825.265-.498.468-.7.436-.358.7-.468.54-.164.825-.164.56.055.825.164.498.265.7.468.358.436.468.7.164.54.164.825z"/><path d="M175.798 156.025H165.73" class="F"/></g><path d="M180.112 156.025c0 .286-.055.56-.164.825s-.265.498-.468.7-.436.358-.7.468-.54.164-.825.164-.56-.055-.825-.164-.498-.265-.7-.468-.358-.436-.468-.7-.164-.54-.164-.825.055-.56.164-.825.265-.498.468-.7.436-.358.7-.468.54-.164.825-.164.56.055.825.164.498.265.7.468.358.436.468.7.164.54.164.825z" class="K"/><path d="M180.112 156.025c0 .286-.055.56-.164.825s-.265.498-.468.7-.436.358-.7.468-.54.164-.825.164-.56-.055-.825-.164-.498-.265-.7-.468-.358-.436-.468-.7-.164-.54-.164-.825.055-.56.164-.825.265-.498.468-.7.436-.358.7-.468.54-.164.825-.164.56.055.825.164.498.265.7.468.358.436.468.7.164.54.164.825z" class="B C E"/><path d="M165.73 156.025c0 .286-.055.56-.164.825s-.265.498-.468.7-.436.358-.7.468-.54.164-.825.164-.56-.055-.825-.164-.498-.265-.7-.468-.358-.436-.468-.7-.164-.54-.164-.825.055-.56.164-.825.265-.498.468-.7.436-.358.7-.468.54-.164.825-.164.56.055.825.164.498.265.7.468.358.436.468.7.164.54.164.825z" class="K"/><g class="B C"><path d="M165.73 156.025c0 .286-.055.56-.164.825s-.265.498-.468.7-.436.358-.7.468-.54.164-.825.164-.56-.055-.825-.164-.498-.265-.7-.468-.358-.436-.468-.7-.164-.54-.164-.825.055-.56.164-.825.265-.498.468-.7.436-.358.7-.468.54-.164.825-.164.56.055.825.164.498.265.7.468.358.436.468.7.164.54.164.825z" class="E"/><path d="M301.624 134.455h-42.42" class="D F"/></g><path d="M305.938 134.455c0 .286-.055.56-.164.825s-.265.498-.468.7-.436.358-.7.468-.54.164-.825.164-.56-.055-.825-.164-.498-.265-.7-.468-.358-.436-.468-.7-.164-.54-.164-.825.055-.56.164-.825.265-.498.468-.7.436-.358.7-.468.54-.164.825-.164.56.055.825.164.498.265.7.468.358.436.468.7.164.54.164.825z" class="L"/><path d="M305.938 134.455c0 .286-.055.56-.164.825s-.265.498-.468.7-.436.358-.7.468-.54.164-.825.164-.56-.055-.825-.164-.498-.265-.7-.468-.358-.436-.468-.7-.164-.54-.164-.825.055-.56.164-.825.265-.498.468-.7.436-.358.7-.468.54-.164.825-.164.56.055.825.164.498.265.7.468.358.436.468.7.164.54.164.825z" class="B C D"/><use xlink:href="#BA" class="L"/><g class="B C D"><use xlink:href="#BA"/><path d="M301.624 141.645h-35.23" class="F"/></g><path d="M305.938 141.645c0 .286-.055.56-.164.825s-.265.498-.468.7-.436.358-.7.468-.54.164-.825.164-.56-.055-.825-.164-.498-.265-.7-.468-.358-.436-.468-.7-.164-.54-.164-.825.055-.56.164-.825.265-.498.468-.7.436-.358.7-.468.54-.164.825-.164.56.055.825.164.498.265.7.468.358.436.468.7.164.54.164.825z" class="L"/><path d="M305.938 141.645c0 .286-.055.56-.164.825s-.265.498-.468.7-.436.358-.7.468-.54.164-.825.164-.56-.055-.825-.164-.498-.265-.7-.468-.358-.436-.468-.7-.164-.54-.164-.825.055-.56.164-.825.265-.498.468-.7.436-.358.7-.468.54-.164.825-.164.56.055.825.164.498.265.7.468.358.436.468.7.164.54.164.825z" class="B C D"/><use xlink:href="#BB" class="L"/><g class="B C D"><use xlink:href="#BB"/><path d="M301.624 148.835h-17.256" class="F"/></g><path d="M305.938 148.835c0 .286-.055.56-.164.825s-.265.498-.468.7-.436.358-.7.468-.54.164-.825.164-.56-.055-.825-.164-.498-.265-.7-.468-.358-.436-.468-.7-.164-.54-.164-.825.055-.56.164-.825.265-.498.468-.7.436-.358.7-.468.54-.164.825-.164.56.055.825.164.498.265.7.468.358.436.468.7.164.54.164.825z" class="L"/><path d="M305.938 148.835c0 .286-.055.56-.164.825s-.265.498-.468.7-.436.358-.7.468-.54.164-.825.164-.56-.055-.825-.164-.498-.265-.7-.468-.358-.436-.468-.7-.164-.54-.164-.825.055-.56.164-.825.265-.498.468-.7.436-.358.7-.468.54-.164.825-.164.56.055.825.164.498.265.7.468.358.436.468.7.164.54.164.825z" class="B C D"/><use xlink:href="#BC" class="L"/><g class="B C D"><use xlink:href="#BC"/><path d="M301.595 155.665h-2.876" class="F"/></g><path d="M305.91 155.665c0 .286-.055.56-.164.825s-.265.498-.468.7-.436.358-.7.468-.54.164-.825.164-.56-.055-.825-.164-.498-.265-.7-.468-.358-.436-.468-.7-.164-.54-.164-.825.055-.56.164-.825.265-.498.468-.7.436-.358.7-.468.54-.164.825-.164.56.055.825.164.498.265.7.468.358.436.468.7.164.54.164.825z" class="L"/><path d="M305.91 155.665c0 .286-.055.56-.164.825s-.265.498-.468.7-.436.358-.7.468-.54.164-.825.164-.56-.055-.825-.164-.498-.265-.7-.468-.358-.436-.468-.7-.164-.54-.164-.825.055-.56.164-.825.265-.498.468-.7.436-.358.7-.468.54-.164.825-.164.56.055.825.164.498.265.7.468.358.436.468.7.164.54.164.825z" class="B C D"/><path d="M298.72 155.665c0 .286-.055.56-.164.825s-.265.498-.468.7-.436.358-.7.468-.54.164-.825.164-.56-.055-.825-.164-.498-.265-.7-.468-.358-.436-.468-.7-.164-.54-.164-.825.055-.56.164-.825.265-.498.468-.7.436-.358.7-.468.54-.164.825-.164.56.055.825.164.498.265.7.468.358.436.468.7.164.54.164.825z" class="L"/><path d="M298.72 155.665c0 .286-.055.56-.164.825s-.265.498-.468.7-.436.358-.7.468-.54.164-.825.164-.56-.055-.825-.164-.498-.265-.7-.468-.358-.436-.468-.7-.164-.54-.164-.825.055-.56.164-.825.265-.498.468-.7.436-.358.7-.468.54-.164.825-.164.56.055.825.164.498.265.7.468.358.436.468.7.164.54.164.825z" class="B C D"/><use xlink:href="#BD" class="J"/><g class="B C"><use xlink:href="#BD" class="S"/><path d="M237.575 180.83h-42.42" class="E F"/></g><path d="M241.89 180.83c0 .286-.055.56-.164.825s-.265.498-.468.7-.436.358-.7.468-.54.164-.825.164-.56-.055-.825-.164-.498-.265-.7-.468-.358-.436-.468-.7-.164-.54-.164-.825.055-.56.164-.825.265-.498.468-.7.435-.358.7-.468.54-.164.825-.164.56.055.825.164.498.265.7.468.358.436.468.7.164.54.164.825z" class="K"/><path d="M241.89 180.83c0 .286-.055.56-.164.825s-.265.498-.468.7-.436.358-.7.468-.54.164-.825.164-.56-.055-.825-.164-.498-.265-.7-.468-.358-.436-.468-.7-.164-.54-.164-.825.055-.56.164-.825.265-.498.468-.7.435-.358.7-.468.54-.164.825-.164.56.055.825.164.498.265.7.468.358.436.468.7.164.54.164.825z" class="B C E"/><path d="M195.153 180.83c0 .286-.055.56-.164.825s-.265.498-.468.7-.436.358-.7.468-.54.164-.825.164-.56-.055-.825-.164-.498-.265-.7-.468-.358-.436-.468-.7-.164-.54-.164-.825.055-.56.164-.825.265-.498.468-.7.436-.358.7-.468.54-.164.825-.164.56.055.825.164.498.265.7.468.358.436.468.7.164.54.164.825z" class="K"/><g class="B C E"><path d="M195.153 180.83c0 .286-.055.56-.164.825s-.265.498-.468.7-.436.358-.7.468-.54.164-.825.164-.56-.055-.825-.164-.498-.265-.7-.468-.358-.436-.468-.7-.164-.54-.164-.825.055-.56.164-.825.265-.498.468-.7.436-.358.7-.468.54-.164.825-.164.56.055.825.164.498.265.7.468.358.436.468.7.164.54.164.825z"/><path d="M233.98 195.21h-38.826" class="F"/></g><path d="M238.294 195.21c0 .286-.055.56-.164.825s-.265.498-.468.7-.436.358-.7.468-.54.164-.825.164-.56-.055-.825-.164-.498-.265-.7-.468-.358-.436-.468-.7-.164-.54-.164-.825.055-.56.164-.825.265-.498.468-.7.436-.358.7-.468.54-.164.825-.164.56.055.825.164.498.265.7.468.358.436.468.7.164.54.164.825z" class="K"/><path d="M238.294 195.21c0 .286-.055.56-.164.825s-.265.498-.468.7-.436.358-.7.468-.54.164-.825.164-.56-.055-.825-.164-.498-.265-.7-.468-.358-.436-.468-.7-.164-.54-.164-.825.055-.56.164-.825.265-.498.468-.7.436-.358.7-.468.54-.164.825-.164.56.055.825.164.498.265.7.468.358.436.468.7.164.54.164.825z" class="B C E"/><path d="M195.153 195.21c0 .286-.055.56-.164.825s-.265.498-.468.7-.436.358-.7.468-.54.164-.825.164-.56-.055-.825-.164-.498-.265-.7-.468-.358-.436-.468-.7-.164-.54-.164-.825.055-.56.164-.825.265-.498.468-.7.436-.358.7-.468.54-.164.825-.164.56.055.825.164.498.265.7.468.358.436.468.7.164.54.164.825z" class="K"/><g class="B C"><path d="M195.153 195.21c0 .286-.055.56-.164.825s-.265.498-.468.7-.436.358-.7.468-.54.164-.825.164-.56-.055-.825-.164-.498-.265-.7-.468-.358-.436-.468-.7-.164-.54-.164-.825.055-.56.164-.825.265-.498.468-.7.436-.358.7-.468.54-.164.825-.164.56.055.825.164.498.265.7.468.358.436.468.7.164.54.164.825z" class="E"/><path d="M212.41 202.4h-17.256" class="D F"/></g><path d="M216.723 202.4c0 .286-.055.56-.164.825s-.265.498-.468.7-.436.358-.7.468-.54.164-.825.164-.56-.055-.825-.164-.498-.265-.7-.468-.358-.436-.468-.7-.164-.54-.164-.825.055-.56.164-.825.265-.498.468-.7.436-.358.7-.468.54-.164.825-.164.56.055.825.164.498.265.7.468.358.436.468.7.164.54.164.825z" class="L"/><path d="M216.723 202.4c0 .286-.055.56-.164.825s-.265.498-.468.7-.436.358-.7.468-.54.164-.825.164-.56-.055-.825-.164-.498-.265-.7-.468-.358-.436-.468-.7-.164-.54-.164-.825.055-.56.164-.825.265-.498.468-.7.436-.358.7-.468.54-.164.825-.164.56.055.825.164.498.265.7.468.358.436.468.7.164.54.164.825z" class="B C D"/><path d="M195.153 202.4c0 .286-.055.56-.164.825s-.265.498-.468.7-.436.358-.7.468-.54.164-.825.164-.56-.055-.825-.164-.498-.265-.7-.468-.358-.436-.468-.7-.164-.54-.164-.825.055-.56.164-.825.265-.498.468-.7.436-.358.7-.468.54-.164.825-.164.56.055.825.164.498.265.7.468.358.436.468.7.164.54.164.825z" class="L"/><g class="B C D"><path d="M195.153 202.4c0 .286-.055.56-.164.825s-.265.498-.468.7-.436.358-.7.468-.54.164-.825.164-.56-.055-.825-.164-.498-.265-.7-.468-.358-.436-.468-.7-.164-.54-.164-.825.055-.56.164-.825.265-.498.468-.7.436-.358.7-.468.54-.164.825-.164.56.055.825.164.498.265.7.468.358.436.468.7.164.54.164.825z"/><path d="M198.03 188.02h-2.876" class="F"/></g><path d="M202.343 188.02c0 .286-.055.56-.164.825s-.265.498-.468.7-.436.358-.7.468-.54.164-.825.164-.56-.055-.825-.164-.498-.265-.7-.468-.358-.436-.468-.7-.164-.54-.164-.825.055-.56.164-.825.265-.498.468-.7.436-.358.7-.468.54-.164.825-.164.56.055.825.164.498.265.7.468.358.436.468.7.164.54.164.825z" class="L"/><path d="M202.343 188.02c0 .286-.055.56-.164.825s-.265.498-.468.7-.436.358-.7.468-.54.164-.825.164-.56-.055-.825-.164-.498-.265-.7-.468-.358-.436-.468-.7-.164-.54-.164-.825.055-.56.164-.825.265-.498.468-.7.436-.358.7-.468.54-.164.825-.164.56.055.825.164.498.265.7.468.358.436.468.7.164.54.164.825z" class="B C D"/><path d="M195.153 188.02c0 .286-.055.56-.164.825s-.265.498-.468.7-.436.358-.7.468-.54.164-.825.164-.56-.055-.825-.164-.498-.265-.7-.468-.358-.436-.468-.7-.164-.54-.164-.825.055-.56.164-.825.265-.498.468-.7.436-.358.7-.468.54-.164.825-.164.56.055.825.164.498.265.7.468.358.436.468.7.164.54.164.825z" class="L"/><path d="M195.153 188.02c0 .286-.055.56-.164.825s-.265.498-.468.7-.436.358-.7.468-.54.164-.825.164-.56-.055-.825-.164-.498-.265-.7-.468-.358-.436-.468-.7-.164-.54-.164-.825.055-.56.164-.825.265-.498.468-.7.436-.358.7-.468.54-.164.825-.164.56.055.825.164.498.265.7.468.358.436.468.7.164.54.164.825z" class="B C D"/><path d="M262.38 186.583h3.7v12.05h2.38l-4.235 5.206-4.235-5.206h2.38v-12.05z" fill="#b8b8b8"/><symbol id="l"><path d="M.03 0C.022 0 .015.002.01.007S0 .018 0 .025v.547c0 .03.008.062.024.09s.04.053.07.072.07.028.114.028C.234.763.258.76.28.754S.324.74.34.732.362.712.362.7C.356.68.353.675.35.67.33.665.323.668.314.675S.292.688.276.694.238.704.21.704.16.7.142.692A.12.12 0 0 1 .097.66C.086.647.077.632.072.617S.065.588.065.574v-.1h.128C.214.46.216.454.216.447S.214.433.21.427L.065.42V.025C.065.018.062.012.055.007S.04 0 .03 0m.317 0C.34 0 .33.003.325.008s-.01.01-.01.018V.45C.33.47.34.473.348.473S.365.47.37.466l.01-.44C.38.02.378.013.37.008S.357 0 .348 0z"/></symbol><use xlink:href="#i" transform="matrix(7.190083 0 0 -7.190083 247.85742 183.39025)"/><use xlink:href="#S" transform="matrix(7.190083 0 0 -7.190083 251.45247 183.39743)"/><use xlink:href="#K" transform="matrix(7.190083 0 0 -7.190083 254.95404 183.3471)"/><use xlink:href="#l" transform="matrix(7.190083 0 0 -7.190083 258.51313 183.3471)"/><use xlink:href="#I" transform="matrix(7.190083 0 0 -7.190083 262.01469 183.39743)"/><use xlink:href="#P" transform="matrix(7.190083 0 0 -7.190083 265.4947 183.39743)"/><use xlink:href="#K" transform="matrix(7.190083 0 0 -7.190083 268.90998 183.3471)"/><use xlink:href="#Q" transform="matrix(7.190083 0 0 -7.190083 272.34684 183.39743)"/><use xlink:href="#P" transform="matrix(7.190083 0 0 -7.190083 275.25883 183.39743)"/></g><clipPath id="m"><path d="M317.083 135.893h30.198V158.9h-30.198z" class="G"/></clipPath><g clip-path="url(#m)"><symbol id="n"><path d="M.032 0C.023 0 .016.003.01.008S0 .02 0 .026V.45C.016.47.023.473.032.473S.048.47.054.466l.01-.063c.01.02.028.037.05.052a.14.14 0 0 0 .083.024.14.14 0 0 0 .087-.028C.308.432.326.408.338.38c.017.034.04.06.067.075S.46.48.5.48.546.472.57.457.618.42.634.393s.024-.06.024-.1V.026C.658.02.655.013.648.008S.634 0 .625 0 .61.003.602.008.593.02.593.026v.266c0 .028-.006.05-.017.07S.55.395.533.404.498.42.48.42.44.414.423.404.39.38.38.36.362.32.362.296v-.27C.362.016.358.01.35.006S.337 0 .33 0 .314.002.307.006s-.01.01-.01.02v.27C.297.32.292.34.28.36S.257.392.24.403.204.42.183.42.145.414.127.404.094.38.082.36.065.32.065.292V.026C.065.02.062.013.055.008S.04 0 .032 0z"/></symbol><use xlink:href="#i" transform="matrix(8.628099 0 0 -8.628099 317.67799 143.85343)"/><use xlink:href="#S" transform="matrix(8.628099 0 0 -8.628099 321.99205 143.86205)"/><use xlink:href="#n" transform="matrix(8.628099 0 0 -8.628099 326.1939 143.80165)"/><use xlink:href="#n" transform="matrix(8.628099 0 0 -8.628099 332.9152 143.80165)"/><use xlink:href="#S" transform="matrix(8.628099 0 0 -8.628099 339.48118 143.86205)"/><use xlink:href="#K" transform="matrix(8.628099 0 0 -8.628099 343.68305 143.80165)"/><symbol id="o"><path d="M.032 0C.023 0 .016.003.01.008S0 .02 0 .026V.74C.016.76.023.763.032.763S.05.76.055.756l.01-.73C.065.02.062.013.055.008S.04 0 .032 0z"/></symbol><use xlink:href="#G" transform="matrix(8.628099 0 0 -8.628099 325.73735 153.86777)"/><use xlink:href="#S" transform="matrix(8.628099 0 0 -8.628099 329.78395 153.92816)"/><use xlink:href="#S" transform="matrix(8.628099 0 0 -8.628099 333.8305 153.92816)"/><use xlink:href="#o" transform="matrix(8.628099 0 0 -8.628099 338.11006 153.86777)"/></g><clipPath id="p"><path d="M320.678 181.91h23.727v25.165h-23.727z" class="G"/></clipPath><g clip-path="url(#p)"><symbol id="q"><path d="M.205 0c-.043 0-.08.006-.1.02S.04.047.024.064 0 .096 0 .108C.007.13.01.136.016.14.037.145.043.14.05.132l.028-.03C.1.092.106.083.125.074S.17.062.2.062.26.067.28.077s.04.026.05.046S.35.17.35.2.344.258.332.277.304.313.284.325A.32.32 0 0 1 .22.357L.15.384C.126.393.104.405.084.418S.05.45.036.472.018.523.018.558a.18.18 0 0 0 .02.09C.05.67.068.7.09.703s.044.023.07.028.05.01.072.01S.268.738.287.735A.32.32 0 0 0 .342.723.14.14 0 0 0 .382.704C.393.697.398.688.398.68.392.658.39.653.385.648.363.642.355.645.344.65A.2.2 0 0 1 .3.67C.282.677.258.68.23.68.205.68.182.676.16.67S.12.65.105.634.084.594.084.564.1.516.102.5.13.47.15.46.192.44.215.432.262.415.285.404.33.38.35.365.386.33.398.304A.23.23 0 0 0 .416.206C.416.16.407.12.39.09S.346.037.314.022.246 0 .205 0z"/></symbol><symbol id="r"><path d="M.23 0C.18 0 .14.01.106.03s-.06.046-.08.078S0 .175 0 .213s.007.064.02.1S.05.35.07.37.114.402.136.412C.116.436.097.462.08.49a.19.19 0 0 0-.025.099c0 .037.008.068.025.093s.04.044.066.057.057.02.1.02S.303.752.327.74.37.714.38.7.4.67.4.662.396.647.4.64A.03.03 0 0 0 .368.632C.36.632.355.635.35.642L.327.667C.32.677.308.685.294.692S.262.703.24.703C.203.703.175.692.154.67S.123.62.123.584C.123.56.127.54.136.52S.157.48.17.463L.216.41.42.19C.433.22.442.254.446.287L.453.37C.454.38.456.387.46.39s.012.007.023.007S.5.395.505.39.51.375.51.363A.54.54 0 0 0 .507.307C.504.283.5.257.493.228A.34.34 0 0 0 .461.144l.092-.1C.56.024.556.017.55.01S.536.003.53.003C.516.006.513.01.5.012L.43.1a.25.25 0 0 0-.08-.071C.316.01.277 0 .23 0m.008.06C.275.06.306.068.33.083S.374.118.39.14L.174.37A.3.3 0 0 1 .126.338C.1.325.096.31.084.3S.067.248.067.22.074.165.087.14.12.097.145.082.202.06.238.06z"/></symbol><use xlink:href="#q" transform="matrix(8.628099 0 0 -8.628099 321.6399 189.87857)"/><use xlink:href="#S" transform="matrix(8.628099 0 0 -8.628099 325.9712 189.87857)"/><use xlink:href="#O" transform="matrix(8.628099 0 0 -8.628099 330.17308 189.81818)"/><use xlink:href="#R" transform="matrix(8.628099 0 0 -8.628099 333.00309 189.81818)"/><use xlink:href="#U" transform="matrix(8.628099 0 0 -8.628099 335.0307 189.81818)"/><use xlink:href="#r" transform="matrix(8.628099 0 0 -8.628099 337.0583 189.90447)"/><use xlink:href="#U" transform="matrix(8.628099 0 0 -8.628099 342.01945 189.81818)"/><use xlink:href="#q" transform="matrix(8.628099 0 0 -8.628099 322.81953 199.94469)"/><use xlink:href="#P" transform="matrix(8.628099 0 0 -8.628099 327.15946 199.94469)"/><use xlink:href="#o" transform="matrix(8.628099 0 0 -8.628099 331.33546 199.8843)"/><use xlink:href="#P" transform="matrix(8.628099 0 0 -8.628099 332.90574 199.94469)"/><use xlink:href="#Q" transform="matrix(8.628099 0 0 -8.628099 336.86598 199.94469)"/><use xlink:href="#R" transform="matrix(8.628099 0 0 -8.628099 340.54158 199.8843)"/></g><clipPath id="s"><path d="M0 0h348v223.612H0z" class="G"/></clipPath><g clip-path="url(#s)"><path d="M235.39 162.855v8.362" class="B C F V"/><path d="M235.39 172.835l-1.08-2.157 1.08.54 1.08-.54-1.08 2.157z" fill="#6c8ebf"/><path d="M235.39 172.835l-1.08-2.157 1.08.54 1.08-.54-1.08 2.157z" class="B C F V"/><g fill="#666"><path d="M235.835 209.6v2.157h-.72V209.6m.72 4.314v2.157h-.72v-2.157m.36 5.666l-1.08-2.157 1.08.54 1.08-.54-1.08 2.157z"/></g><path d="M235.475 219.57l-1.08-2.157 1.08.54 1.08-.54-1.08 2.157z" class="B C F O"/></g><clipPath id="t"><path d="M316.364 75.496h30.917v25.165h-30.917z" class="G"/></clipPath><g clip-path="url(#t)"><use xlink:href="#G" transform="matrix(8.628099 0 0 -8.628099 318.32258 83.40496)"/><use xlink:href="#O" transform="matrix(8.628099 0 0 -8.628099 322.67115 83.40496)"/><use xlink:href="#S" transform="matrix(8.628099 0 0 -8.628099 325.18193 83.465358)"/><use xlink:href="#b" transform="matrix(8.628099 0 0 -8.628099 329.39244 85.40668)"/><use xlink:href="#S" transform="matrix(8.628099 0 0 -8.628099 333.40449 83.465358)"/><use xlink:href="#T" transform="matrix(8.628099 0 0 -8.628099 337.36479 83.465358)"/><use xlink:href="#H" transform="matrix(8.628099 0 0 -8.628099 340.67796 83.465358)"/><use xlink:href="#o" transform="matrix(8.628099 0 0 -8.628099 344.8022 83.40496)"/><symbol id="u"><path d="M.033 0C.024 0 .017.002.01.006S0 .017 0 .026v.68C0 .715.003.72.01.725S.024.73.033.73.048.73.055.725s.01-.01.01-.018v-.3h.29v.3c0 .008.003.014.01.018S.38.73.388.73.403.73.4.725.42.715.42.707v-.68C.42.017.417.01.4.006S.396 0 .388 0 .372.002.365.006s-.01.01-.01.02V.35h-.29V.026c0-.01-.004-.015-.01-.02S.04 0 .033 0z"/></symbol><use xlink:href="#u" transform="matrix(8.628099 0 0 -8.628099 322.4007 93.47108)"/><use xlink:href="#P" transform="matrix(8.628099 0 0 -8.628099 327.04264 93.53147)"/><use xlink:href="#H" transform="matrix(8.628099 0 0 -8.628099 330.87348 93.53147)"/><use xlink:href="#I" transform="matrix(8.628099 0 0 -8.628099 334.77339 93.53147)"/><use xlink:href="#T" transform="matrix(8.628099 0 0 -8.628099 338.85447 93.53147)"/></g><clipPath id="v"><path d="M0 93.47h37.388v35.95H0z" class="G"/></clipPath><g clip-path="url(#v)"><use xlink:href="#G" transform="matrix(8.628099 0 0 -8.628099 5.194475 101.380168)"/><use xlink:href="#O" transform="matrix(8.628099 0 0 -8.628099 9.543029 101.380168)"/><use xlink:href="#S" transform="matrix(8.628099 0 0 -8.628099 12.053801 101.44056)"/><use xlink:href="#b" transform="matrix(8.628099 0 0 -8.628099 16.264306 103.38188)"/><use xlink:href="#S" transform="matrix(8.628099 0 0 -8.628099 20.276371 101.44056)"/><use xlink:href="#T" transform="matrix(8.628099 0 0 -8.628099 24.236662 101.44056)"/><use xlink:href="#H" transform="matrix(8.628099 0 0 -8.628099 27.54985 101.44056)"/><use xlink:href="#o" transform="matrix(8.628099 0 0 -8.628099 31.674078 101.380168)"/><symbol id="w"><path d="M.207 0C.168 0 .133.007.102.02S.046.058.027.09A.25.25 0 0 0 0 .214v.3c0 .05.01.093.027.124S.07.702.1.716s.066.02.105.02A.25.25 0 0 0 .317.714C.348.7.373.68.4.653S.416.597.416.564C.416.55.413.542.407.537S.393.53.383.53.367.532.36.536.35.546.35.555C.347.58.34.603.328.62S.3.653.28.662.236.676.207.676C.162.676.128.664.103.64S.066.576.066.524v-.3c0-.052.012-.09.037-.116S.162.06.207.06s.08.012.105.037S.35.162.35.214v.12H.216c-.008 0-.014.003-.02.01S.19.355.19.362C.202.387.208.4.216.4H.39C.414.377.416.37.416.364v-.15C.416.162.407.12.388.09S.344.035.313.02.246 0 .207 0z"/></symbol><use xlink:href="#w" transform="matrix(8.628099 0 0 -8.628099 1.404223 111.49805)"/><use xlink:href="#P" transform="matrix(8.628099 0 0 -8.628099 5.873577 111.506679)"/><use xlink:href="#K" transform="matrix(8.628099 0 0 -8.628099 9.971915 111.44628)"/><use xlink:href="#P" transform="matrix(8.628099 0 0 -8.628099 14.087514 111.506679)"/><use xlink:href="#O" transform="matrix(8.628099 0 0 -8.628099 18.185853 111.44628)"/><use xlink:href="#H" transform="matrix(8.628099 0 0 -8.628099 20.575823 111.506679)"/><use xlink:href="#R" transform="matrix(8.628099 0 0 -8.628099 24.605145 111.44628)"/><use xlink:href="#J" transform="matrix(8.628099 0 0 -8.628099 27.064146 111.44628)"/><use xlink:href="#S" transform="matrix(8.628099 0 0 -8.628099 28.643082 111.506679)"/><use xlink:href="#K" transform="matrix(8.628099 0 0 -8.628099 32.84496 111.44628)"/><use xlink:href="#u" transform="matrix(8.628099 0 0 -8.628099 10.946542 121.5124)"/><use xlink:href="#P" transform="matrix(8.628099 0 0 -8.628099 15.58845 121.57279)"/><use xlink:href="#H" transform="matrix(8.628099 0 0 -8.628099 19.419318 121.57279)"/><use xlink:href="#I" transform="matrix(8.628099 0 0 -8.628099 23.319214 121.57279)"/></g><defs ><path id="y" d="M275.02 50.604l-1.08-2.157 1.08.54 1.08-.54-1.08 2.157z"/><path id="z" d="M192.335 50.604l-1.086-2.15 1.08.532 1.08-.54-1.07 2.157z"/><path id="AA" d="M161.777 126.905H305.58a5.38 5.38 0 0 1 2.064.41 5.38 5.38 0 0 1 1.749 1.169 5.38 5.38 0 0 1 1.169 1.749 5.38 5.38 0 0 1 .411 2.064v25.165a5.38 5.38 0 0 1-.411 2.064 5.38 5.38 0 0 1-1.169 1.749 5.38 5.38 0 0 1-1.749 1.169 5.38 5.38 0 0 1-2.064.41H161.777a5.38 5.38 0 0 1-2.064-.41 5.38 5.38 0 0 1-1.749-1.169 5.38 5.38 0 0 1-1.169-1.749 5.38 5.38 0 0 1-.41-2.064v-25.165a5.38 5.38 0 0 1 .41-2.064 5.38 5.38 0 0 1 1.169-1.749 5.38 5.38 0 0 1 1.749-1.169 5.38 5.38 0 0 1 2.064-.41z"/><path id="AB" d="M248.777 51.41h52.488c.637 0 1.27.062 1.894.187s1.232.308 1.82.552 1.148.543 1.678.897 1.02.756 1.47 1.207.853.94 1.207 1.47.653 1.09.897 1.678.428 1.196.552 1.82.187 1.256.187 1.894v45.298c0 .637-.062 1.27-.187 1.894s-.308 1.232-.552 1.82-.543 1.148-.897 1.678-.756 1.02-1.207 1.47-.94.853-1.47 1.207-1.09.653-1.678.897-1.196.428-1.82.552-1.256.187-1.894.187h-52.488c-.637 0-1.27-.062-1.894-.187s-1.232-.308-1.82-.552-1.148-.543-1.678-.897-1.02-.756-1.47-1.207a9.68 9.68 0 0 1-2.104-3.149 9.68 9.68 0 0 1-.552-1.821c-.124-.625-.187-1.256-.187-1.894V61.116c0-.637.062-1.27.187-1.894a9.68 9.68 0 0 1 1.449-3.499 9.68 9.68 0 0 1 1.207-1.471c.45-.45.94-.853 1.47-1.207s1.09-.653 1.678-.897 1.196-.428 1.82-.552 1.256-.187 1.894-.187z"/><path id="AC" d="M166.09 51.41h52.488c.637 0 1.27.062 1.894.187s1.232.308 1.82.552 1.148.543 1.678.897 1.02.756 1.47 1.207.853.94 1.207 1.47.653 1.09.897 1.678.428 1.196.552 1.82.187 1.256.187 1.894v45.298c0 .637-.062 1.27-.187 1.894s-.308 1.232-.552 1.82-.543 1.148-.897 1.678-.756 1.02-1.207 1.47-.94.853-1.47 1.207-1.09.653-1.678.897-1.196.428-1.82.552-1.256.187-1.894.187H166.09c-.637 0-1.27-.062-1.894-.187s-1.232-.308-1.82-.552-1.148-.543-1.678-.897-1.02-.756-1.47-1.207-.853-.94-1.207-1.47-.653-1.09-.897-1.678-.428-1.196-.552-1.82-.186-1.256-.186-1.894V61.116c0-.637.062-1.27.186-1.894s.308-1.232.552-1.82.543-1.148.897-1.678.756-1.02 1.207-1.47.94-.853 1.47-1.207 1.09-.653 1.678-.897 1.196-.428 1.82-.552 1.256-.187 1.894-.187z"/><path id="AD" d="M61.5 169.564c.126 0 .447 0 .447-.3 0-.206-.185-.206-.36-.206H59.44c-1.457 0-2.506 1.567-2.506 2.674 0 .797.534 1.464 1.408 1.464 1.146 0 2.4-1.192 2.4-2.6 0-.366-.087-.722-.32-1.032H61.5zm-3.147 3.443c-.495 0-.855-.366-.855-1.013 0-.563.35-2.43 1.777-2.43.418 0 .884.197.884.92a3.78 3.78 0 0 1-.495 1.661c-.35.554-.874.863-1.31.863z"/><path id="AE" d="M64.883 166.065c-1.457 1.257-1.826 3.162-1.826 4.69 0 1.65.418 3.5 1.826 4.7h.583c-.38-.338-.97-1.07-1.31-2.13-.262-.835-.36-1.708-.36-2.56 0-2.768 1.02-4.12 1.67-4.7h-.583z"/><path id="AF" d="M70.733 169.198c0-.02-.31-.216-.573-.3-.214-.075-.466-.103-.796-.103-1.525 0-2.642 1.492-2.642 2.72 0 .873.573 1.68 1.64 1.68.66 0 1.195-.216 1.65-.478l.087-.63c-.31.206-.864.525-1.603.525-.63 0-1.03-.422-1.03-1.145 0-.835.583-2.092 1.777-2.092a1.71 1.71 0 0 1 1.243.422l.243-.6z"/><path id="AG" d="M72.273 170.274h-.142c-.42.375-.952.4-1.34.413v.394c.253-.006.576-.02.9-.144v3.177h-.86v.394h2.305v-.394h-.86v-3.84z"/><path id="AH" d="M75.147 175.456c1.457-1.257 1.826-3.162 1.826-4.69 0-1.65-.418-3.5-1.826-4.7h-.583c.38.338.97 1.07 1.31 2.13.262.835.36 1.708.36 2.56 0 2.768-1.02 4.12-1.67 4.7h.583z"/><path id="AI" d="M79.433 173.092v-.75h-.787v.76h.243l-.243 1.173h.39l.398-1.182z"/><path id="AJ" d="M97.233 169.564c.126 0 .447 0 .447-.3 0-.206-.185-.206-.36-.206h-2.146c-1.457 0-2.506 1.567-2.506 2.674 0 .797.534 1.464 1.408 1.464 1.146 0 2.4-1.192 2.4-2.6 0-.366-.087-.722-.32-1.032h1.078zm-3.147 3.443c-.495 0-.855-.366-.855-1.013 0-.563.35-2.43 1.777-2.43.418 0 .884.197.884.92a3.78 3.78 0 0 1-.495 1.661c-.35.554-.874.863-1.31.863z"/><path id="AK" d="M106.69 170.52c0-.966-.65-1.726-1.65-1.726-1.37 0-2.632 1.398-2.632 2.72 0 .966.67 1.68 1.67 1.68 1.31 0 2.613-1.267 2.613-2.674zm-2.486 2.092c-.456 0-1.04-.253-1.04-1.154 0-1.145.777-2.102 1.748-2.102.602 0 1.06.385 1.06 1.116 0 .938-.7 2.14-1.768 2.14z"/><path id="AL" d="M72.027 192.736l-.233.006h-.738l1.004-.857c.117-.1.434-.332.557-.432.285-.25.667-.575.667-1.12 0-.707-.544-1.35-1.47-1.35-.686 0-1.114.357-1.334.995l.304.37c.15-.525.376-.932.94-.932.544 0 .958.37.958.932 0 .52-.317.813-.706 1.17-.13.125-.48.407-.615.532l-.822.738v.432h2.745v-.482h-1.256z"/><path id="AM" d="M61.46 213.488c.127 0 .448 0 .448-.29 0-.2-.185-.2-.36-.2h-2.15c-1.46 0-2.51 1.52-2.51 2.595 0 .774.535 1.42 1.41 1.42 1.15 0 2.404-1.156 2.404-2.522 0-.355-.088-.7-.32-1.002h1.08zm-3.154 3.342c-.496 0-.857-.355-.857-.983 0-.546.35-2.36 1.78-2.36.42 0 .886.19.886.892 0 .32-.156 1.084-.496 1.612-.35.537-.876.838-1.314.838z"/><path id="AN" d="M64.85 210.092c-1.46 1.22-1.83 3.07-1.83 4.553 0 1.603.42 3.388 1.83 4.562h.584c-.38-.328-.973-1.038-1.314-2.067-.263-.8-.36-1.657-.36-2.486 0-2.686 1.022-3.998 1.674-4.562h-.584z"/><path id="AO" d="M71.276 214.015c0-.097 0-.23-.15-.23s-.15.134-.15.23v5.61c0 .097 0 .23.15.23s.15-.134.15-.23v-5.61z"/><path id="AP" d="M75.04 214.125h-.6v3.145c-.857-.22-.895-1.087-.895-1.5 0-.898-.104-1.172-.526-1.172h-.545v.4c.454.018.46.6.46.898.006.935.493 1.657 1.505 1.79v.65h.6v-.65c1.538-.188 1.55-1.542 1.55-1.95 0-.182.04-.722.46-.74v-.4h-.545c-.298 0-.526.08-.526 1.068 0 .455-.006 1.384-.94 1.603v-3.145z"/><path id="AQ" d="M80.88 219.207c1.46-1.22 1.83-3.07 1.83-4.553 0-1.603-.42-3.388-1.83-4.562h-.584c.38.328.973 1.038 1.314 2.067.263.8.36 1.657.36 2.486 0 2.686-1.022 3.998-1.674 4.562h.584z"/><path id="AR" d="M85.176 216.912v-.73h-.788v.738h.243l-.243 1.138h.39l.4-1.147z"/><path id="AS" d="M134.814 76.215v65.43c0 .92-.1 1.832-.27 2.735s-.446 1.78-.798 2.63-.784 1.66-1.296 2.424-1.093 1.474-1.744 2.125a13.99 13.99 0 0 1-2.125 1.744c-.765.51-1.573.943-2.424 1.296s-1.727.618-2.63.798-1.815.27-2.735.27h-65.43c-.92 0-1.832-.1-2.735-.27a13.99 13.99 0 0 1-2.63-.798c-.85-.352-1.66-.784-2.424-1.296a13.99 13.99 0 0 1-3.868-3.868c-.51-.765-.943-1.573-1.296-2.424s-.618-1.727-.798-2.63-.27-1.815-.27-2.735v-65.43c0-.92.1-1.832.27-2.735s.446-1.78.798-2.63.784-1.66 1.296-2.424S44.8 66.952 45.45 66.3s1.36-1.232 2.125-1.744 1.573-.943 2.424-1.296 1.727-.618 2.63-.798 1.815-.27 2.735-.27h65.43c.92 0 1.832.1 2.735.27s1.78.446 2.63.798 1.66.784 2.424 1.296 1.474 1.093 2.125 1.744 1.232 1.36 1.744 2.125.943 1.573 1.296 2.424.618 1.727.798 2.63.27 1.815.27 2.735z"/><path id="AT" d="M80.24 203.48a1.07 1.07 0 0 1-.316.763 1.07 1.07 0 0 1-.763.316 1.07 1.07 0 0 1-.763-.316 1.07 1.07 0 0 1-.316-.763 1.07 1.07 0 0 1 .316-.763 1.07 1.07 0 0 1 .763-.316 1.07 1.07 0 0 1 .763.316 1.07 1.07 0 0 1 .316.763z"/><path id="AU" d="M55.723 23.727V50.33a1.07 1.07 0 0 1-.316.763 1.07 1.07 0 0 1-.763.316h-5.033a1.07 1.07 0 0 1-.763-.316 1.07 1.07 0 0 1-.316-.763V23.727a1.07 1.07 0 0 1 .316-.763 1.07 1.07 0 0 1 .763-.316h5.033a1.07 1.07 0 0 1 .763.316 1.07 1.07 0 0 1 .316.763z"/><path id="AV" d="M48.533 23.727V50.33a1.07 1.07 0 0 1-.316.763 1.07 1.07 0 0 1-.763.316H42.42a1.07 1.07 0 0 1-.763-.316 1.07 1.07 0 0 1-.316-.763V23.727a1.07 1.07 0 0 1 .316-.763 1.07 1.07 0 0 1 .763-.316h5.033a1.07 1.07 0 0 1 .763.316 1.07 1.07 0 0 1 .316.763z"/><path id="AW" d="M88.08 162.05L87 159.893l1.08.54 1.08-.54-1.08 2.157z"/><path id="AX" d="M120.434 78.73v10.066c0 .286-.055.56-.164.825s-.265.498-.468.7-.436.358-.7.468-.54.164-.825.164H57.88c-.286 0-.56-.055-.825-.164s-.498-.265-.7-.468-.358-.436-.468-.7-.164-.54-.164-.825V78.73c0-.286.055-.56.164-.825s.265-.498.468-.7.436-.358.7-.468.54-.164.825-.164h60.397c.286 0 .56.055.825.164s.498.265.7.468.358.436.468.7.164.54.164.825z"/><path id="AY" d="M120.434 103.897v10.066c0 .286-.055.56-.164.825s-.265.498-.468.7-.436.358-.7.468-.54.164-.825.164H57.88c-.286 0-.56-.055-.825-.164s-.498-.265-.7-.468-.358-.436-.468-.7-.164-.54-.164-.825v-10.066c0-.286.055-.56.164-.825s.265-.498.468-.7.436-.358.7-.468.54-.164.825-.164h60.397c.286 0 .56.055.825.164s.498.265.7.468.358.436.468.7.164.54.164.825z"/><path id="AZ" d="M272.173 58.96h20.132c.283 0 .564.028.842.083s.548.137.81.245.5.24.746.4a4.3 4.3 0 0 1 .654.537c.2.2.38.418.536.654s.3.484.4.746a4.3 4.3 0 0 1 .328 1.651v20.132a4.3 4.3 0 0 1-.083.842c-.055.278-.137.548-.246.81a4.3 4.3 0 0 1-.399.746c-.157.236-.336.453-.536.654a4.3 4.3 0 0 1-.654.537c-.236.157-.484.3-.746.4s-.53.2-.81.245-.558.083-.842.083h-20.132c-.283 0-.564-.028-.842-.083s-.548-.137-.81-.245-.5-.24-.746-.4-.453-.336-.654-.537-.38-.418-.537-.654-.3-.484-.4-.746-.2-.53-.245-.81-.083-.558-.083-.842V63.273c0-.283.028-.564.083-.842s.137-.548.245-.81.24-.5.4-.746.336-.453.537-.654.418-.38.654-.537.484-.3.746-.4.53-.2.81-.245.558-.083.842-.083z"/><path id="Aa" d="M275.59 71.54H288.9a.52.52 0 0 1 .539.539v2.517a.52.52 0 0 1-.539.539H275.59a.52.52 0 0 1-.539-.539V72.08a.52.52 0 0 1 .539-.539z"/><path id="Ab" d="M275.59 78.73H288.9a.52.52 0 0 1 .539.539v2.517a.52.52 0 0 1-.539.539H275.59a.52.52 0 0 1-.539-.539V79.27a.52.52 0 0 1 .539-.539z"/><path id="Ac" d="M275.59 64.35H288.9a.52.52 0 0 1 .539.539v2.517a.52.52 0 0 1-.539.539H275.59a.52.52 0 0 1-.539-.539V64.9a.52.52 0 0 1 .539-.539z"/><path id="Ad" d="M264.983 66.15h20.132c.283 0 .564.028.842.083s.548.137.81.245.5.24.746.4.453.336.654.537a4.3 4.3 0 0 1 .935 1.4c.108.262.2.53.245.81a4.3 4.3 0 0 1 .083.842v20.132a4.3 4.3 0 0 1-.083.842c-.055.278-.137.548-.245.81a4.3 4.3 0 0 1-.935 1.4c-.2.2-.418.38-.654.537s-.484.3-.746.4-.53.2-.81.245-.558.083-.842.083h-20.132c-.283 0-.564-.028-.842-.083s-.548-.137-.81-.245-.5-.24-.746-.4-.453-.336-.654-.537-.38-.418-.537-.654-.3-.484-.4-.746-.2-.53-.245-.81-.083-.558-.083-.842V70.463c0-.283.028-.564.083-.842s.137-.548.245-.81.24-.5.4-.746.336-.453.537-.654.418-.38.654-.537.484-.3.746-.4.53-.2.81-.245.558-.083.842-.083z"/><path id="Ae" d="M268.4 78.73H281.7a.52.52 0 0 1 .539.539v2.517a.52.52 0 0 1-.539.539H268.4a.52.52 0 0 1-.539-.539V79.27a.52.52 0 0 1 .539-.539z"/><path id="Af" d="M268.4 85.92H281.7a.52.52 0 0 1 .539.539v2.517a.52.52 0 0 1-.539.539H268.4a.52.52 0 0 1-.539-.539V86.46a.52.52 0 0 1 .539-.539z"/><path id="Ag" d="M268.4 71.54H281.7a.52.52 0 0 1 .539.539v2.517a.52.52 0 0 1-.539.539H268.4a.52.52 0 0 1-.539-.539V72.08a.52.52 0 0 1 .539-.539z"/><path id="Ah" d="M257.793 73.34h20.132c.283 0 .564.028.842.083s.548.137.81.245.5.24.746.4.453.336.654.537.38.418.536.654.3.484.4.746a4.3 4.3 0 0 1 .245.809c.055.278.083.558.083.842v20.132c0 .283-.028.564-.083.842s-.137.548-.246.81-.24.5-.4.746-.336.453-.536.654-.418.38-.654.536-.484.3-.746.4-.53.2-.81.245-.558.083-.842.083h-20.132c-.283 0-.564-.028-.842-.083s-.548-.137-.81-.245-.5-.24-.746-.4-.453-.336-.654-.536-.38-.418-.537-.654-.3-.484-.4-.746-.2-.53-.245-.81-.083-.558-.083-.842V77.653c0-.283.028-.564.083-.842s.137-.548.245-.81.24-.5.4-.746.336-.453.537-.654.418-.38.654-.537.484-.3.746-.4.53-.2.81-.245.558-.083.842-.083z"/><path id="Ai" d="M261.21 85.92H274.5a.52.52 0 0 1 .539.539v2.517a.52.52 0 0 1-.539.539H261.21a.52.52 0 0 1-.539-.539V86.46a.52.52 0 0 1 .539-.539z"/><path id="Aj" d="M261.21 93.112H274.5a.52.52 0 0 1 .539.539v2.517a.52.52 0 0 1-.539.539H261.21a.52.52 0 0 1-.539-.539V93.65a.52.52 0 0 1 .539-.539z"/><path id="Ak" d="M261.21 78.73H274.5a.52.52 0 0 1 .539.539v2.517a.52.52 0 0 1-.539.539H261.21a.52.52 0 0 1-.539-.539V79.27a.52.52 0 0 1 .539-.539z"/><path id="Al" d="M250.603 80.53h20.132c.283 0 .564.028.842.083s.548.137.81.245.5.24.746.4.453.336.654.537a4.3 4.3 0 0 1 .536.654c.157.236.3.484.4.746a4.3 4.3 0 0 1 .245.809c.055.278.083.558.083.842v20.132c0 .283-.028.564-.083.842s-.137.548-.246.81-.24.5-.4.746a4.3 4.3 0 0 1-.536.654c-.2.2-.418.38-.654.537s-.484.3-.746.4-.53.2-.81.245-.558.083-.842.083h-20.132c-.283 0-.564-.028-.842-.083s-.548-.137-.81-.245-.5-.24-.746-.4-.453-.336-.654-.537-.38-.418-.537-.654-.3-.484-.4-.746-.2-.53-.245-.81-.083-.558-.083-.842V84.843c0-.283.028-.564.083-.842s.137-.548.245-.81.24-.5.4-.746.336-.453.537-.654.418-.38.654-.537.484-.3.746-.4.53-.2.81-.245.558-.083.842-.083z"/><path id="Am" d="M254.018 93.112h13.302a.52.52 0 0 1 .539.539v2.517a.52.52 0 0 1-.539.539h-13.302a.52.52 0 0 1-.539-.539V93.65a.52.52 0 0 1 .539-.539z"/><path id="An" d="M254.018 100.302h13.302a.52.52 0 0 1 .539.539v2.517a.52.52 0 0 1-.539.539h-13.302a.52.52 0 0 1-.539-.539v-2.517a.52.52 0 0 1 .539-.539z"/><path id="Ao" d="M254.018 85.92h13.302a.52.52 0 0 1 .539.539v2.517a.52.52 0 0 1-.539.539h-13.302a.52.52 0 0 1-.539-.539V86.46a.52.52 0 0 1 .539-.539z"/><path id="Ap" d="M189.46 58.96h20.132c.283 0 .564.028.842.083s.548.137.81.245.5.24.746.4.453.336.654.537.38.418.537.654a4.3 4.3 0 0 1 .399.746c.108.262.2.53.245.81s.083.558.083.842v20.132a4.3 4.3 0 0 1-.083.842c-.055.278-.137.548-.245.81a4.3 4.3 0 0 1-.399.746c-.157.236-.336.453-.537.654s-.418.38-.654.537-.484.3-.746.4-.53.2-.81.245-.558.083-.842.083H189.46c-.283 0-.564-.028-.842-.083s-.548-.137-.81-.245-.5-.24-.746-.4-.453-.336-.654-.537-.38-.418-.537-.654-.3-.484-.4-.746-.2-.53-.245-.81-.083-.558-.083-.842V63.273c0-.283.028-.564.083-.842a4.3 4.3 0 0 1 .245-.809c.108-.262.24-.5.4-.746s.336-.453.537-.654.418-.38.654-.537.484-.3.746-.4.53-.2.81-.245.558-.083.842-.083z"/><path id="Aq" d="M192.874 71.54h13.302a.52.52 0 0 1 .539.539v2.517a.52.52 0 0 1-.539.539h-13.302a.52.52 0 0 1-.539-.539V72.08a.52.52 0 0 1 .539-.539z"/><path id="Ar" d="M192.874 78.73h13.302a.52.52 0 0 1 .539.539v2.517a.52.52 0 0 1-.539.539h-13.302a.52.52 0 0 1-.539-.539V79.27a.52.52 0 0 1 .539-.539z"/><path id="As" d="M192.874 64.35h13.302a.52.52 0 0 1 .539.539v2.517a.52.52 0 0 1-.539.539h-13.302a.52.52 0 0 1-.539-.539V64.9a.52.52 0 0 1 .539-.539z"/><path id="At" d="M182.27 66.15H202.4c.283 0 .564.028.842.083s.548.137.81.245.5.24.746.4.453.336.654.537.38.418.537.654.3.484.4.746.2.53.245.81.083.558.083.842v20.132c0 .283-.028.564-.083.842s-.137.548-.245.81-.24.5-.4.746a4.3 4.3 0 0 1-.536.654c-.2.2-.418.38-.654.537s-.484.3-.746.4-.53.2-.81.245-.558.083-.842.083H182.27c-.283 0-.564-.028-.842-.083s-.548-.137-.81-.245-.5-.24-.746-.4-.453-.336-.654-.537-.38-.418-.537-.654-.3-.484-.4-.746-.2-.53-.245-.81-.083-.558-.083-.842V70.463c0-.283.028-.564.083-.842s.137-.548.245-.81.24-.5.4-.746.336-.453.537-.654.418-.38.654-.537.484-.3.746-.4.53-.2.81-.245.558-.083.842-.083z"/><path id="Au" d="M175.08 73.34h20.132c.283 0 .564.028.842.083s.548.137.81.245.5.24.746.4.453.336.654.537a4.3 4.3 0 0 1 .536.654c.157.236.3.484.4.746a4.3 4.3 0 0 1 .246.809c.055.278.083.558.083.842v20.132c0 .283-.028.564-.083.842a4.3 4.3 0 0 1-.246.809c-.108.262-.24.5-.4.746a4.3 4.3 0 0 1-.536.654c-.2.2-.418.38-.654.536s-.484.3-.746.4-.53.2-.81.245-.558.083-.842.083H175.08c-.283 0-.564-.028-.842-.083s-.548-.137-.81-.245-.5-.24-.746-.4-.453-.336-.654-.536-.38-.418-.537-.654-.3-.484-.4-.746-.2-.53-.245-.81a4.3 4.3 0 0 1-.083-.842V77.653c0-.283.028-.564.083-.842s.137-.548.245-.81.24-.5.4-.746.336-.453.537-.654.418-.38.654-.537.484-.3.746-.4.53-.2.81-.245.558-.083.842-.083z"/><path id="Av" d="M167.888 80.53h20.132c.283 0 .564.028.842.083s.548.137.81.245.5.24.746.4.453.336.654.537.38.418.537.654.3.484.4.746.2.53.245.81.083.558.083.842v20.132c0 .283-.028.564-.083.842s-.137.548-.245.81-.24.5-.4.746-.336.453-.537.654-.418.38-.654.537-.484.3-.746.4-.53.2-.81.245-.558.083-.842.083h-20.132c-.283 0-.564-.028-.842-.083s-.548-.137-.81-.245-.5-.24-.746-.4-.453-.336-.654-.537-.38-.418-.537-.654-.3-.484-.4-.746a4.3 4.3 0 0 1-.328-1.651V84.843c0-.283.028-.564.083-.842a4.3 4.3 0 0 1 .245-.809c.108-.262.24-.5.4-.746s.336-.453.537-.654.418-.38.654-.537.484-.3.746-.4.53-.2.81-.245.558-.083.842-.083z"/><path id="Aw" d="M261.18 19.054h2.517a.52.52 0 0 1 .539.539v13.302a.52.52 0 0 1-.539.539h-2.517a.52.52 0 0 1-.539-.539V19.593a.52.52 0 0 1 .539-.539z"/><path id="Ax" d="M179.004 19.054h5.033a1.07 1.07 0 0 1 .763.316 1.07 1.07 0 0 1 .316.763v12.223a1.07 1.07 0 0 1-.316.763 1.07 1.07 0 0 1-.763.316h-5.033a1.07 1.07 0 0 1-.763-.316 1.07 1.07 0 0 1-.316-.763V20.132a1.07 1.07 0 0 1 .316-.763 1.07 1.07 0 0 1 .763-.316z"/><path id="Ay" d="M274.956 126.243l-1.064-2.164 1.08.546 1.08-.532-1.093 2.15z"/><path id="Az" d="M212.467 141.645c0 .286-.055.56-.164.825s-.265.498-.468.7-.436.358-.7.468-.54.164-.825.164-.56-.055-.825-.164-.498-.265-.7-.468-.358-.436-.468-.7-.164-.54-.164-.825.055-.56.164-.825.265-.498.468-.7.436-.358.7-.468.54-.164.825-.164.56.055.825.164.498.265.7.468.358.436.468.7.164.54.164.825z"/><path id="BA" d="M259.202 134.455c0 .286-.055.56-.164.825s-.265.498-.468.7-.436.358-.7.468-.54.164-.825.164-.56-.055-.826-.164-.498-.265-.7-.468-.358-.436-.468-.7-.164-.54-.164-.825.055-.56.164-.825.265-.498.468-.7.435-.358.7-.468.54-.164.826-.164.56.055.825.164.498.265.7.468.358.436.468.7.164.54.164.825z"/><path id="BB" d="M266.393 141.645c0 .286-.055.56-.164.825s-.265.498-.468.7-.436.358-.7.468-.54.164-.825.164-.56-.055-.825-.164-.498-.265-.7-.468-.358-.436-.468-.7-.164-.54-.164-.825.055-.56.164-.825.265-.498.468-.7.435-.358.7-.468.54-.164.825-.164.56.055.825.164.498.265.7.468.358.436.468.7.164.54.164.825z"/><path id="BC" d="M284.368 148.835c0 .286-.055.56-.164.825s-.265.498-.468.7-.436.358-.7.468-.54.164-.825.164-.56-.055-.825-.164-.497-.265-.7-.468-.358-.436-.468-.7-.164-.54-.164-.825.055-.56.164-.825.265-.498.468-.7.435-.358.7-.468.54-.164.825-.164.56.055.825.164.498.265.7.468.358.436.468.7.164.54.164.825z"/><path id="BD" d="M190.537 173.64h89.876a5.38 5.38 0 0 1 2.064.41 5.38 5.38 0 0 1 1.749 1.169 5.38 5.38 0 0 1 1.169 1.749 5.38 5.38 0 0 1 .411 2.064v25.165a5.38 5.38 0 0 1-.411 2.064 5.38 5.38 0 0 1-.498.932c-.197.294-.42.567-.67.817a5.38 5.38 0 0 1-1.749 1.169 5.38 5.38 0 0 1-2.064.41h-89.876a5.38 5.38 0 0 1-2.064-.41c-.327-.136-.638-.302-.932-.498a5.38 5.38 0 0 1-.817-.671c-.25-.25-.474-.523-.67-.817a5.38 5.38 0 0 1-.805-1.944 5.38 5.38 0 0 1-.104-1.052v-25.165a5.38 5.38 0 0 1 .41-2.064 5.38 5.38 0 0 1 1.169-1.749 5.38 5.38 0 0 1 1.749-1.169 5.38 5.38 0 0 1 2.064-.41z"/></defs></svg>