<svg xmlns="http://www.w3.org/2000/svg" xmlns:xlink="http://www.w3.org/1999/xlink" width="416" height="296" viewBox="0 0 312 222" xmlns:v="https://vecta.io/nano"><style><![CDATA[.B{fill:none}.C{stroke-width:.721}.D{stroke:#b85450}.E{stroke:#d6b656}.F{stroke-miterlimit:10}.G{fill-rule:evenodd}.H{fill:#f8cecc}.I{fill:#fff2cc}.J{fill:#fff}.K{fill:#d6b656}.L{fill:#b85450}.M{stroke:#bd7000}.N{fill:#c4c4c4}.O{stroke:#666}.P{stroke:#36393d}.Q{fill:#f0a30a}.R{stroke:#d79b00}.S{stroke:#000}.T{stroke:#bababa}.U{fill:#ffe6cc}.V{fill:#d79b00}.W{stroke:#6c8ebf}.X{fill:#f5f5f5}.Y{fill-opacity:.902}.Z{fill-opacity:.702}]]></style><clipPath id="A"><use xlink:href="#x" class="G"/></clipPath><g clip-path="url(#A)" class="J"><use xlink:href="#x"/></g><clipPath id="B"><use xlink:href="#x" class="G"/></clipPath><g clip-path="url(#B)"><g class="B C F"><use xlink:href="#y" class="M"/><path d="M137.986 34.947h7.206c4.804 0 7.206 2.402 7.206 7.206v7.206" class="R"/><path d="M249.672 34.947h-7.206c-4.804 0-7.206 1.998-7.206 5.995v5.988" class="M"/></g><use xlink:href="#z" fill="#bd7000"/><g class="B C F"><use xlink:href="#z" class="M"/><path d="M166.808 34.947h-7.234c-4.804 0-7.2 1.998-7.19 5.995l.007 5.988" class="R"/></g><use xlink:href="#AA" class="V"/><use xlink:href="#AA" class="B C F R"/><use xlink:href="#AB" class="J"/><use xlink:href="#AB" class="B C W"/><use xlink:href="#AC" class="J"/><use xlink:href="#AC" class="B C D"/><use xlink:href="#AD" class="J"/><g class="B C"><use xlink:href="#AD" class="E"/><g stroke="#b3b3b3" class="F"><path d="M91.287 153.918l35.776-46.613m-42.52-41.72l42.405 13.128"/></g></g></g><clipPath id="C"><path d="M11.96 182.315h57.644v9.367H11.96z" class="G"/></clipPath><g clip-path="url(#C)"><use xlink:href="#AE"/><use xlink:href="#AF"/><path d="M26.21 185.43c0-.02-.31-.216-.574-.3-.214-.075-.467-.103-.798-.103-1.528 0-2.648 1.495-2.648 2.727 0 .874.574 1.683 1.645 1.683.662 0 1.197-.216 1.655-.48l.088-.63c-.31.207-.866.527-1.606.527-.633 0-1.032-.423-1.032-1.147 0-.837.584-2.097 1.78-2.097.526 0 .837.094 1.246.423l.243-.602z"/><use xlink:href="#AG"/><use xlink:href="#AH"/><use xlink:href="#AI"/><path d="M40.397 182.815h-.72l-1.44 6.525h.72l1.44-6.525zm1.396 3.692h-.143c-.422.376-.954.4-1.343.414v.395c.253-.006.578-.02.902-.144v3.184h-.863v.395h2.3v-.395h-.863v-3.85zm3.483 2.823v-.752h-.788v.762h.243l-.243 1.175h.4l.4-1.185zm7.492-3.535c.127 0 .448 0 .448-.3 0-.207-.185-.207-.36-.207h-2.15c-1.46 0-2.5 1.57-2.5 2.68 0 .8.535 1.467 1.4 1.467 1.15 0 2.404-1.194 2.404-2.604 0-.367-.088-.724-.32-1.034h1.08zm-3.154 3.45c-.496 0-.857-.367-.857-1.015 0-.564.35-2.435 1.78-2.435.42 0 .886.197.886.92 0 .33-.156 1.12-.496 1.664-.35.555-.876.865-1.314.865zm6.544-6.957c-1.46 1.26-1.83 3.17-1.83 4.7 0 1.655.42 3.498 1.83 4.7h.584c-.38-.338-.973-1.072-1.314-2.134-.263-.837-.36-1.7-.36-2.567 0-2.774 1.022-4.128 1.674-4.7h-.584zm6.086 4.466c0-.968-.652-1.73-1.655-1.73-1.372 0-2.638 1.4-2.638 2.727 0 .968.672 1.683 1.674 1.683 1.314 0 2.618-1.27 2.618-2.68zm-2.492 2.097c-.457 0-1.04-.254-1.04-1.156 0-1.147.78-2.106 1.752-2.106.603 0 1.06.385 1.06 1.12 0 .94-.7 2.144-1.772 2.144zm4.34-2.344h-.143c-.422.376-.954.4-1.343.414v.395c.253-.006.578-.02.902-.144v3.184h-.863v.395h2.3v-.395h-.863v-3.85zm2.878 5.193c1.46-1.26 1.83-3.17 1.83-4.7 0-1.655-.42-3.498-1.83-4.7h-.584c.38.338.973 1.072 1.314 2.134.263.837.36 1.7.36 2.567 0 2.774-1.022 4.128-1.674 4.7h.584z"/></g><clipPath id="D"><path d="M11.96 205.733H86.9v10.088H11.96z" class="G"/></clipPath><g clip-path="url(#D)"><path d="M16.916 209.278c.127 0 .45 0 .45-.292 0-.2-.185-.2-.36-.2H14.85c-1.463 0-2.517 1.524-2.517 2.6 0 .776.536 1.424 1.414 1.424 1.15 0 2.41-1.16 2.41-2.528a1.59 1.59 0 0 0-.322-1.004h1.083zm-3.16 3.35c-.497 0-.858-.356-.858-.986 0-.548.35-2.364 1.785-2.364.42 0 .888.192.888.894a3.59 3.59 0 0 1-.497 1.615c-.35.538-.878.84-1.317.84z"/><use xlink:href="#AJ"/><path d="M26.2 208.922c0-.018-.312-.2-.576-.292-.215-.073-.468-.1-.8-.1-1.53 0-2.653 1.45-2.653 2.647 0 .85.576 1.634 1.648 1.634.663 0 1.2-.2 1.658-.465l.088-.61c-.312.2-.868.51-1.61.51-.634 0-1.034-.41-1.034-1.113 0-.812.585-2.035 1.785-2.035.527 0 .84.09 1.25.41l.244-.584z"/><use xlink:href="#AK"/><use xlink:href="#AL"/><path d="M34.02 209.806c0-.097 0-.23-.15-.23s-.15.134-.15.23v5.622c0 .097 0 .23.15.23s.15-.134.15-.23v-5.622z"/><use xlink:href="#AM"/><use xlink:href="#AN"/><path d="M46.163 206.385h-.722l-1.444 6.333h.722l1.444-6.333zm.417 3.42c0-.097 0-.23-.15-.23s-.15.134-.15.23v5.622c0 .097 0 .23.15.23s.15-.134.15-.23v-5.622zm3.773.1h-.6v3.15c-.858-.22-.897-1.1-.897-1.503 0-.9-.104-1.174-.527-1.174h-.546v.402c.455.018.462.602.462.9.007.937.494 1.66 1.5 1.795v.65h.6v-.65c1.54-.2 1.554-1.545 1.554-1.953 0-.183.04-.724.462-.742v-.402h-.546c-.3 0-.527.08-.527 1.07 0 .456-.007 1.387-.943 1.606v-3.15zm3.494-.1c0-.097 0-.23-.15-.23s-.15.134-.15.23v5.622c0 .097 0 .23.15.23s.15-.134.15-.23v-5.622zM56.8 212.7v-.73H56v.74h.244L56 213.86h.4l.4-1.15zm7.5-3.432c.127 0 .45 0 .45-.292 0-.2-.185-.2-.36-.2h-2.16c-1.463 0-2.517 1.524-2.517 2.6 0 .776.536 1.424 1.414 1.424 1.15 0 2.4-1.16 2.4-2.528a1.59 1.59 0 0 0-.322-1.004h1.083zm-3.16 3.35c-.497 0-.858-.356-.858-.986 0-.548.35-2.364 1.785-2.364.42 0 .888.192.888.894a3.59 3.59 0 0 1-.497 1.615c-.35.538-.878.84-1.317.84zm6.556-6.754c-1.463 1.223-1.834 3.075-1.834 4.563 0 1.606.42 3.395 1.834 4.572h.585c-.38-.33-.975-1.04-1.317-2.072-.263-.812-.36-1.66-.36-2.5 0-2.692 1.024-4.006 1.678-4.572h-.585zm6.1 4.336c0-.94-.654-1.68-1.658-1.68-1.375 0-2.643 1.36-2.643 2.647 0 .94.673 1.634 1.678 1.634 1.317 0 2.624-1.232 2.624-2.6zm-2.497 2.035c-.458 0-1.044-.246-1.044-1.122 0-1.113.78-2.044 1.756-2.044.605 0 1.063.374 1.063 1.086 0 .913-.693 2.08-1.775 2.08zm3.365-2.44c0-.097 0-.23-.15-.23s-.15.134-.15.23v5.622c0 .097 0 .23.15.23s.15-.134.15-.23v-5.622zm3.773.1h-.6v3.15c-.858-.22-.897-1.1-.897-1.503 0-.9-.104-1.174-.527-1.174h-.546v.402c.455.018.462.602.462.9.007.937.494 1.66 1.5 1.795v.65h.6v-.65c1.54-.2 1.554-1.545 1.554-1.953 0-.183.04-.724.462-.742v-.402h-.546c-.3 0-.527.08-.527 1.07 0 .456-.007 1.387-.943 1.606v-3.15zm3.493-.1c0-.097 0-.23-.15-.23s-.15.134-.15.23v5.622c0 .097 0 .23.15.23s.15-.134.15-.23v-5.622zM84.3 215c1.463-1.223 1.834-3.075 1.834-4.563 0-1.606-.42-3.395-1.834-4.572h-.585c.38.33.975 1.04 1.317 2.072.263.812.36 1.66.36 2.5 0 2.692-1.024 4.006-1.678 4.572h.585z"/></g><clipPath id="E"><use xlink:href="#x" class="G"/></clipPath><g clip-path="url(#E)"><use xlink:href="#AO" class="J"/><g class="B C"><use xlink:href="#AO" class="S"/><g class="F"><path d="M94.465 22.02v-1.8c0-1.2-1.2-1.8-3.603-1.8h-1.8c-1.2 0-1.8-.6-1.8-1.8v-.9c0-.6 0-.3 0 .9v.9c0 .6-1.2.9-3.603.9h-1.8c-1.2 0-1.8.6-1.8 1.8v1.8" class="T"/><g class="O"><path d="M26.3 51.52L47.917 79.62"/><path d="M33.506 51.52l14.4 28.102m7.206-28.102l-7.205 28.1"/></g></g></g><symbol id="F"><path d="M.033 0C.024 0 .017.002.01.006S0 .017 0 .026v.68C.012.728.02.73.028.73h.184C.25.73.286.724.317.7S.373.673.39.642.418.57.418.52V.51C.418.457.41.415.4.384S.347.33.315.317.25.296.2.296H.066v-.27c0-.01-.004-.015-.01-.02S.04 0 .033 0m.033.353H.2C.255.353.29.365.314.4s.038.064.038.116v.012c0 .052-.013.1-.038.115S.255.67.2.67H.066V.353z"/></symbol><symbol id="G"><path d="M.136 0C.1 0 .067.01.04.032S0 .087 0 .132C0 .17.01.197.03.216S.076.25.11.257.187.27.233.27h.05v.024c0 .02-.004.042-.012.063s-.02.04-.037.052-.04.02-.07.02C.144.43.126.427.112.422S.087.412.08.407.064.4.06.4.045.404.04.412.033.428.033.435.04.452.053.46s.03.014.052.02a.26.26 0 0 0 .063.008c.045 0 .08-.01.106-.028S.32.416.33.387.35.326.35.293v-.26C.35.026.346.02.34.014S.327.007.317.007.302.01.296.014s-.01.012-.01.02v.044C.27.058.25.04.224.024S.17 0 .136 0m.016.055c.022 0 .043.006.063.017s.036.025.05.04.02.032.02.047v.064H.242C.212.224.183.222.156.218S.107.207.1.195.065.164.065.138.073.088.1.075.128.055.152.055z"/></symbol><symbol id="H"><path d="M.177 0C.146 0 .116.01.09.026S.04.068.024.097 0 .157 0 .2V.3c0 .035.008.066.024.094S.062.443.09.46s.057.026.1.026S.24.478.26.462.3.43.31.4v.336C.328.768.335.77.344.77S.362.768.367.763l.01-.73C.376.026.373.02.367.015S.354.007.344.007.33.01.323.015s-.01.01-.01.018v.044C.303.056.285.038.26.023S.208 0 .177 0m.01.06C.212.06.233.066.25.078S.284.105.295.12.31.15.31.16V.3c0 .027-.006.05-.018.068S.266.4.247.4.21.426.19.426.146.42.127.407.093.38.082.36.065.32.065.3V.2C.065.168.07.147.082.127S.108.09.127.078.166.06.188.06z"/></symbol><symbol id="I"><path d="M.044 0C.035 0 .028.003.02.008s-.01.01-.01.018V.45C.028.47.035.473.044.473S.06.47.067.466l.01-.44C.077.02.074.013.067.008S.053 0 .044 0m0 .613c-.012 0-.022.004-.03.012S0 .644 0 .655s.004.02.013.03.02.012.03.012.023-.004.03-.012.013-.018.013-.03S.084.634.075.625.057.613.044.613z"/></symbol><symbol id="J"><path d="M.032 0C.023 0 .016.003.01.008S0 .02 0 .026V.45C.016.47.023.473.032.473S.048.47.054.466l.01-.063c.01.02.027.037.05.052S.164.48.197.48.258.47.285.453.334.414.35.386.374.327.374.292V.026C.374.017.37.01.364.006S.35 0 .34 0 .326.002.32.006.31.017.31.026v.266c0 .02-.006.042-.017.06S.266.388.247.4.208.42.185.42.146.414.127.403.094.38.082.36.065.32.065.292V.026C.065.02.062.013.055.008S.04 0 .032 0z"/></symbol><symbol id="K"><path d="M.203 0C.164 0 .13.006.098.017S.044.043.026.063 0 .106 0 .133s.01.053.026.07.037.03.06.04C.07.248.056.256.045.266S.03.292.03.31.035.344.044.355s.02.02.036.028C.062.398.048.416.04.437S.025.483.025.51v.038c0 .032.007.06.02.085S.08.676.106.7s.056.02.09.02C.22.71.242.707.262.7S.3.682.314.67a.14.14 0 0 0 .034.047c.013.01.025.016.037.016S.402.73.407.723C.415.7.413.695.4.69L.37.673C.36.667.35.656.342.64.35.628.358.614.363.598S.37.565.37.547V.51C.37.478.363.45.348.424S.313.38.286.364.23.343.196.343A.17.17 0 0 0 .119.36.11.11 0 0 1 .098.345C.09.34.088.332.088.32S.096.296.11.29.146.278.17.275l.074-.01C.27.263.295.258.318.25A.13.13 0 0 0 .376.213C.39.196.4.173.4.142S.4.085.373.064A.15.15 0 0 0 .304.016C.275.005.24 0 .203 0M.202.05C.244.05.277.057.3.074s.036.04.036.066c0 .02-.007.038-.02.05s-.03.018-.05.023a.43.43 0 0 1-.061.01L.152.228C.13.22.108.2.1.196S.063.163.063.14.075.09.1.074A.18.18 0 0 1 .202.049M.198.392c.034 0 .06.01.08.033s.03.05.03.084v.038a.12.12 0 0 1-.029.082C.258.65.232.662.197.662S.135.65.116.63.088.58.088.547V.5c0-.033.01-.06.03-.084S.163.392.198.392z"/></symbol><use xlink:href="#F" transform="matrix(8.64665 0 0 -8.64665 74.66032 11.528868)"/><use xlink:href="#G" transform="matrix(8.64665 0 0 -8.64665 78.62912 11.589395)"/><use xlink:href="#H" transform="matrix(8.64665 0 0 -8.64665 82.53741 11.589395)"/><use xlink:href="#H" transform="matrix(8.64665 0 0 -8.64665 86.72238 11.589395)"/><use xlink:href="#I" transform="matrix(8.64665 0 0 -8.64665 90.9506 11.528868)"/><use xlink:href="#J" transform="matrix(8.64665 0 0 -8.64665 92.68857 11.528868)"/><use xlink:href="#K" transform="matrix(8.64665 0 0 -8.64665 96.65737 13.534891)"/><path d="M58.725 22.697v-1.8c0-1.2-2.402-1.8-7.206-1.8h-5.404c-3.603 0-5.404-.6-5.404-1.8v-.9c0-.6 0-.3 0 .9v.9c0 .6-2.402.9-7.206.9h-5.404c-3.603 0-5.404.6-5.404 1.8v1.8" class="B C F T"/><symbol id="L"><path d="M.032.002C.023.002.016.005.01.01S0 .02 0 .028V.74c.016.022.023.024.032.024S.05.763.055.758l.01-.504L.31.47c.02.006.025.005.03.002C.355.457.357.452.357.446L.203.3.376.046C.38.027.378.022.375.017.356.001.35 0 .345 0S.33.004.325.01L.157.258.065.177v-.15C.065.02.062.015.055.01S.04.002.032.002z"/></symbol><use xlink:href="#L" transform="matrix(10.087759 0 2.52194 -10.087759 38.32448 12.269598)"/><g class="B C F O"><path d="M47.917 51.52v28.1M40.7 51.52l7.206 28.102"/></g><g fill="#4d4d4d"><use xlink:href="#AP"/><path d="M56.636 199.248a1.07 1.07 0 0 1-1.081 1.081 1.07 1.07 0 0 1-1.081-1.081 1.07 1.07 0 0 1 1.081-1.081 1.07 1.07 0 0 1 1.081 1.081zm-7.206 0a1.07 1.07 0 0 1-1.081 1.081 1.07 1.07 0 0 1-1.081-1.081 1.07 1.07 0 0 1 1.081-1.081 1.07 1.07 0 0 1 1.081 1.081z"/></g></g><clipPath id="M"><path d="M17.293 167.89h52.6v11.53h-52.6z" class="G"/></clipPath><g clip-path="url(#M)"><symbol id="N"><path d="M.032 0C.023 0 .016.003.01.008S0 .02 0 .026V.45C.016.47.023.473.032.473S.048.47.054.466L.063.4C.07.413.08.426.093.438S.12.46.138.467.175.48.197.48h.035C.24.48.245.476.25.47S.258.458.258.45.255.434.25.428.24.42.232.42H.197C.175.42.154.413.133.4S.097.373.084.35A.15.15 0 0 1 .065.273V.026C.065.02.062.013.055.008S.04 0 .032 0z"/></symbol><symbol id="O"><path d="M.215 0C.173 0 .136.008.103.024S.046.062.027.1 0 .152 0 .2v.112c0 .033.01.064.026.092s.04.05.07.067.06.025.096.025S.255.478.283.462.335.425.352.398.378.34.378.304C.378.278.374.26.365.248S.345.23.332.228.306.224.29.224H.065V.187c0-.04.014-.072.043-.095S.173.057.217.057c.027 0 .047.003.062.01s.026.013.034.02.017.01.024.01C.356.088.36.084.36.08.365.06.36.05.347.04S.318.02.295.01A.26.26 0 0 0 .215 0m-.15.272h.2c.02 0 .033.002.04.006s.01.014.01.028C.315.327.3.348.3.367S.274.402.255.414.215.432.2.432.146.426.127.415.093.4.082.37.065.333.065.3V.272z"/></symbol><symbol id="P"><path d="M.194 0C.15 0 .114.008.085.025S.035.064.02.093 0 .154 0 .2v.107c0 .035.007.067.02.096s.035.05.064.068a.22.22 0 0 0 .11.025c.028 0 .052-.004.073-.01S.305.46.316.45.334.43.334.42C.328.402.325.398.32.394.3.39.293.392.285.398S.267.41.254.417.222.426.197.426C.154.426.12.414.098.39S.065.337.065.297V.2c0-.04.01-.073.033-.096S.154.06.198.06c.025 0 .045.003.06.01s.025.013.032.02.015.01.022.01C.33.1.334.086.336.08.34.057.334.048.322.037S.293.018.27.01.224 0 .194 0z"/></symbol><symbol id="Q"><path d="M.16 0C.108 0 .068.012.04.035S0 .096 0 .147v.527c.017.022.025.024.032.024S.048.696.055.69l.01-.218h.13C.215.46.217.453.217.446.207.422.202.42.195.42h-.13V.147c0-.033.007-.056.02-.07S.124.06.16.06h.028c.01 0 .016-.003.02-.01S.216.038.216.03.213.015.208.01.196 0 .187 0H.16z"/></symbol><symbol id="R"><path d="M.2 0C.156 0 .125.01.096.026a.22.22 0 0 0-.07.07C.01.125 0 .157 0 .2V.3C0 .332.01.363.026.39s.04.052.07.07A.18.18 0 0 0 .19.486C.224.486.255.477.284.46S.337.42.354.393.38.334.38.3V.2A.18.18 0 0 0 .354.097C.337.068.313.044.284.026S.224 0 .2 0m0 .06c.023 0 .044.006.063.018s.034.03.045.05.017.04.017.063V.3C.315.32.31.34.298.36S.272.395.253.407A.11.11 0 0 1 .19.426.11.11 0 0 1 .127.407C.108.395.093.38.082.36S.065.32.065.3V.2C.065.168.07.147.082.127S.108.09.127.078.167.06.2.06z"/></symbol><symbol id="S"><path d="M.157 0c-.03 0-.06.004-.082.012S.033.03.02.04 0 .062 0 .072C.005.1.008.094.01.097.03.102.038.098.047.1S.07.075.085.067.125.055.155.055c.038 0 .065.007.08.02s.023.03.023.05-.006.04-.018.05S.213.2.194.206.155.22.134.225a.46.46 0 0 0-.06.022C.055.256.04.27.028.285S.01.323.01.35c0 .02.005.042.016.063s.027.04.05.052.054.02.092.02A.29.29 0 0 0 .233.479.16.16 0 0 0 .283.46C.296.453.303.445.303.437.297.42.294.414.3.41.27.403.263.405.254.4S.234.42.22.424.19.43.17.43.127.427.112.418.087.4.08.387.07.364.07.353C.07.334.076.32.088.31A.15.15 0 0 1 .134.284l.06-.018a.26.26 0 0 0 .06-.023C.273.233.29.22.3.2S.318.16.318.13C.318.1.304.058.276.035S.208 0 .157 0z"/></symbol><symbol id="T"><path d="M0 0z"/></symbol><use xlink:href="#F" transform="matrix(8.64665 0 0 -8.64665 22.03734 175.81523)"/><use xlink:href="#N" transform="matrix(8.64665 0 0 -8.64665 26.395245 175.81523)"/><use xlink:href="#O" transform="matrix(8.64665 0 0 -8.64665 28.920062 175.87577)"/><use xlink:href="#H" transform="matrix(8.64665 0 0 -8.64665 32.88022 175.87577)"/><use xlink:href="#I" transform="matrix(8.64665 0 0 -8.64665 37.10843 175.81523)"/><use xlink:href="#P" transform="matrix(8.64665 0 0 -8.64665 38.708055 175.87577)"/><use xlink:href="#Q" transform="matrix(8.64665 0 0 -8.64665 42.391515 175.81523)"/><use xlink:href="#I" transform="matrix(8.64665 0 0 -8.64665 44.855806 175.81523)"/><use xlink:href="#R" transform="matrix(8.64665 0 0 -8.64665 46.438135 175.87577)"/><use xlink:href="#J" transform="matrix(8.64665 0 0 -8.64665 50.649045 175.81523)"/><use xlink:href="#S" transform="matrix(8.64665 0 0 -8.64665 54.678384 175.87577)"/><use xlink:href="#T" transform="matrix(8.64665 0 0 -8.64665 57.730649 175.81523)"/><use xlink:href="#G" transform="matrix(8.64665 0 0 -8.64665 59.72802 175.87577)"/><use xlink:href="#Q" transform="matrix(8.64665 0 0 -8.64665 63.766004 175.81523)"/></g><clipPath id="U"><path d="M67.444 170.41h7.206v6.485h-7.206z" class="G"/></clipPath><g clip-path="url(#U)"><path d="M70.03 172.138h1.4l.123-.533h-1.4l.276-1.168h-.705l-.276 1.168H68.6l-.123.533h.838l-.593 2.538c-.02.092-.06.248-.06.414 0 .515.266.7.634.7.736 0 1.328-.258 1.553-.36l-.04-.515c-.01 0-.02 0-.082.037-.378.23-.705.267-.9.267-.215 0-.378-.092-.378-.423 0-.064 0-.13.03-.258l.562-2.4zm4.386 3.176c.095-.043.13-.055.13-.1 0-.037-.04-.08-.095-.08-.014 0-.198.03-.3.05l-1.042.184-.15-1.128c-.014-.098-.034-.16-.1-.16-.082 0-.1.05-.102.16l-.15 1.128-1.254-.22-.095-.012c-.055 0-.095.043-.095.08 0 .06.055.086.123.1l1.165.478-.538.865-.136.245c0 .037.027.086.095.086.014 0 .034 0 .075-.03l.238-.233.674-.656.75.724a1.53 1.53 0 0 0 .136.13c.068.06.075.067.102.067.068 0 .095-.05.095-.086 0-.043-.593-.98-.674-1.104l1.158-.484z"/></g><clipPath id="V"><path d="M275.252 13.69h32.425v21.617h-32.425z" class="G"/></clipPath><g clip-path="url(#V)"><symbol id="W"><path d="M.03 0C.023 0 .016.002.01.006S0 .017 0 .026v.68C0 .714.003.72.01.724S.023.73.03.73h.356C.395.73.4.728.405.72.41.693.41.686.404.68S.394.67.386.67h-.32V.395h.157C.23.395.237.392.24.386S.248.373.248.365C.238.34.232.338.223.338H.066V.06h.32C.394.06.4.058.404.052S.41.04.41.03.41.016.405.01.395 0 .386 0H.03z"/></symbol><use xlink:href="#W" transform="matrix(8.64665 0 0 -8.64665 278.5096 21.616627)"/><use xlink:href="#J" transform="matrix(8.64665 0 0 -8.64665 282.78108 21.616627)"/><use xlink:href="#P" transform="matrix(8.64665 0 0 -8.64665 286.91413 21.677153)"/><use xlink:href="#R" transform="matrix(8.64665 0 0 -8.64665 290.40739 21.677153)"/><use xlink:href="#H" transform="matrix(8.64665 0 0 -8.64665 294.4713 21.677153)"/><use xlink:href="#O" transform="matrix(8.64665 0 0 -8.64665 298.65629 21.677153)"/><use xlink:href="#N" transform="matrix(8.64665 0 0 -8.64665 302.76344 21.616627)"/><symbol id="X"><path d="M.207 0C.168 0 .133.007.102.02S.046.058.027.09A.25.25 0 0 0 0 .214v.3c0 .05.01.093.027.124S.07.702.1.716s.067.02.106.02S.282.73.313.716.37.68.388.648A.24.24 0 0 0 .416.524v-.3C.416.162.407.12.388.09S.344.035.313.02.246 0 .207 0m0 .06c.045 0 .08.012.105.037S.35.16.35.214v.3c0 .052-.013.1-.038.115S.252.676.207.676.128.664.103.64.066.576.066.524v-.3c0-.053.012-.09.037-.116S.162.06.207.06z"/></symbol><symbol id="Y"><path d="M.19 0C.156 0 .124.01.095.026s-.052.04-.07.07A.18.18 0 0 0 0 .188v.267C.017.477.024.48.033.48S.05.477.055.472l.01-.284A.12.12 0 0 1 .082.126C.093.107.108.09.127.078S.167.06.2.06.235.066.254.078.287.106.298.125s.017.04.017.063v.268C.332.478.34.48.348.48S.366.478.37.473L.38.188C.38.154.37.123.354.094S.314.043.285.026.225 0 .19 0z"/></symbol><symbol id="Z"><path d="M.032 0C.023 0 .016.003.01.008S0 .02 0 .026V.68c.016.022.023.024.032.024S.048.703.054.698l.01-.063c.01.02.028.037.05.052a.14.14 0 0 0 .083.024C.23.71.26.702.287.685s.05-.04.065-.067A.18.18 0 0 0 .377.524v-.11C.377.382.37.35.352.322A.2.2 0 0 0 .288.251C.26.234.232.225.2.225S.142.233.118.248.076.28.065.302V.026C.065.02.062.013.055.008S.04 0 .032 0m.156.285C.2.285.23.29.25.303s.034.03.045.05.018.04.018.063v.11c0 .02-.006.042-.017.06S.268.62.25.632a.11.11 0 0 1-.063.019C.166.65.147.646.128.635S.095.61.083.592.065.55.065.524v-.14C.065.374.07.36.08.345S.106.316.125.303.165.285.188.285z"/></symbol><use xlink:href="#X" transform="matrix(8.64665 0 0 -8.64665 280.7571 31.756266)"/><use xlink:href="#Y" transform="matrix(8.64665 0 0 -8.64665 285.409 31.764912)"/><use xlink:href="#Q" transform="matrix(8.64665 0 0 -8.64665 289.71504 31.704386)"/><use xlink:href="#Z" transform="matrix(8.64665 0 0 -8.64665 292.29173 33.710409)"/><use xlink:href="#Y" transform="matrix(8.64665 0 0 -8.64665 296.43345 31.764912)"/><use xlink:href="#Q" transform="matrix(8.64665 0 0 -8.64665 300.73948 31.704386)"/></g><clipPath id="a"><use xlink:href="#x" class="G"/></clipPath><g clip-path="url(#a)"><path d="M94.465 51.52h1.8c1.2 0 1.8-2.402 1.8-7.206V40.71c0-2.402.6-3.603 1.8-3.603h.9c.6 0 .3 0-.9 0h-.9c-.6 0-.9-2.402-.9-7.206V26.3c0-2.402-.6-3.603-1.8-3.603h-1.8" class="B C F T"/><use xlink:href="#AQ" class="N"/><use xlink:href="#AQ" class="B C S"/><use xlink:href="#AR" class="J"/><use xlink:href="#AR" class="B C S"/><path d="M80.342 23.778v26.66a1.07 1.07 0 0 1-.317.764 1.07 1.07 0 0 1-.764.317h-5.044a1.07 1.07 0 0 1-.764-.317 1.07 1.07 0 0 1-.317-.764v-26.66a1.07 1.07 0 0 1 .317-.764 1.07 1.07 0 0 1 .764-.317h5.044a1.07 1.07 0 0 1 .764.317 1.07 1.07 0 0 1 .317.764z" class="N"/><path d="M80.342 23.778v26.66a1.07 1.07 0 0 1-.317.764 1.07 1.07 0 0 1-.764.317h-5.044a1.07 1.07 0 0 1-.764-.317 1.07 1.07 0 0 1-.317-.764v-26.66a1.07 1.07 0 0 1 .317-.764 1.07 1.07 0 0 1 .764-.317h5.044a1.07 1.07 0 0 1 .764.317 1.07 1.07 0 0 1 .317.764z" class="B C P"/><path d="M65.93 23.778v26.66a1.07 1.07 0 0 1-.317.764 1.07 1.07 0 0 1-.764.317h-5.044a1.07 1.07 0 0 1-.764-.317 1.07 1.07 0 0 1-.317-.764v-26.66a1.07 1.07 0 0 1 .317-.764 1.07 1.07 0 0 1 .764-.317h5.044a1.07 1.07 0 0 1 .764.317 1.07 1.07 0 0 1 .317.764z" class="N"/><path d="M65.93 23.778v26.66a1.07 1.07 0 0 1-.317.764 1.07 1.07 0 0 1-.764.317h-5.044a1.07 1.07 0 0 1-.764-.317 1.07 1.07 0 0 1-.317-.764v-26.66a1.07 1.07 0 0 1 .317-.764 1.07 1.07 0 0 1 .764-.317h5.044a1.07 1.07 0 0 1 .764.317 1.07 1.07 0 0 1 .317.764z" class="B C P"/><path d="M73.136 23.778v26.66a1.07 1.07 0 0 1-.317.764 1.07 1.07 0 0 1-.764.317h-5.044a1.07 1.07 0 0 1-.764-.317 1.07 1.07 0 0 1-.317-.764v-26.66a1.07 1.07 0 0 1 .317-.764 1.07 1.07 0 0 1 .764-.317h5.044a1.07 1.07 0 0 1 .764.317 1.07 1.07 0 0 1 .317.764z" class="N"/><path d="M73.136 23.778v26.66a1.07 1.07 0 0 1-.317.764 1.07 1.07 0 0 1-.764.317h-5.044a1.07 1.07 0 0 1-.764-.317 1.07 1.07 0 0 1-.317-.764v-26.66a1.07 1.07 0 0 1 .317-.764 1.07 1.07 0 0 1 .764-.317h5.044a1.07 1.07 0 0 1 .764.317 1.07 1.07 0 0 1 .317.764z" class="B C P"/><use xlink:href="#AS" class="N"/><use xlink:href="#AS" class="B C P"/><use xlink:href="#AT" class="N"/><use xlink:href="#AT" class="B C P"/><path d="M51.52 23.778v26.66a1.07 1.07 0 0 1-.317.764 1.07 1.07 0 0 1-.764.317h-5.044a1.07 1.07 0 0 1-.764-.317 1.07 1.07 0 0 1-.317-.764v-26.66a1.07 1.07 0 0 1 .317-.764 1.07 1.07 0 0 1 .764-.317h5.044a1.07 1.07 0 0 1 .764.317 1.07 1.07 0 0 1 .317.764z" class="N"/><path d="M51.52 23.778v26.66a1.07 1.07 0 0 1-.317.764 1.07 1.07 0 0 1-.764.317h-5.044a1.07 1.07 0 0 1-.764-.317 1.07 1.07 0 0 1-.317-.764v-26.66a1.07 1.07 0 0 1 .317-.764 1.07 1.07 0 0 1 .764-.317h5.044a1.07 1.07 0 0 1 .764.317 1.07 1.07 0 0 1 .317.764z" class="B C P"/><path d="M37.11 23.778v26.66a1.07 1.07 0 0 1-.317.764 1.07 1.07 0 0 1-.764.317h-5.044a1.07 1.07 0 0 1-.764-.317 1.07 1.07 0 0 1-.317-.764v-26.66a1.07 1.07 0 0 1 .317-.764 1.07 1.07 0 0 1 .764-.317h5.044a1.07 1.07 0 0 1 .764.317 1.07 1.07 0 0 1 .317.764z" class="N"/><path d="M37.11 23.778v26.66a1.07 1.07 0 0 1-.317.764 1.07 1.07 0 0 1-.764.317h-5.044a1.07 1.07 0 0 1-.764-.317 1.07 1.07 0 0 1-.317-.764v-26.66a1.07 1.07 0 0 1 .317-.764 1.07 1.07 0 0 1 .764-.317h5.044a1.07 1.07 0 0 1 .764.317 1.07 1.07 0 0 1 .317.764z" class="B C P"/><path d="M22.697 23.778v26.66a1.07 1.07 0 0 1-.317.764 1.07 1.07 0 0 1-.764.317h-5.044a1.07 1.07 0 0 1-.764-.317 1.07 1.07 0 0 1-.317-.764v-26.66a1.07 1.07 0 0 1 .317-.764 1.07 1.07 0 0 1 .764-.317h5.044a1.07 1.07 0 0 1 .764.317 1.07 1.07 0 0 1 .317.764z" class="N"/><path d="M22.697 23.778v26.66a1.07 1.07 0 0 1-.317.764 1.07 1.07 0 0 1-.764.317h-5.044a1.07 1.07 0 0 1-.764-.317 1.07 1.07 0 0 1-.317-.764v-26.66a1.07 1.07 0 0 1 .317-.764 1.07 1.07 0 0 1 .764-.317h5.044a1.07 1.07 0 0 1 .764.317 1.07 1.07 0 0 1 .317.764z" class="B C P"/><path d="M29.903 23.778v26.66a1.07 1.07 0 0 1-.317.764 1.07 1.07 0 0 1-.764.317h-5.044a1.07 1.07 0 0 1-.764-.317 1.07 1.07 0 0 1-.317-.764v-26.66a1.07 1.07 0 0 1 .317-.764 1.07 1.07 0 0 1 .764-.317h5.044a1.07 1.07 0 0 1 .764.317 1.07 1.07 0 0 1 .317.764z" class="N"/><path d="M29.903 23.778v26.66a1.07 1.07 0 0 1-.317.764 1.07 1.07 0 0 1-.764.317h-5.044a1.07 1.07 0 0 1-.764-.317 1.07 1.07 0 0 1-.317-.764v-26.66a1.07 1.07 0 0 1 .317-.764 1.07 1.07 0 0 1 .764-.317h5.044a1.07 1.07 0 0 1 .764.317 1.07 1.07 0 0 1 .317.764z" class="B C P"/><use xlink:href="#AU" class="N"/><use xlink:href="#AU" class="B C S"/><path d="M94.753 23.778v26.66a1.07 1.07 0 0 1-.317.764 1.07 1.07 0 0 1-.764.317h-5.044a1.07 1.07 0 0 1-.764-.317 1.07 1.07 0 0 1-.317-.764v-26.66a1.07 1.07 0 0 1 .317-.764 1.07 1.07 0 0 1 .764-.317h5.044a1.07 1.07 0 0 1 .764.317 1.07 1.07 0 0 1 .317.764z" class="J"/><path d="M94.753 23.778v26.66a1.07 1.07 0 0 1-.317.764 1.07 1.07 0 0 1-.764.317h-5.044a1.07 1.07 0 0 1-.764-.317 1.07 1.07 0 0 1-.317-.764v-26.66a1.07 1.07 0 0 1 .317-.764 1.07 1.07 0 0 1 .764-.317h5.044a1.07 1.07 0 0 1 .764.317 1.07 1.07 0 0 1 .317.764z" class="B C S"/></g><clipPath id="b"><path d="M36.748 34.046h7.206v5.404h-7.206z" class="G"/></clipPath><g clip-path="url(#b)"><path d="M43.246 36.297c.154-.085.225-.122.225-.256 0-.146-.118-.22-.213-.22-.118 0-1.657.244-1.905.28l-.39.06-.367-2.16c-.036-.22-.06-.354-.237-.354s-.213.17-.237.342l-.367 2.172-2.118-.317c-.118-.024-.142-.024-.178-.024-.095 0-.213.073-.213.22 0 .134.047.16.296.305l1.846 1-.817 1.72-.225.513c.024.098.107.183.2.207.024-.012.095-.024.118-.037.07-.037.39-.366.51-.488.095-.1.426-.44.627-.647l.556-.537c.19.16.533.525.793.793l.746.744c.118.122.142.122.272.17.095-.024.178-.1.2-.207-.047-.146-.047-.17-.237-.55l-.805-1.684 1.917-1.05z"/></g><clipPath id="c"><use xlink:href="#x" class="G"/></clipPath><g clip-path="url(#c)"><path d="M47.917 144.47l-.022 21.35" class="B C F O"/><path d="M47.895 167.442l-1.08-2.162 1.08.54 1.08-.54-1.08 2.162z" fill="#666"/><path d="M47.895 167.442l-1.08-2.162 1.08.54 1.08-.54-1.08 2.162z" class="B C F O"/><use xlink:href="#AV" class="X"/><use xlink:href="#AV" class="B C O"/><symbol id="d"><path d="M.118 0C.11 0 .102.002.095.006s-.01.01-.01.02V.62L.045.554C.033.543.03.542.026.542S.012.545.007.55 0 .564 0 .57C.008.594.012.598.015.6l.082.116C.1.73.115.732.122.732S.136.73.142.725.15.715.15.707v-.68C.15.017.147.01.14.006S.126 0 .118 0z"/></symbol><symbol id="e"><path d="M.025 0C.002.013 0 .02 0 .028s.002.016.007.02.01.01.018.01h.26C.307.044.3.037.3.028S.307.013.302.008L.025 0z"/></symbol><symbol id="f"><path d="M.03 0C.02 0 .014.002.008.007L0 .707C.014.73.02.73.03.73h.177C.246.73.282.724.313.7S.37.673.388.642A.24.24 0 0 0 .416.518V.214C.416.162.407.12.388.09S.345.035.313.02.246 0 .207 0H.03m.036.06h.14c.045 0 .08.012.105.037S.35.16.35.214v.304c0 .052-.013.1-.038.115S.252.67.207.67h-.14V.06z"/></symbol><symbol id="g"><path d="M.207 0C.17 0 .135.007.103.02S.047.058.028.09 0 .162 0 .214v.3a.24.24 0 0 0 .028.124.17.17 0 0 0 .076.068.26.26 0 0 0 .105.021C.253.737.3.73.32.714a.17.17 0 0 0 .07-.061C.408.628.416.6.416.57.416.554.413.543.407.538S.394.53.383.53.362.532.357.537L.343.592C.34.606.333.62.323.632S.3.655.28.663.24.676.2.676C.163.676.128.664.103.64S.066.576.066.524v-.3c0-.053.012-.09.037-.116S.165.06.213.06c.03 0 .054.004.07.012s.03.02.04.03a.11.11 0 0 1 .019.04l.008.04C.35.193.354.2.36.203S.372.2.382.2.402.207.407.2.416.185.416.17C.416.14.408.11.39.085S.35.04.32.023.25 0 .207 0z"/></symbol><symbol id="h"><path d="M.195 0C.17.007.167.01.165.016l-.16.422C0 .458.002.463.006.468.028.482.034.483.04.483.058.477.06.473.063.468l.132-.36.132.356c.01.017.016.02.023.02C.373.476.378.473.383.468.4.45.4.448.39.445L.225.016C.208.002.202 0 .195 0z"/></symbol><g fill="#333"><use xlink:href="#d" transform="matrix(8.64665 0 0 -8.64665 33.424169 90.06928)"/><use xlink:href="#e" transform="matrix(8.64665 0 0 -8.64665 35.71553 88.23619)"/><use xlink:href="#f" transform="matrix(8.64665 0 0 -8.64665 39.44223 90.06928)"/><use xlink:href="#T" transform="matrix(8.64665 0 0 -8.64665 43.627199 90.06928)"/><use xlink:href="#g" transform="matrix(8.64665 0 0 -8.64665 45.95314 90.12116)"/><use xlink:href="#R" transform="matrix(8.64665 0 0 -8.64665 50.27646 90.12981)"/><use xlink:href="#J" transform="matrix(8.64665 0 0 -8.64665 54.48737 90.06928)"/><use xlink:href="#h" transform="matrix(8.64665 0 0 -8.64665 58.291894 90.13846)"/></g><use xlink:href="#AW" class="X"/><use xlink:href="#AW" class="B C O"/><g fill="#333"><use xlink:href="#d" transform="matrix(8.64665 0 0 -8.64665 33.424169 115.28868)"/><use xlink:href="#e" transform="matrix(8.64665 0 0 -8.64665 35.71553 113.45559)"/><use xlink:href="#f" transform="matrix(8.64665 0 0 -8.64665 39.44223 115.28868)"/><use xlink:href="#T" transform="matrix(8.64665 0 0 -8.64665 43.627199 115.28868)"/><use xlink:href="#g" transform="matrix(8.64665 0 0 -8.64665 45.95314 115.34056)"/><use xlink:href="#R" transform="matrix(8.64665 0 0 -8.64665 50.27646 115.349208)"/><use xlink:href="#J" transform="matrix(8.64665 0 0 -8.64665 54.48737 115.28868)"/><use xlink:href="#h" transform="matrix(8.64665 0 0 -8.64665 58.291894 115.35786)"/></g><use xlink:href="#AX" class="X"/><use xlink:href="#AX" class="B C O"/><g fill="#333"><use xlink:href="#d" transform="matrix(8.64665 0 0 -8.64665 33.424169 140.50807)"/><use xlink:href="#e" transform="matrix(8.64665 0 0 -8.64665 35.71553 138.67499)"/><use xlink:href="#f" transform="matrix(8.64665 0 0 -8.64665 39.44223 140.50807)"/><use xlink:href="#T" transform="matrix(8.64665 0 0 -8.64665 43.627199 140.50807)"/><use xlink:href="#g" transform="matrix(8.64665 0 0 -8.64665 45.95314 140.55995)"/><use xlink:href="#R" transform="matrix(8.64665 0 0 -8.64665 50.27646 140.5686)"/><use xlink:href="#J" transform="matrix(8.64665 0 0 -8.64665 54.48737 140.50807)"/><use xlink:href="#h" transform="matrix(8.64665 0 0 -8.64665 58.291894 140.57724)"/></g><g class="B C F O"><path d="M47.917 94.032v10.808m0 14.412v10.808"/></g><use xlink:href="#L" transform="matrix(10.087759 0 2.52194 -10.087759 19.950346 90.810009)"/><use xlink:href="#d" transform="matrix(10.087759 0 2.52194 -10.087759 20.575695 116.00923)"/><use xlink:href="#d" transform="matrix(10.087759 0 2.52194 -10.087759 20.575695 141.22863)"/><use xlink:href="#H" transform="matrix(8.64665 0 2.161663 -8.64665 103.480777 40.411565)"/><use xlink:href="#AY" class="H"/><use xlink:href="#AY" class="B C D"/><use xlink:href="#AZ" class="H"/><use xlink:href="#AZ" class="B C D"/><use xlink:href="#Aa" class="H"/><use xlink:href="#Aa" class="B C D"/><use xlink:href="#Ab" class="H"/><use xlink:href="#Ab" class="B C D"/><path d="M231.903 56.203h21.184a4.53 4.53 0 0 1 1.737.346 4.53 4.53 0 0 1 1.473.984 4.53 4.53 0 0 1 .984 1.473 4.53 4.53 0 0 1 .346 1.737v21.184a4.53 4.53 0 0 1-.346 1.737 4.53 4.53 0 0 1-.984 1.473 4.53 4.53 0 0 1-1.473.984 4.53 4.53 0 0 1-1.737.346h-21.184a4.53 4.53 0 0 1-1.737-.346 4.53 4.53 0 0 1-1.473-.984 4.53 4.53 0 0 1-.984-1.473 4.53 4.53 0 0 1-.346-1.737V60.743a4.53 4.53 0 0 1 .346-1.737 4.53 4.53 0 0 1 .984-1.473 4.53 4.53 0 0 1 1.473-.984 4.53 4.53 0 0 1 1.737-.346z" class="J Y"/><use xlink:href="#Ac" class="H"/><use xlink:href="#Ac" class="B C D"/><path d="M228.625 76.74h13.33a.52.52 0 0 1 .54.54V79.8a.52.52 0 0 1-.54.54h-13.33a.52.52 0 0 1-.54-.54V77.28a.52.52 0 0 1 .54-.54z" class="H"/><path d="M228.625 76.74h13.33a.52.52 0 0 1 .54.54V79.8a.52.52 0 0 1-.54.54h-13.33a.52.52 0 0 1-.54-.54V77.28a.52.52 0 0 1 .54-.54z" class="B C D"/><path d="M228.625 83.945h13.33a.52.52 0 0 1 .54.54v2.522a.52.52 0 0 1-.54.54h-13.33a.52.52 0 0 1-.54-.54v-2.522a.52.52 0 0 1 .54-.54z" class="H"/><path d="M228.625 83.945h13.33a.52.52 0 0 1 .54.54v2.522a.52.52 0 0 1-.54.54h-13.33a.52.52 0 0 1-.54-.54v-2.522a.52.52 0 0 1 .54-.54z" class="B C D"/><path d="M228.625 69.533h13.33a.52.52 0 0 1 .54.54v2.522a.52.52 0 0 1-.54.54h-13.33a.52.52 0 0 1-.54-.54v-2.522a.52.52 0 0 1 .54-.54z" class="H"/><path d="M228.625 69.533h13.33a.52.52 0 0 1 .54.54v2.522a.52.52 0 0 1-.54.54h-13.33a.52.52 0 0 1-.54-.54v-2.522a.52.52 0 0 1 .54-.54z" class="B C D"/><use xlink:href="#Ad" class="J Z"/><use xlink:href="#Ae" class="H"/><use xlink:href="#Ae" class="B C D"/><path d="M221.42 83.945h13.33a.52.52 0 0 1 .54.54v2.522a.52.52 0 0 1-.54.54h-13.33a.52.52 0 0 1-.54-.54v-2.522a.52.52 0 0 1 .54-.54z" class="H"/><path d="M221.42 83.945h13.33a.52.52 0 0 1 .54.54v2.522a.52.52 0 0 1-.54.54h-13.33a.52.52 0 0 1-.54-.54v-2.522a.52.52 0 0 1 .54-.54z" class="B C D"/><use xlink:href="#Af" class="H"/><use xlink:href="#Af" class="B C D"/><path d="M221.42 76.74h13.33a.52.52 0 0 1 .54.54V79.8a.52.52 0 0 1-.54.54h-13.33a.52.52 0 0 1-.54-.54V77.28a.52.52 0 0 1 .54-.54z" class="H"/><path d="M221.42 76.74h13.33a.52.52 0 0 1 .54.54V79.8a.52.52 0 0 1-.54.54h-13.33a.52.52 0 0 1-.54-.54V77.28a.52.52 0 0 1 .54-.54z" class="B C D"/><path d="M217.744 70.975h20.68a4.42 4.42 0 0 1 1.696.337 4.42 4.42 0 0 1 1.438.961c.206.206.39.43.55.672a4.42 4.42 0 0 1 .662 1.597 4.42 4.42 0 0 1 .085.865v20.68a4.42 4.42 0 0 1-.337 1.696 4.42 4.42 0 0 1-.961 1.438 4.42 4.42 0 0 1-1.438.961 4.42 4.42 0 0 1-1.696.337h-20.68a4.42 4.42 0 0 1-1.696-.337 4.42 4.42 0 0 1-1.438-.961 4.42 4.42 0 0 1-.961-1.438 4.42 4.42 0 0 1-.337-1.696v-20.68a4.42 4.42 0 0 1 .337-1.696 4.42 4.42 0 0 1 .961-1.438 4.42 4.42 0 0 1 1.438-.961 4.42 4.42 0 0 1 1.696-.337z" fill-opacity=".4" class="J"/><use xlink:href="#Ag" class="H"/><use xlink:href="#Ag" class="B C D"/><path d="M214.214 91.15h13.33a.52.52 0 0 1 .54.54v2.522a.52.52 0 0 1-.54.54h-13.33a.52.52 0 0 1-.54-.54V91.69a.52.52 0 0 1 .54-.54z" class="H"/><path d="M214.214 91.15h13.33a.52.52 0 0 1 .54.54v2.522a.52.52 0 0 1-.54.54h-13.33a.52.52 0 0 1-.54-.54V91.69a.52.52 0 0 1 .54-.54z" class="B C D"/><path d="M214.214 98.356h13.33a.52.52 0 0 1 .54.54v2.522a.52.52 0 0 1-.54.54h-13.33a.52.52 0 0 1-.54-.54v-2.522a.52.52 0 0 1 .54-.54z" class="H"/><path d="M214.214 98.356h13.33a.52.52 0 0 1 .54.54v2.522a.52.52 0 0 1-.54.54h-13.33a.52.52 0 0 1-.54-.54v-2.522a.52.52 0 0 1 .54-.54z" class="B C D"/><path d="M214.214 83.945h13.33a.52.52 0 0 1 .54.54v2.522a.52.52 0 0 1-.54.54h-13.33a.52.52 0 0 1-.54-.54v-2.522a.52.52 0 0 1 .54-.54z" class="H"/><path d="M214.214 83.945h13.33a.52.52 0 0 1 .54.54v2.522a.52.52 0 0 1-.54.54h-13.33a.52.52 0 0 1-.54-.54v-2.522a.52.52 0 0 1 .54-.54z" class="B C D"/><symbol id="i"><path d="M.033.001C.024.001.017.003.01.007S0 .018 0 .027v.68c0 .01.003.015.01.018s.014.006.023.006S.048.73.055.726s.01-.01.01-.018V.354l.29.368c.005.007.012.01.02.01C.398.724.403.72.406.714.412.696.412.693.41.7L.192.416.438.046C.442.027.44.02.436.016.417.001.41 0 .404 0 .386.006.382.01.38.014L.148.36.066.257v-.23c0-.01-.004-.015-.01-.02S.04.001.033.001z"/></symbol><use xlink:href="#i" transform="matrix(8.64665 0 2.161663 -8.64665 253.33309 105.930118)"/><use xlink:href="#G" transform="matrix(7.205543 0 1.801386 -7.205543 257.4036 108.133579)"/><path d="M236.844 106.423l1.02 1.02c.68.68 2.717-.68 6.114-4.076l2.75-2.75c1.838-1.838 3.096-2.417 3.775-1.737l.5.5c.34.34.17.17-.5-.5l-.5-.5c-.34-.34 1.19-2.208 4.586-5.605l2.75-2.75c1.834-1.834 2.412-3.09 1.732-3.77l-1.02-1.02" class="B C F T"/><use xlink:href="#Ah" class="I"/><use xlink:href="#Ah" class="B C E"/><path d="M152.938 69.533h13.33a.52.52 0 0 1 .54.54v2.522a.52.52 0 0 1-.54.54h-13.33a.52.52 0 0 1-.54-.54v-2.522a.52.52 0 0 1 .54-.54z" class="I"/><path d="M152.938 69.533h13.33a.52.52 0 0 1 .54.54v2.522a.52.52 0 0 1-.54.54h-13.33a.52.52 0 0 1-.54-.54v-2.522a.52.52 0 0 1 .54-.54z" class="B C E"/><path d="M152.938 76.74h13.33a.52.52 0 0 1 .54.54V79.8a.52.52 0 0 1-.54.54h-13.33a.52.52 0 0 1-.54-.54V77.28a.52.52 0 0 1 .54-.54z" class="I"/><path d="M152.938 76.74h13.33a.52.52 0 0 1 .54.54V79.8a.52.52 0 0 1-.54.54h-13.33a.52.52 0 0 1-.54-.54V77.28a.52.52 0 0 1 .54-.54z" class="B C E"/><path d="M152.938 62.328h13.33a.52.52 0 0 1 .54.54V65.4a.52.52 0 0 1-.54.54h-13.33a.52.52 0 0 1-.54-.54v-2.522a.52.52 0 0 1 .54-.54z" class="I"/><path d="M152.938 62.328h13.33a.52.52 0 0 1 .54.54V65.4a.52.52 0 0 1-.54.54h-13.33a.52.52 0 0 1-.54-.54v-2.522a.52.52 0 0 1 .54-.54z" class="B C E"/><path d="M149.01 56.203h21.184a4.53 4.53 0 0 1 1.737.346 4.53 4.53 0 0 1 1.473.984 4.53 4.53 0 0 1 .984 1.473 4.53 4.53 0 0 1 .346 1.737v21.184a4.53 4.53 0 0 1-.346 1.737 4.53 4.53 0 0 1-.984 1.473 4.53 4.53 0 0 1-1.473.984 4.53 4.53 0 0 1-1.737.346H149.01a4.53 4.53 0 0 1-1.737-.346 4.53 4.53 0 0 1-1.473-.984 4.53 4.53 0 0 1-.984-1.473c-.114-.275-.2-.56-.258-.852s-.087-.588-.087-.886V60.743a4.53 4.53 0 0 1 .087-.886c.058-.292.144-.576.258-.852a4.53 4.53 0 0 1 .984-1.473 4.53 4.53 0 0 1 1.473-.984 4.53 4.53 0 0 1 1.737-.346z" class="J Y"/><use xlink:href="#Ai" class="I"/><use xlink:href="#Ai" class="B C E"/><path d="M145.732 76.74h13.33a.52.52 0 0 1 .54.54V79.8a.52.52 0 0 1-.54.54h-13.33a.52.52 0 0 1-.54-.54V77.28a.52.52 0 0 1 .54-.54z" class="I"/><path d="M145.732 76.74h13.33a.52.52 0 0 1 .54.54V79.8a.52.52 0 0 1-.54.54h-13.33a.52.52 0 0 1-.54-.54V77.28a.52.52 0 0 1 .54-.54z" class="B C E"/><path d="M145.732 83.945h13.33a.52.52 0 0 1 .54.54v2.522a.52.52 0 0 1-.54.54h-13.33a.52.52 0 0 1-.54-.54v-2.522a.52.52 0 0 1 .54-.54z" class="I"/><path d="M145.732 83.945h13.33a.52.52 0 0 1 .54.54v2.522a.52.52 0 0 1-.54.54h-13.33a.52.52 0 0 1-.54-.54v-2.522a.52.52 0 0 1 .54-.54z" class="B C E"/><path d="M145.732 69.533h13.33a.52.52 0 0 1 .54.54v2.522a.52.52 0 0 1-.54.54h-13.33a.52.52 0 0 1-.54-.54v-2.522a.52.52 0 0 1 .54-.54z" class="I"/><path d="M145.732 69.533h13.33a.52.52 0 0 1 .54.54v2.522a.52.52 0 0 1-.54.54h-13.33a.52.52 0 0 1-.54-.54v-2.522a.52.52 0 0 1 .54-.54z" class="B C E"/><path d="M142.057 63.77h20.68a4.42 4.42 0 0 1 1.696.337 4.42 4.42 0 0 1 1.438.961 4.42 4.42 0 0 1 .961 1.438 4.42 4.42 0 0 1 .337 1.696v20.68a4.42 4.42 0 0 1-.337 1.696 4.42 4.42 0 0 1-.961 1.438 4.42 4.42 0 0 1-1.438.961 4.42 4.42 0 0 1-1.696.337h-20.68a4.42 4.42 0 0 1-1.696-.337 4.42 4.42 0 0 1-1.438-.961 4.42 4.42 0 0 1-.961-1.438 4.42 4.42 0 0 1-.337-1.696V68.2a4.42 4.42 0 0 1 .337-1.696 4.42 4.42 0 0 1 .961-1.438 4.42 4.42 0 0 1 1.438-.961 4.42 4.42 0 0 1 1.696-.337z" class="J Z"/><use xlink:href="#Aj" class="I"/><use xlink:href="#Aj" class="B C E"/><path d="M138.527 83.945h13.33a.52.52 0 0 1 .54.54v2.522a.52.52 0 0 1-.54.54h-13.33a.52.52 0 0 1-.54-.54v-2.522a.52.52 0 0 1 .54-.54z" class="I"/><path d="M138.527 83.945h13.33a.52.52 0 0 1 .54.54v2.522a.52.52 0 0 1-.54.54h-13.33a.52.52 0 0 1-.54-.54v-2.522a.52.52 0 0 1 .54-.54z" class="B C E"/><path d="M138.527 91.15h13.33a.52.52 0 0 1 .54.54v2.522a.52.52 0 0 1-.54.54h-13.33a.52.52 0 0 1-.54-.54V91.69a.52.52 0 0 1 .54-.54z" class="I"/><path d="M138.527 91.15h13.33a.52.52 0 0 1 .54.54v2.522a.52.52 0 0 1-.54.54h-13.33a.52.52 0 0 1-.54-.54V91.69a.52.52 0 0 1 .54-.54z" class="B C E"/><path d="M138.527 76.74h13.33a.52.52 0 0 1 .54.54V79.8a.52.52 0 0 1-.54.54h-13.33a.52.52 0 0 1-.54-.54V77.28a.52.52 0 0 1 .54-.54z" class="I"/><path d="M138.527 76.74h13.33a.52.52 0 0 1 .54.54V79.8a.52.52 0 0 1-.54.54h-13.33a.52.52 0 0 1-.54-.54V77.28a.52.52 0 0 1 .54-.54z" class="B C E"/><path d="M134.852 70.975h20.68a4.42 4.42 0 0 1 1.696.337 4.42 4.42 0 0 1 1.438.961 4.42 4.42 0 0 1 .961 1.438 4.42 4.42 0 0 1 .337 1.696v20.68a4.42 4.42 0 0 1-.337 1.696 4.42 4.42 0 0 1-.961 1.438 4.42 4.42 0 0 1-1.438.961 4.42 4.42 0 0 1-1.696.337h-20.68a4.42 4.42 0 0 1-1.696-.337 4.42 4.42 0 0 1-1.438-.961 4.42 4.42 0 0 1-.961-1.438 4.42 4.42 0 0 1-.337-1.696v-20.68a4.42 4.42 0 0 1 .337-1.696 4.42 4.42 0 0 1 .961-1.438 4.42 4.42 0 0 1 1.438-.961 4.42 4.42 0 0 1 1.696-.337z" fill-opacity=".4" class="J"/><use xlink:href="#Ak" class="I"/><use xlink:href="#Ak" class="B C E"/><path d="M131.32 91.15h13.33a.52.52 0 0 1 .54.54v2.522a.52.52 0 0 1-.54.54h-13.33a.52.52 0 0 1-.54-.54V91.69a.52.52 0 0 1 .54-.54z" class="I"/><path d="M131.32 91.15h13.33a.52.52 0 0 1 .54.54v2.522a.52.52 0 0 1-.54.54h-13.33a.52.52 0 0 1-.54-.54V91.69a.52.52 0 0 1 .54-.54z" class="B C E"/><path d="M131.32 98.356h13.33a.52.52 0 0 1 .54.54v2.522a.52.52 0 0 1-.54.54h-13.33a.52.52 0 0 1-.54-.54v-2.522a.52.52 0 0 1 .54-.54z" class="I"/><path d="M131.32 98.356h13.33a.52.52 0 0 1 .54.54v2.522a.52.52 0 0 1-.54.54h-13.33a.52.52 0 0 1-.54-.54v-2.522a.52.52 0 0 1 .54-.54z" class="B C E"/><path d="M131.32 83.945h13.33a.52.52 0 0 1 .54.54v2.522a.52.52 0 0 1-.54.54h-13.33a.52.52 0 0 1-.54-.54v-2.522a.52.52 0 0 1 .54-.54z" class="I"/><g class="B C"><path d="M131.32 83.945h13.33a.52.52 0 0 1 .54.54v2.522a.52.52 0 0 1-.54.54h-13.33a.52.52 0 0 1-.54-.54v-2.522a.52.52 0 0 1 .54-.54z" class="E"/><path d="M153.625 106.743l1.02 1.02c.68.68 2.717-.68 6.114-4.076l2.75-2.75c1.834-1.834 3.09-2.412 3.77-1.732l.5.5c.34.34.17.17-.5-.5l-.5-.5c-.34-.34 1.19-2.208 4.586-5.605l2.756-2.756c1.834-1.834 2.412-3.09 1.732-3.77l-1.02-1.02" class="F T"/></g><use xlink:href="#i" transform="matrix(8.64665 0 2.161663 -8.64665 169.81635 106.65067)"/><use xlink:href="#h" transform="matrix(7.205543 0 1.801386 -7.205543 173.76976 108.861339)"/><use xlink:href="#Al" class="Q"/><use xlink:href="#Al" class="B C M"/><use xlink:href="#Am" class="Q"/><use xlink:href="#Am" class="B C M"/><path d="M228.596 16.933h2.522a.52.52 0 0 1 .54.54v13.33a.52.52 0 0 1-.54.54h-2.522a.52.52 0 0 1-.54-.54v-13.33a.52.52 0 0 1 .54-.54z" class="Q"/><path d="M228.596 16.933h2.522a.52.52 0 0 1 .54.54v13.33a.52.52 0 0 1-.54.54h-2.522a.52.52 0 0 1-.54-.54v-13.33a.52.52 0 0 1 .54-.54z" class="B C M"/><use xlink:href="#An" class="Q"/><use xlink:href="#An" class="B C M"/><use xlink:href="#Ao" class="Q"/><use xlink:href="#Ao" class="B C M"/><path d="M239.404 16.933h2.522a.52.52 0 0 1 .54.54v13.33a.52.52 0 0 1-.54.54h-2.522a.52.52 0 0 1-.54-.54v-13.33a.52.52 0 0 1 .54-.54z" class="Q"/><path d="M239.404 16.933h2.522a.52.52 0 0 1 .54.54v13.33a.52.52 0 0 1-.54.54h-2.522a.52.52 0 0 1-.54-.54v-13.33a.52.52 0 0 1 .54-.54z" class="B C M"/><path d="M243.007 16.933h2.522a.52.52 0 0 1 .54.54v13.33a.52.52 0 0 1-.54.54h-2.522a.52.52 0 0 1-.54-.54v-13.33a.52.52 0 0 1 .54-.54z" class="Q"/><path d="M243.007 16.933h2.522a.52.52 0 0 1 .54.54v13.33a.52.52 0 0 1-.54.54h-2.522a.52.52 0 0 1-.54-.54v-13.33a.52.52 0 0 1 .54-.54z" class="B C M"/><use xlink:href="#Ap" class="Q"/><use xlink:href="#Ap" class="B C M"/><use xlink:href="#Aq" class="U"/><use xlink:href="#Aq" class="B C R"/><path d="M146.244 16.933h5.044a1.07 1.07 0 0 1 .764.317 1.07 1.07 0 0 1 .317.764v12.25a1.07 1.07 0 0 1-.317.764 1.07 1.07 0 0 1-.764.317h-5.044a1.07 1.07 0 0 1-.764-.317 1.07 1.07 0 0 1-.317-.764v-12.25a1.07 1.07 0 0 1 .317-.764 1.07 1.07 0 0 1 .764-.317z" class="U"/><path d="M146.244 16.933h5.044a1.07 1.07 0 0 1 .764.317 1.07 1.07 0 0 1 .317.764v12.25a1.07 1.07 0 0 1-.317.764 1.07 1.07 0 0 1-.764.317h-5.044a1.07 1.07 0 0 1-.764-.317 1.07 1.07 0 0 1-.317-.764v-12.25a1.07 1.07 0 0 1 .317-.764 1.07 1.07 0 0 1 .764-.317z" class="B C R"/><path d="M153.45 16.933h5.044a1.07 1.07 0 0 1 .764.317 1.07 1.07 0 0 1 .317.764v12.25a1.07 1.07 0 0 1-.317.764 1.07 1.07 0 0 1-.764.317h-5.044a1.07 1.07 0 0 1-.764-.317 1.07 1.07 0 0 1-.317-.764v-12.25a1.07 1.07 0 0 1 .317-.764 1.07 1.07 0 0 1 .764-.317z" class="U"/><path d="M153.45 16.933h5.044a1.07 1.07 0 0 1 .764.317 1.07 1.07 0 0 1 .317.764v12.25a1.07 1.07 0 0 1-.317.764 1.07 1.07 0 0 1-.764.317h-5.044a1.07 1.07 0 0 1-.764-.317 1.07 1.07 0 0 1-.317-.764v-12.25a1.07 1.07 0 0 1 .317-.764 1.07 1.07 0 0 1 .764-.317z" class="B C R"/><path d="M160.655 16.933h5.044a1.07 1.07 0 0 1 .764.317 1.07 1.07 0 0 1 .317.764v12.25a1.07 1.07 0 0 1-.317.764 1.07 1.07 0 0 1-.764.317h-5.044a1.07 1.07 0 0 1-.764-.317 1.07 1.07 0 0 1-.317-.764v-12.25a1.07 1.07 0 0 1 .317-.764 1.07 1.07 0 0 1 .764-.317z" class="U"/><g class="B C"><path d="M160.655 16.933h5.044a1.07 1.07 0 0 1 .764.317 1.07 1.07 0 0 1 .317.764v12.25a1.07 1.07 0 0 1-.317.764 1.07 1.07 0 0 1-.764.317h-5.044a1.07 1.07 0 0 1-.764-.317 1.07 1.07 0 0 1-.317-.764v-12.25a1.07 1.07 0 0 1 .317-.764 1.07 1.07 0 0 1 .764-.317z" class="R"/><path d="M152.397 114.208v8.38" class="E F"/></g><path d="M152.397 124.21l-1.08-2.162 1.08.54 1.08-.54-1.08 2.162z" class="K"/><g class="B C F"><path d="M152.397 124.21l-1.08-2.162 1.08.54 1.08-.54-1.08 2.162z" class="E"/><path d="M235.26 114.208l-.05 8.524" class="D"/></g><use xlink:href="#Ar" class="L"/><g class="B C F"><use xlink:href="#Ar" class="D"/><path d="M168.25 139.788h-42.513" class="E"/></g><use xlink:href="#As" class="K"/><use xlink:href="#As" class="B C E"/><path d="M125.737 139.788a2.14 2.14 0 0 1-.633 1.529 2.14 2.14 0 0 1-1.529.633 2.14 2.14 0 0 1-1.529-.633 2.14 2.14 0 0 1-.633-1.529 2.14 2.14 0 0 1 .633-1.529 2.14 2.14 0 0 1 1.529-.633 2.14 2.14 0 0 1 1.529.633 2.14 2.14 0 0 1 .633 1.529z" class="K"/><g class="B C E"><path d="M125.737 139.788a2.14 2.14 0 0 1-.633 1.529 2.14 2.14 0 0 1-1.529.633 2.14 2.14 0 0 1-1.529-.633 2.14 2.14 0 0 1-.633-1.529 2.14 2.14 0 0 1 .633-1.529 2.14 2.14 0 0 1 1.529-.633 2.14 2.14 0 0 1 1.529.633 2.14 2.14 0 0 1 .633 1.529z"/><path d="M164.647 146.993h-38.9" class="F"/></g><path d="M168.97 146.993a2.14 2.14 0 0 1-.633 1.529 2.14 2.14 0 0 1-1.529.633 2.14 2.14 0 0 1-1.529-.633 2.14 2.14 0 0 1-.633-1.529 2.14 2.14 0 0 1 .633-1.529 2.14 2.14 0 0 1 1.529-.633 2.14 2.14 0 0 1 1.529.633 2.14 2.14 0 0 1 .633 1.529z" class="K"/><path d="M168.97 146.993a2.14 2.14 0 0 1-.633 1.529 2.14 2.14 0 0 1-1.529.633 2.14 2.14 0 0 1-1.529-.633 2.14 2.14 0 0 1-.633-1.529 2.14 2.14 0 0 1 .633-1.529 2.14 2.14 0 0 1 1.529-.633 2.14 2.14 0 0 1 1.529.633 2.14 2.14 0 0 1 .633 1.529z" class="B C E"/><path d="M125.737 146.993a2.14 2.14 0 0 1-.633 1.529 2.14 2.14 0 0 1-1.529.633 2.14 2.14 0 0 1-1.529-.633 2.14 2.14 0 0 1-.633-1.529 2.14 2.14 0 0 1 .633-1.529 2.14 2.14 0 0 1 1.529-.633 2.14 2.14 0 0 1 1.529.633 2.14 2.14 0 0 1 .633 1.529z" class="K"/><g class="B C E"><path d="M125.737 146.993a2.14 2.14 0 0 1-.633 1.529 2.14 2.14 0 0 1-1.529.633 2.14 2.14 0 0 1-1.529-.633 2.14 2.14 0 0 1-.633-1.529 2.14 2.14 0 0 1 .633-1.529 2.14 2.14 0 0 1 1.529-.633 2.14 2.14 0 0 1 1.529.633 2.14 2.14 0 0 1 .633 1.529z"/><path d="M182.66 132.582h-56.924" class="F"/></g><path d="M186.984 132.582a2.14 2.14 0 0 1-.633 1.529 2.14 2.14 0 0 1-1.529.633 2.14 2.14 0 0 1-1.529-.633 2.14 2.14 0 0 1-.633-1.529 2.14 2.14 0 0 1 .633-1.529 2.14 2.14 0 0 1 1.529-.633 2.14 2.14 0 0 1 1.529.633 2.14 2.14 0 0 1 .633 1.529z" class="K"/><path d="M186.984 132.582a2.14 2.14 0 0 1-.633 1.529 2.14 2.14 0 0 1-1.529.633 2.14 2.14 0 0 1-1.529-.633 2.14 2.14 0 0 1-.633-1.529 2.14 2.14 0 0 1 .633-1.529 2.14 2.14 0 0 1 1.529-.633 2.14 2.14 0 0 1 1.529.633 2.14 2.14 0 0 1 .633 1.529z" class="B C E"/><path d="M125.737 132.582a2.14 2.14 0 0 1-.633 1.529 2.14 2.14 0 0 1-1.529.633 2.14 2.14 0 0 1-1.529-.633 2.14 2.14 0 0 1-.633-1.529 2.14 2.14 0 0 1 .633-1.529 2.14 2.14 0 0 1 1.529-.633 2.14 2.14 0 0 1 1.529.633 2.14 2.14 0 0 1 .633 1.529z" class="K"/><g class="B C E"><path d="M125.737 132.582a2.14 2.14 0 0 1-.633 1.529 2.14 2.14 0 0 1-1.529.633 2.14 2.14 0 0 1-1.529-.633 2.14 2.14 0 0 1-.633-1.529 2.14 2.14 0 0 1 .633-1.529 2.14 2.14 0 0 1 1.529-.633 2.14 2.14 0 0 1 1.529.633 2.14 2.14 0 0 1 .633 1.529z"/><path d="M135.824 154.2h-10.088" class="F"/></g><path d="M140.148 154.2a2.14 2.14 0 0 1-.633 1.529 2.14 2.14 0 0 1-1.529.633 2.14 2.14 0 0 1-1.529-.633 2.14 2.14 0 0 1-.633-1.529 2.14 2.14 0 0 1 .633-1.529 2.14 2.14 0 0 1 1.529-.633 2.14 2.14 0 0 1 1.529.633 2.14 2.14 0 0 1 .633 1.529z" class="K"/><path d="M140.148 154.2a2.14 2.14 0 0 1-.633 1.529 2.14 2.14 0 0 1-1.529.633 2.14 2.14 0 0 1-1.529-.633 2.14 2.14 0 0 1-.633-1.529 2.14 2.14 0 0 1 .633-1.529 2.14 2.14 0 0 1 1.529-.633 2.14 2.14 0 0 1 1.529.633 2.14 2.14 0 0 1 .633 1.529z" class="B C E"/><path d="M125.737 154.2a2.14 2.14 0 0 1-.633 1.529 2.14 2.14 0 0 1-1.529.633 2.14 2.14 0 0 1-1.529-.633 2.14 2.14 0 0 1-.633-1.529 2.14 2.14 0 0 1 .633-1.529 2.14 2.14 0 0 1 1.529-.633 2.14 2.14 0 0 1 1.529.633 2.14 2.14 0 0 1 .633 1.529z" class="K"/><g class="B C"><path d="M125.737 154.2a2.14 2.14 0 0 1-.633 1.529 2.14 2.14 0 0 1-1.529.633 2.14 2.14 0 0 1-1.529-.633 2.14 2.14 0 0 1-.633-1.529 2.14 2.14 0 0 1 .633-1.529 2.14 2.14 0 0 1 1.529-.633 2.14 2.14 0 0 1 1.529.633 2.14 2.14 0 0 1 .633 1.529z" class="E"/><path d="M261.92 132.582H219.41" class="D F"/></g><path d="M266.245 132.582a2.14 2.14 0 0 1-.633 1.529 2.14 2.14 0 0 1-1.529.633 2.14 2.14 0 0 1-1.529-.633 2.14 2.14 0 0 1-.633-1.529 2.14 2.14 0 0 1 .633-1.529 2.14 2.14 0 0 1 1.529-.633 2.14 2.14 0 0 1 1.529.633 2.14 2.14 0 0 1 .633 1.529z" class="L"/><path d="M266.245 132.582a2.14 2.14 0 0 1-.633 1.529 2.14 2.14 0 0 1-1.529.633 2.14 2.14 0 0 1-1.529-.633 2.14 2.14 0 0 1-.633-1.529 2.14 2.14 0 0 1 .633-1.529 2.14 2.14 0 0 1 1.529-.633 2.14 2.14 0 0 1 1.529.633 2.14 2.14 0 0 1 .633 1.529z" class="B C D"/><path d="M219.41 132.582a2.14 2.14 0 0 1-.633 1.529 2.14 2.14 0 0 1-1.529.633 2.14 2.14 0 0 1-1.529-.633 2.14 2.14 0 0 1-.633-1.529 2.14 2.14 0 0 1 .633-1.529 2.14 2.14 0 0 1 1.529-.633 2.14 2.14 0 0 1 1.529.633 2.14 2.14 0 0 1 .633 1.529z" class="L"/><g class="B C D"><path d="M219.41 132.582a2.14 2.14 0 0 1-.633 1.529 2.14 2.14 0 0 1-1.529.633 2.14 2.14 0 0 1-1.529-.633 2.14 2.14 0 0 1-.633-1.529 2.14 2.14 0 0 1 .633-1.529 2.14 2.14 0 0 1 1.529-.633 2.14 2.14 0 0 1 1.529.633 2.14 2.14 0 0 1 .633 1.529z"/><path d="M261.92 139.788h-35.307" class="F"/></g><path d="M266.245 139.788a2.14 2.14 0 0 1-.633 1.529 2.14 2.14 0 0 1-1.529.633 2.14 2.14 0 0 1-1.529-.633 2.14 2.14 0 0 1-.633-1.529 2.14 2.14 0 0 1 .633-1.529 2.14 2.14 0 0 1 1.529-.633 2.14 2.14 0 0 1 1.529.633 2.14 2.14 0 0 1 .633 1.529z" class="L"/><path d="M266.245 139.788a2.14 2.14 0 0 1-.633 1.529 2.14 2.14 0 0 1-1.529.633 2.14 2.14 0 0 1-1.529-.633 2.14 2.14 0 0 1-.633-1.529 2.14 2.14 0 0 1 .633-1.529 2.14 2.14 0 0 1 1.529-.633 2.14 2.14 0 0 1 1.529.633 2.14 2.14 0 0 1 .633 1.529z" class="B C D"/><path d="M226.614 139.788a2.14 2.14 0 0 1-.633 1.529 2.14 2.14 0 0 1-1.529.633 2.14 2.14 0 0 1-1.529-.633 2.14 2.14 0 0 1-.633-1.529 2.14 2.14 0 0 1 .633-1.529 2.14 2.14 0 0 1 1.529-.633 2.14 2.14 0 0 1 1.529.633 2.14 2.14 0 0 1 .633 1.529z" class="L"/><g class="B C D"><path d="M226.614 139.788a2.14 2.14 0 0 1-.633 1.529 2.14 2.14 0 0 1-1.529.633 2.14 2.14 0 0 1-1.529-.633 2.14 2.14 0 0 1-.633-1.529 2.14 2.14 0 0 1 .633-1.529 2.14 2.14 0 0 1 1.529-.633 2.14 2.14 0 0 1 1.529.633 2.14 2.14 0 0 1 .633 1.529z"/><path d="M261.92 146.993h-17.293" class="F"/></g><path d="M266.245 146.993a2.14 2.14 0 0 1-.633 1.529 2.14 2.14 0 0 1-1.529.633 2.14 2.14 0 0 1-1.529-.633 2.14 2.14 0 0 1-.633-1.529 2.14 2.14 0 0 1 .633-1.529 2.14 2.14 0 0 1 1.529-.633 2.14 2.14 0 0 1 1.529.633 2.14 2.14 0 0 1 .633 1.529z" class="L"/><path d="M266.245 146.993a2.14 2.14 0 0 1-.633 1.529 2.14 2.14 0 0 1-1.529.633 2.14 2.14 0 0 1-1.529-.633 2.14 2.14 0 0 1-.633-1.529 2.14 2.14 0 0 1 .633-1.529 2.14 2.14 0 0 1 1.529-.633 2.14 2.14 0 0 1 1.529.633 2.14 2.14 0 0 1 .633 1.529z" class="B C D"/><path d="M244.628 146.993a2.14 2.14 0 0 1-.633 1.529 2.14 2.14 0 0 1-1.529.633 2.14 2.14 0 0 1-1.529-.633 2.14 2.14 0 0 1-.633-1.529 2.14 2.14 0 0 1 .633-1.529 2.14 2.14 0 0 1 1.529-.633 2.14 2.14 0 0 1 1.529.633 2.14 2.14 0 0 1 .633 1.529z" class="L"/><g class="B C D"><path d="M244.628 146.993a2.14 2.14 0 0 1-.633 1.529 2.14 2.14 0 0 1-1.529.633 2.14 2.14 0 0 1-1.529-.633 2.14 2.14 0 0 1-.633-1.529 2.14 2.14 0 0 1 .633-1.529 2.14 2.14 0 0 1 1.529-.633 2.14 2.14 0 0 1 1.529.633 2.14 2.14 0 0 1 .633 1.529z"/><path d="M261.893 153.838H259" class="F"/></g><use xlink:href="#At" class="L"/><use xlink:href="#At" class="B C D"/><path d="M259 153.838a2.14 2.14 0 0 1-.633 1.529 2.14 2.14 0 0 1-1.528.633 2.14 2.14 0 0 1-1.529-.633 2.14 2.14 0 0 1-.633-1.529 2.14 2.14 0 0 1 .633-1.529 2.14 2.14 0 0 1 1.529-.633 2.14 2.14 0 0 1 1.528.633 2.14 2.14 0 0 1 .633 1.529z" class="L"/><path d="M259 153.838a2.14 2.14 0 0 1-.633 1.529 2.14 2.14 0 0 1-1.528.633 2.14 2.14 0 0 1-1.529-.633 2.14 2.14 0 0 1-.633-1.529 2.14 2.14 0 0 1 .633-1.529 2.14 2.14 0 0 1 1.529-.633 2.14 2.14 0 0 1 1.528.633 2.14 2.14 0 0 1 .633 1.529z" class="B C D"/><use xlink:href="#Au" class="J"/><g class="B C"><use xlink:href="#Au" class="S"/><path d="M197.735 179.058h-42.513" class="E F"/></g><path d="M202.058 179.058a2.14 2.14 0 0 1-.633 1.529 2.14 2.14 0 0 1-1.529.633 2.14 2.14 0 0 1-1.529-.633 2.14 2.14 0 0 1-.633-1.529 2.14 2.14 0 0 1 .633-1.529 2.14 2.14 0 0 1 1.529-.633 2.14 2.14 0 0 1 1.529.633 2.14 2.14 0 0 1 .633 1.529z" class="K"/><path d="M202.058 179.058a2.14 2.14 0 0 1-.633 1.529 2.14 2.14 0 0 1-1.529.633 2.14 2.14 0 0 1-1.529-.633 2.14 2.14 0 0 1-.633-1.529 2.14 2.14 0 0 1 .633-1.529 2.14 2.14 0 0 1 1.529-.633 2.14 2.14 0 0 1 1.529.633 2.14 2.14 0 0 1 .633 1.529z" class="B C E"/><path d="M155.222 179.058a2.14 2.14 0 0 1-.633 1.529 2.14 2.14 0 0 1-1.529.633 2.14 2.14 0 0 1-1.529-.633 2.14 2.14 0 0 1-.633-1.529 2.14 2.14 0 0 1 .633-1.529 2.14 2.14 0 0 1 1.529-.633 2.14 2.14 0 0 1 1.529.633 2.14 2.14 0 0 1 .633 1.529z" class="K"/><g class="B C E"><path d="M155.222 179.058a2.14 2.14 0 0 1-.633 1.529 2.14 2.14 0 0 1-1.529.633 2.14 2.14 0 0 1-1.529-.633 2.14 2.14 0 0 1-.633-1.529 2.14 2.14 0 0 1 .633-1.529 2.14 2.14 0 0 1 1.529-.633 2.14 2.14 0 0 1 1.529.633 2.14 2.14 0 0 1 .633 1.529z"/><path d="M194.132 193.47h-38.9" class="F"/></g><path d="M198.455 193.47a2.14 2.14 0 0 1-.633 1.529 2.14 2.14 0 0 1-1.529.633 2.14 2.14 0 0 1-1.529-.633 2.14 2.14 0 0 1-.633-1.529 2.14 2.14 0 0 1 .633-1.529 2.14 2.14 0 0 1 1.529-.633 2.14 2.14 0 0 1 1.529.633 2.14 2.14 0 0 1 .633 1.529z" class="K"/><path d="M198.455 193.47a2.14 2.14 0 0 1-.633 1.529 2.14 2.14 0 0 1-1.529.633 2.14 2.14 0 0 1-1.529-.633 2.14 2.14 0 0 1-.633-1.529 2.14 2.14 0 0 1 .633-1.529 2.14 2.14 0 0 1 1.529-.633 2.14 2.14 0 0 1 1.529.633 2.14 2.14 0 0 1 .633 1.529z" class="B C E"/><path d="M155.222 193.47a2.14 2.14 0 0 1-.633 1.529 2.14 2.14 0 0 1-1.529.633 2.14 2.14 0 0 1-1.529-.633 2.14 2.14 0 0 1-.633-1.529 2.14 2.14 0 0 1 .633-1.529 2.14 2.14 0 0 1 1.529-.633 2.14 2.14 0 0 1 1.529.633 2.14 2.14 0 0 1 .633 1.529z" class="K"/><g class="B C"><path d="M155.222 193.47a2.14 2.14 0 0 1-.633 1.529 2.14 2.14 0 0 1-1.529.633 2.14 2.14 0 0 1-1.529-.633 2.14 2.14 0 0 1-.633-1.529 2.14 2.14 0 0 1 .633-1.529 2.14 2.14 0 0 1 1.529-.633 2.14 2.14 0 0 1 1.529.633 2.14 2.14 0 0 1 .633 1.529z" class="E"/><path d="M172.515 200.674h-17.293" class="D F"/></g><path d="M176.838 200.674a2.14 2.14 0 0 1-.633 1.529 2.14 2.14 0 0 1-1.529.633 2.14 2.14 0 0 1-1.529-.633 2.14 2.14 0 0 1-.633-1.529 2.14 2.14 0 0 1 .633-1.529 2.14 2.14 0 0 1 1.529-.633 2.14 2.14 0 0 1 1.529.633 2.14 2.14 0 0 1 .633 1.529z" class="L"/><path d="M176.838 200.674a2.14 2.14 0 0 1-.633 1.529 2.14 2.14 0 0 1-1.529.633 2.14 2.14 0 0 1-1.529-.633 2.14 2.14 0 0 1-.633-1.529 2.14 2.14 0 0 1 .633-1.529 2.14 2.14 0 0 1 1.529-.633 2.14 2.14 0 0 1 1.529.633 2.14 2.14 0 0 1 .633 1.529z" class="B C D"/><path d="M155.222 200.674a2.14 2.14 0 0 1-.633 1.529 2.14 2.14 0 0 1-1.529.633 2.14 2.14 0 0 1-1.529-.633 2.14 2.14 0 0 1-.633-1.529 2.14 2.14 0 0 1 .633-1.529 2.14 2.14 0 0 1 1.529-.633 2.14 2.14 0 0 1 1.529.633 2.14 2.14 0 0 1 .633 1.529z" class="L"/><g class="B C D"><path d="M155.222 200.674a2.14 2.14 0 0 1-.633 1.529 2.14 2.14 0 0 1-1.529.633 2.14 2.14 0 0 1-1.529-.633 2.14 2.14 0 0 1-.633-1.529 2.14 2.14 0 0 1 .633-1.529 2.14 2.14 0 0 1 1.529-.633 2.14 2.14 0 0 1 1.529.633 2.14 2.14 0 0 1 .633 1.529z"/><path d="M158.104 186.263h-2.882" class="F"/></g><path d="M162.427 186.263a2.14 2.14 0 0 1-.633 1.529 2.14 2.14 0 0 1-1.529.633 2.14 2.14 0 0 1-1.529-.633 2.14 2.14 0 0 1-.633-1.529 2.14 2.14 0 0 1 .633-1.529 2.14 2.14 0 0 1 1.529-.633 2.14 2.14 0 0 1 1.529.633 2.14 2.14 0 0 1 .633 1.529z" class="L"/><path d="M162.427 186.263a2.14 2.14 0 0 1-.633 1.529 2.14 2.14 0 0 1-1.529.633 2.14 2.14 0 0 1-1.529-.633 2.14 2.14 0 0 1-.633-1.529 2.14 2.14 0 0 1 .633-1.529 2.14 2.14 0 0 1 1.529-.633 2.14 2.14 0 0 1 1.529.633 2.14 2.14 0 0 1 .633 1.529z" class="B C D"/><path d="M155.222 186.263a2.14 2.14 0 0 1-.633 1.529 2.14 2.14 0 0 1-1.529.633 2.14 2.14 0 0 1-1.529-.633 2.14 2.14 0 0 1-.633-1.529 2.14 2.14 0 0 1 .633-1.529 2.14 2.14 0 0 1 1.529-.633 2.14 2.14 0 0 1 1.529.633 2.14 2.14 0 0 1 .633 1.529z" class="L"/><path d="M155.222 186.263a2.14 2.14 0 0 1-.633 1.529 2.14 2.14 0 0 1-1.529.633 2.14 2.14 0 0 1-1.529-.633 2.14 2.14 0 0 1-.633-1.529 2.14 2.14 0 0 1 .633-1.529 2.14 2.14 0 0 1 1.529-.633 2.14 2.14 0 0 1 1.529.633 2.14 2.14 0 0 1 .633 1.529z" class="B C D"/><path d="M222.594 184.822h3.718V196.9h2.385l-4.244 5.217-4.244-5.217h2.385v-12.076z" fill="#b8b8b8"/><symbol id="j"><path d="M.03 0C.022 0 .015.002.01.007S0 .018 0 .025v.547c0 .03.008.062.024.09s.04.053.07.072.07.028.114.028C.234.763.258.76.28.754S.324.74.34.732.362.712.362.7C.356.68.353.675.35.67.33.665.323.668.314.675S.292.688.276.694.238.704.21.704.16.7.142.692A.12.12 0 0 1 .097.66C.086.647.077.632.072.617S.065.588.065.574v-.1h.128C.214.46.216.454.216.447S.214.433.21.427L.065.42V.025C.065.018.062.012.055.007S.04 0 .03 0m.317 0C.34 0 .33.003.325.008s-.01.01-.01.018V.45C.33.47.34.473.348.473S.365.47.37.466l.01-.44C.38.02.378.013.37.008S.357 0 .348 0z"/></symbol><use xlink:href="#g" transform="matrix(7.205543 0 0 -7.205543 208.0393 181.6229)"/><use xlink:href="#R" transform="matrix(7.205543 0 0 -7.205543 211.64209 181.63011)"/><use xlink:href="#J" transform="matrix(7.205543 0 0 -7.205543 215.1512 181.57967)"/><use xlink:href="#j" transform="matrix(7.205543 0 0 -7.205543 218.71794 181.57967)"/><use xlink:href="#H" transform="matrix(7.205543 0 0 -7.205543 222.22702 181.63011)"/><use xlink:href="#O" transform="matrix(7.205543 0 0 -7.205543 225.71451 181.63011)"/><use xlink:href="#J" transform="matrix(7.205543 0 0 -7.205543 229.13713 181.57967)"/><use xlink:href="#P" transform="matrix(7.205543 0 0 -7.205543 232.58138 181.63011)"/><use xlink:href="#O" transform="matrix(7.205543 0 0 -7.205543 235.49962 181.63011)"/></g><clipPath id="k"><path d="M276.693 131.86h33.866V154.2h-33.866z" class="G"/></clipPath><g clip-path="url(#k)"><symbol id="l"><path d="M.032 0C.023 0 .016.003.01.008S0 .02 0 .026V.45C.016.47.023.473.032.473S.048.47.054.466l.01-.063c.01.02.028.037.05.052a.14.14 0 0 0 .083.024.14.14 0 0 0 .087-.028C.308.432.326.408.338.38c.017.034.04.06.067.075S.46.48.5.48.546.472.57.457.618.42.634.393s.024-.06.024-.1V.026C.658.02.655.013.648.008S.634 0 .625 0 .61.003.602.008.593.02.593.026v.266c0 .028-.006.05-.017.07S.55.395.533.404.498.42.48.42.44.414.423.404.39.38.38.36.362.32.362.296v-.27C.362.016.358.01.35.006S.337 0 .33 0 .314.002.307.006s-.01.01-.01.02v.27C.297.32.292.34.28.36S.257.392.24.403.204.42.183.42.145.414.127.404.094.38.082.36.065.32.065.292V.026C.065.02.062.013.055.008S.04 0 .032 0z"/></symbol><use xlink:href="#g" transform="matrix(8.64665 0 0 -8.64665 279.0233 139.8394)"/><use xlink:href="#R" transform="matrix(8.64665 0 0 -8.64665 283.34663 139.84806)"/><use xlink:href="#l" transform="matrix(8.64665 0 0 -8.64665 287.55754 139.78752)"/><use xlink:href="#l" transform="matrix(8.64665 0 0 -8.64665 294.29325 139.78752)"/><use xlink:href="#R" transform="matrix(8.64665 0 0 -8.64665 300.87336 139.84806)"/><use xlink:href="#J" transform="matrix(8.64665 0 0 -8.64665 305.08427 139.78752)"/><symbol id="m"><path d="M.032 0C.023 0 .016.003.01.008S0 .02 0 .026V.74C.016.76.023.763.032.763S.05.76.055.756l.01-.73C.065.02.062.013.055.008S.04 0 .032 0z"/></symbol><use xlink:href="#F" transform="matrix(8.64665 0 0 -8.64665 287.1675 149.87528)"/><use xlink:href="#R" transform="matrix(8.64665 0 0 -8.64665 291.2228 149.9358)"/><use xlink:href="#R" transform="matrix(8.64665 0 0 -8.64665 295.27809 149.9358)"/><use xlink:href="#m" transform="matrix(8.64665 0 0 -8.64665 299.5668 149.87528)"/></g><clipPath id="n"><path d="M282.457 177.977h23.778v20.176h-23.778z" class="G"/></clipPath><g clip-path="url(#n)"><symbol id="o"><path d="M.205 0c-.043 0-.08.006-.1.02S.04.047.024.064 0 .096 0 .108C.007.13.01.136.016.14.037.145.043.14.05.132l.028-.03C.1.092.106.083.125.074S.17.062.2.062.26.067.28.077s.04.026.05.046S.35.17.35.2.344.258.332.277.304.313.284.325A.32.32 0 0 1 .22.357L.15.384C.126.393.104.405.084.418S.05.45.036.472.018.523.018.558a.18.18 0 0 0 .02.09C.05.67.068.7.09.703s.044.023.07.028.05.01.072.01S.268.738.287.735A.32.32 0 0 0 .342.723.14.14 0 0 0 .382.704C.393.697.398.688.398.68.392.658.39.653.385.648.363.642.355.645.344.65A.2.2 0 0 1 .3.67C.282.677.258.68.23.68.205.68.182.676.16.67S.12.65.105.634.084.594.084.564.1.516.102.5.13.47.15.46.192.44.215.432.262.415.285.404.33.38.35.365.386.33.398.304A.23.23 0 0 0 .416.206C.416.16.407.12.39.09S.346.037.314.022.246 0 .205 0z"/></symbol><symbol id="p"><path d="M.23 0C.18 0 .14.01.106.03s-.06.046-.08.078S0 .175 0 .213s.007.064.02.1S.05.35.07.37.114.402.136.412C.116.436.097.462.08.49a.19.19 0 0 0-.025.099c0 .037.008.068.025.093s.04.044.066.057.057.02.1.02S.303.752.327.74.37.714.38.7.4.67.4.662.396.647.4.64A.03.03 0 0 0 .368.632C.36.632.355.635.35.642L.327.667C.32.677.308.685.294.692S.262.703.24.703C.203.703.175.692.154.67S.123.62.123.584C.123.56.127.54.136.52S.157.48.17.463L.216.41.42.19C.433.22.442.254.446.287L.453.37C.454.38.456.387.46.39s.012.007.023.007S.5.395.505.39.51.375.51.363A.54.54 0 0 0 .507.307C.504.283.5.257.493.228A.34.34 0 0 0 .461.144l.092-.1C.56.024.556.017.55.01S.536.003.53.003C.516.006.513.01.5.012L.43.1a.25.25 0 0 0-.08-.071C.316.01.277 0 .23 0m.008.06C.275.06.306.068.33.083S.374.118.39.14L.174.37A.3.3 0 0 1 .126.338C.1.325.096.31.084.3S.067.248.067.22.074.165.087.14.12.097.145.082.202.06.238.06z"/></symbol><use xlink:href="#o" transform="matrix(8.64665 0 0 -8.64665 283.42155 185.96352)"/><use xlink:href="#R" transform="matrix(8.64665 0 0 -8.64665 287.76216 185.96352)"/><use xlink:href="#N" transform="matrix(8.64665 0 0 -8.64665 291.97306 185.90299)"/><use xlink:href="#Q" transform="matrix(8.64665 0 0 -8.64665 294.80915 185.90299)"/><use xlink:href="#T" transform="matrix(8.64665 0 0 -8.64665 296.84114 185.90299)"/><use xlink:href="#p" transform="matrix(8.64665 0 0 -8.64665 298.87309 185.98946)"/><use xlink:href="#T" transform="matrix(8.64665 0 0 -8.64665 303.84489 185.90299)"/><use xlink:href="#o" transform="matrix(8.64665 0 0 -8.64665 284.6037 196.05129)"/><use xlink:href="#O" transform="matrix(8.64665 0 0 -8.64665 288.95295 196.05129)"/><use xlink:href="#m" transform="matrix(8.64665 0 0 -8.64665 293.1379 195.99076)"/><use xlink:href="#O" transform="matrix(8.64665 0 0 -8.64665 294.71159 196.05129)"/><use xlink:href="#P" transform="matrix(8.64665 0 0 -8.64665 298.68037 196.05129)"/><use xlink:href="#Q" transform="matrix(8.64665 0 0 -8.64665 302.36384 195.99076)"/></g><clipPath id="q"><use xlink:href="#x" class="G"/></clipPath><g clip-path="url(#q)"><path d="M195.544 161.044v8.38" class="B C F W"/><path d="M195.544 171.045l-1.08-2.162 1.08.54 1.08-.54-1.08 2.162z" fill="#6c8ebf"/><path d="M195.544 171.045l-1.08-2.162 1.08.54 1.08-.54-1.08 2.162z" class="B C F W"/><g fill="#666"><path d="M196 207.88v2.162h-.72v-2.162m.72 4.323v2.162h-.72v-2.162m.36 5.677l-1.08-2.162 1.08.54 1.08-.54-1.08 2.162z"/></g><path d="M195.63 217.88l-1.08-2.162 1.08.54 1.08-.54-1.08 2.162z" class="B C F O"/></g><clipPath id="r"><path d="M276.693 69.894h30.984v25.22h-30.984z" class="G"/></clipPath><g clip-path="url(#r)"><use xlink:href="#F" transform="matrix(8.64665 0 0 -8.64665 278.65599 77.819858)"/><use xlink:href="#N" transform="matrix(8.64665 0 0 -8.64665 283.0139 77.819858)"/><use xlink:href="#R" transform="matrix(8.64665 0 0 -8.64665 285.5301 77.88038)"/><use xlink:href="#Z" transform="matrix(8.64665 0 0 -8.64665 289.74964 79.825878)"/><use xlink:href="#R" transform="matrix(8.64665 0 0 -8.64665 293.77033 77.88038)"/><use xlink:href="#S" transform="matrix(8.64665 0 0 -8.64665 297.7391 77.88038)"/><use xlink:href="#G" transform="matrix(8.64665 0 0 -8.64665 301.05943 77.88038)"/><use xlink:href="#m" transform="matrix(8.64665 0 0 -8.64665 305.1925 77.819858)"/><symbol id="s"><path d="M.033 0C.024 0 .017.002.01.006S0 .017 0 .026v.68C0 .715.003.72.01.725S.024.73.033.73.048.73.055.725s.01-.01.01-.018v-.3h.29v.3c0 .008.003.014.01.018S.38.73.388.73.403.73.4.725.42.715.42.707v-.68C.42.017.417.01.4.006S.396 0 .388 0 .372.002.365.006s-.01.01-.01.02V.35h-.29V.026c0-.01-.004-.015-.01-.02S.04 0 .033 0z"/></symbol><use xlink:href="#s" transform="matrix(8.64665 0 0 -8.64665 282.74287 87.907619)"/><use xlink:href="#O" transform="matrix(8.64665 0 0 -8.64665 287.39479 87.96814)"/><use xlink:href="#G" transform="matrix(8.64665 0 0 -8.64665 291.23387 87.96814)"/><use xlink:href="#H" transform="matrix(8.64665 0 0 -8.64665 295.14213 87.96814)"/><use xlink:href="#S" transform="matrix(8.64665 0 0 -8.64665 299.23197 87.96814)"/></g><clipPath id="t"><use xlink:href="#x" class="G"/></clipPath><g clip-path="url(#t)"><symbol id="u"><path d="M.226 0C.217 0 .2.002.203.006s-.01.01-.01.02V.67H.025C.017.67.01.672.006.678S0 .692 0 .7.002.715.006.72s.01.01.02.01h.4c.01 0 .015-.003.02-.01S.45.71.45.7.45.686.445.68.435.67.426.67H.26V.026C.26.017.255.01.248.006S.234 0 .226 0z"/></symbol><g class="V"><use xlink:href="#u" transform="matrix(8.64665 0 2.161663 -8.64665 138.89792 10.808313)"/><use xlink:href="#h" transform="matrix(8.64665 0 2.161663 -8.64665 143.01859 13.039149)"/><use xlink:href="#T" transform="matrix(8.64665 0 0 -8.64665 146.53147 10.808313)"/></g><symbol id="v"><path d="M.534.054L.48 0 .267.215.054 0 0 .054.215.267 0 .48.054.534.267.32.48.534.534.48.32.267.534.054z"/></symbol><g class="V"><use xlink:href="#v" transform="matrix(8.64665 0 0 -8.64665 149.48264 10.365004)"/><use xlink:href="#H" transform="matrix(8.64665 0 2.161663 -8.64665 155.69844 10.86884)"/><use xlink:href="#h" transform="matrix(8.64665 0 2.161663 -8.64665 159.61385 13.039149)"/></g><g fill="#bd7000"><use xlink:href="#u" transform="matrix(8.64665 0 2.161663 -8.64665 221.60404 10.808313)"/><use xlink:href="#G" transform="matrix(8.64665 0 2.161663 -8.64665 225.8652 13.030503)"/><use xlink:href="#T" transform="matrix(8.64665 0 0 -8.64665 229.3952 10.808313)"/><use xlink:href="#v" transform="matrix(8.64665 0 0 -8.64665 232.34638 10.365004)"/><use xlink:href="#H" transform="matrix(8.64665 0 2.161663 -8.64665 238.56217 10.86884)"/><use xlink:href="#G" transform="matrix(8.64665 0 2.161663 -8.64665 242.61809 13.030503)"/></g></g><defs ><path id="x" d="M0 0h312v221.93H0z"/><path id="y" d="M220.85 34.947h7.206c4.804 0 7.206 2.402 7.206 7.206v7.206"/><path id="z" d="M235.26 48.55l-1.08-2.162 1.08.54 1.08-.54-1.08 2.162z"/><path id="AA" d="M152.397 48.55l-1.088-2.154 1.08.533 1.08-.54-1.074 2.162z"/><path id="AB" d="M121.774 125.016h144.11a5.39 5.39 0 0 1 1.054.104c.348.07.686.172 1.014.308a5.39 5.39 0 0 1 1.753 1.171 5.39 5.39 0 0 1 .672.819c.197.295.364.606.5.934s.238.666.308 1.014a5.39 5.39 0 0 1 .104 1.054v25.22a5.39 5.39 0 0 1-.104 1.054c-.07.348-.172.686-.308 1.014a5.39 5.39 0 0 1-1.171 1.753c-.25.25-.524.475-.82.672a5.39 5.39 0 0 1-1.948.807 5.39 5.39 0 0 1-1.054.104h-144.11a5.39 5.39 0 0 1-1.054-.104c-.348-.07-.686-.172-1.014-.308a5.39 5.39 0 0 1-1.753-1.171 5.39 5.39 0 0 1-1.171-1.753 5.39 5.39 0 0 1-.411-2.068v-25.22a5.39 5.39 0 0 1 .411-2.068 5.39 5.39 0 0 1 1.171-1.753 5.39 5.39 0 0 1 1.753-1.171c.328-.136.666-.238 1.014-.308a5.39 5.39 0 0 1 1.054-.104z"/><path id="AC" d="M208.96 49.358h52.6c.64 0 1.27.062 1.898.187s1.235.31 1.825.554 1.15.544 1.682.9 1.022.758 1.474 1.2.855.943 1.2 1.474.655 1.092.9 1.682.43 1.198.554 1.825.187 1.26.187 1.898v45.395c0 .64-.062 1.27-.187 1.898s-.31 1.235-.554 1.825-.544 1.15-.9 1.682-.758 1.022-1.2 1.474-.943.855-1.474 1.2-1.092.655-1.682.9-1.198.43-1.825.554-1.26.187-1.898.187h-52.6c-.64 0-1.27-.062-1.898-.187s-1.235-.31-1.825-.554-1.15-.544-1.682-.9-1.022-.758-1.474-1.2-.855-.943-1.2-1.474-.655-1.092-.9-1.682-.43-1.198-.554-1.825a9.7 9.7 0 0 1-.187-1.898V59.085c0-.64.062-1.27.187-1.898s.31-1.235.554-1.825.544-1.15.9-1.682.758-1.022 1.2-1.474.943-.855 1.474-1.2 1.092-.654 1.682-.9 1.198-.43 1.825-.554 1.26-.187 1.898-.187z"/><path id="AD" d="M126.097 49.358h52.6c.64 0 1.27.062 1.898.187s1.235.31 1.825.554 1.15.544 1.682.9 1.022.758 1.474 1.2.855.943 1.2 1.474a9.7 9.7 0 0 1 .899 1.682c.244.6.43 1.198.554 1.825s.187 1.26.187 1.898v45.395c0 .64-.062 1.27-.187 1.898s-.31 1.235-.554 1.825a9.7 9.7 0 0 1-.899 1.682c-.355.53-.758 1.022-1.2 1.474s-.943.855-1.474 1.2-1.092.655-1.682.9-1.198.43-1.825.554-1.26.187-1.898.187h-52.6c-.64 0-1.27-.062-1.898-.187s-1.235-.31-1.825-.554-1.15-.544-1.682-.9-1.022-.758-1.474-1.2-.855-.943-1.2-1.474-.654-1.092-.9-1.682-.43-1.198-.554-1.825-.187-1.26-.187-1.898V59.085c0-.64.062-1.27.187-1.898s.31-1.235.554-1.825.544-1.15.9-1.682.758-1.022 1.2-1.474.943-.855 1.474-1.2 1.092-.654 1.682-.9 1.198-.43 1.825-.554 1.26-.187 1.898-.187z"/><path id="AE" d="M16.957 185.795c.127 0 .448 0 .448-.3 0-.207-.185-.207-.36-.207h-2.15c-1.46 0-2.51 1.57-2.51 2.68 0 .8.535 1.467 1.41 1.467 1.15 0 2.404-1.194 2.404-2.604 0-.367-.088-.724-.32-1.034h1.08zm-3.154 3.45c-.496 0-.857-.367-.857-1.015 0-.564.35-2.435 1.78-2.435.42 0 .886.197.886.92 0 .33-.156 1.12-.496 1.664-.35.555-.876.865-1.314.865z"/><path id="AF" d="M20.348 182.288c-1.46 1.26-1.83 3.17-1.83 4.7 0 1.655.42 3.498 1.83 4.71h.584c-.38-.338-.973-1.072-1.314-2.134-.263-.837-.36-1.71-.36-2.567 0-2.774 1.022-4.128 1.674-4.71h-.584z"/><path id="AG" d="M27.754 186.507h-.143c-.422.376-.954.4-1.343.414v.395c.253-.006.578-.02.902-.144v3.184h-.863v.395h2.3v-.395h-.863v-3.85z"/><path id="AH" d="M30.634 191.7c1.46-1.26 1.83-3.17 1.83-4.7 0-1.655-.42-3.498-1.83-4.71h-.584c.38.338.973 1.072 1.314 2.134.263.837.36 1.71.36 2.567 0 2.774-1.022 4.128-1.674 4.71h.584z"/><path id="AI" d="M34.93 189.33v-.752h-.788v.762h.243l-.243 1.175h.39l.4-1.185z"/><path id="AJ" d="M20.314 205.874c-1.463 1.223-1.834 3.075-1.834 4.563 0 1.606.42 3.395 1.834 4.572h.585c-.38-.33-.975-1.04-1.317-2.072-.263-.812-.36-1.66-.36-2.49 0-2.692 1.024-4.006 1.678-4.572h-.585z"/><path id="AK" d="M26.754 209.806c0-.097 0-.23-.15-.23s-.15.134-.15.23v5.622c0 .097 0 .23.15.23s.15-.134.15-.23v-5.622z"/><path id="AL" d="M30.526 209.916h-.61v3.15c-.858-.22-.897-1.09-.897-1.503 0-.9-.104-1.174-.527-1.174h-.546v.402c.455.018.462.602.462.9.007.937.494 1.66 1.51 1.795v.65h.61v-.65c1.54-.19 1.554-1.545 1.554-1.953 0-.183.04-.724.462-.742v-.402h-.546c-.3 0-.527.08-.527 1.07 0 .456-.007 1.387-.943 1.606v-3.15z"/><path id="AM" d="M36.38 215.01c1.463-1.223 1.834-3.075 1.834-4.563 0-1.606-.42-3.395-1.834-4.572h-.585c.38.33.975 1.04 1.317 2.072.263.812.36 1.66.36 2.49 0 2.692-1.024 4.006-1.678 4.572h.585z"/><path id="AN" d="M40.685 212.71v-.73h-.8v.74h.244l-.244 1.14h.4l.4-1.15z"/><path id="AO" d="M94.753 79.26v65.57c0 .923-.1 1.836-.27 2.74s-.447 1.783-.8 2.636a14.02 14.02 0 0 1-1.298 2.429c-.513.767-1.095 1.477-1.747 2.13s-1.362 1.235-2.13 1.747-1.577.945-2.43 1.298a14.02 14.02 0 0 1-2.636.8c-.905.18-1.82.27-2.74.27h-65.57c-.923 0-1.836-.1-2.74-.27a14.02 14.02 0 0 1-2.636-.8c-.852-.353-1.662-.786-2.43-1.298s-1.477-1.095-2.13-1.747-1.235-1.362-1.747-2.13-.945-1.577-1.298-2.43a14.02 14.02 0 0 1-.8-2.636c-.18-.905-.27-1.82-.27-2.74V79.26c0-.923.1-1.836.27-2.74a14.02 14.02 0 0 1 .8-2.636c.353-.852.786-1.662 1.298-2.43s1.095-1.477 1.747-2.13 1.362-1.235 2.13-1.747 1.577-.945 2.43-1.298 1.73-.62 2.636-.8 1.82-.27 2.74-.27h65.57c.923 0 1.836.1 2.74.27s1.783.447 2.636.8 1.662.786 2.43 1.298 1.477 1.095 2.13 1.747 1.235 1.362 1.747 2.13.945 1.577 1.298 2.43.62 1.73.8 2.636.27 1.82.27 2.74z"/><path id="AP" d="M42.224 199.248a1.07 1.07 0 0 1-.317.764 1.07 1.07 0 0 1-.764.317 1.07 1.07 0 0 1-.764-.317 1.07 1.07 0 0 1-.317-.764 1.07 1.07 0 0 1 .317-.764 1.07 1.07 0 0 1 .764-.317 1.07 1.07 0 0 1 .764.317 1.07 1.07 0 0 1 .317.764z"/><path id="AQ" d="M15.492 23.778v26.66a1.07 1.07 0 0 1-.317.764 1.07 1.07 0 0 1-.764.317H9.367a1.07 1.07 0 0 1-.764-.317 1.07 1.07 0 0 1-.317-.764v-26.66a1.07 1.07 0 0 1 .317-.764 1.07 1.07 0 0 1 .764-.317h5.044a1.07 1.07 0 0 1 .764.317 1.07 1.07 0 0 1 .317.764z"/><path id="AR" d="M87.547 23.778v26.66a1.07 1.07 0 0 1-.317.764 1.07 1.07 0 0 1-.764.317h-5.044a1.07 1.07 0 0 1-.764-.317 1.07 1.07 0 0 1-.317-.764v-26.66a1.07 1.07 0 0 1 .317-.764 1.07 1.07 0 0 1 .764-.317h5.044a1.07 1.07 0 0 1 .764.317 1.07 1.07 0 0 1 .317.764z"/><path id="AS" d="M58.725 23.778v26.66a1.07 1.07 0 0 1-.317.764 1.07 1.07 0 0 1-.764.317H52.6a1.07 1.07 0 0 1-.764-.317 1.07 1.07 0 0 1-.317-.764v-26.66a1.07 1.07 0 0 1 .317-.764 1.07 1.07 0 0 1 .764-.317h5.044a1.07 1.07 0 0 1 .764.317 1.07 1.07 0 0 1 .317.764z"/><path id="AT" d="M44.314 23.778v26.66a1.07 1.07 0 0 1-.317.764 1.07 1.07 0 0 1-.764.317H38.19a1.07 1.07 0 0 1-.764-.317 1.07 1.07 0 0 1-.317-.764v-26.66a1.07 1.07 0 0 1 .317-.764 1.07 1.07 0 0 1 .764-.317h5.044a1.07 1.07 0 0 1 .764.317 1.07 1.07 0 0 1 .317.764z"/><path id="AU" d="M8.286 23.778v26.66a1.07 1.07 0 0 1-.317.764 1.07 1.07 0 0 1-.764.317H2.162a1.07 1.07 0 0 1-.414-.082 1.07 1.07 0 0 1-.351-.234 1.07 1.07 0 0 1-.317-.764v-26.66a1.07 1.07 0 0 1 .317-.764 1.07 1.07 0 0 1 .351-.234 1.07 1.07 0 0 1 .414-.082h5.044a1.07 1.07 0 0 1 .764.317 1.07 1.07 0 0 1 .317.764z"/><path id="AV" d="M80.342 81.783V91.87a2.14 2.14 0 0 1-.633 1.529 2.14 2.14 0 0 1-1.529.633H17.654a2.14 2.14 0 0 1-1.529-.633 2.14 2.14 0 0 1-.633-1.529V81.783a2.14 2.14 0 0 1 .633-1.529 2.14 2.14 0 0 1 1.529-.633H78.18a2.14 2.14 0 0 1 1.529.633 2.14 2.14 0 0 1 .633 1.529z"/><path id="AW" d="M80.342 107.002V117.1a2.14 2.14 0 0 1-.633 1.529 2.14 2.14 0 0 1-1.529.633H17.654a2.14 2.14 0 0 1-1.529-.633 2.14 2.14 0 0 1-.633-1.529v-10.088a2.14 2.14 0 0 1 .633-1.529 2.14 2.14 0 0 1 1.529-.633H78.18a2.14 2.14 0 0 1 1.529.633 2.14 2.14 0 0 1 .633 1.529z"/><path id="AX" d="M80.342 132.222v10.088a2.14 2.14 0 0 1-.633 1.529 2.14 2.14 0 0 1-1.529.633H17.654a2.14 2.14 0 0 1-1.529-.633 2.14 2.14 0 0 1-.633-1.529v-10.088a2.14 2.14 0 0 1 .633-1.529 2.14 2.14 0 0 1 1.529-.633H78.18a2.14 2.14 0 0 1 1.529.633 2.14 2.14 0 0 1 .633 1.529z"/><path id="AY" d="M232.408 56.924h20.176c.284 0 .565.028.843.083s.55.137.81.246.51.242.747.4.454.337.655.538a4.31 4.31 0 0 1 .538.655c.158.236.29.485.4.747a4.31 4.31 0 0 1 .246.811c.055.278.083.56.083.843v20.176c0 .284-.028.565-.083.843a4.31 4.31 0 0 1-.246.811c-.11.262-.242.51-.4.747s-.337.454-.538.655-.42.38-.655.538a4.31 4.31 0 0 1-.747.4c-.262.11-.533.19-.81.246s-.56.083-.843.083h-20.176c-.284 0-.565-.028-.843-.083s-.55-.137-.81-.246-.51-.242-.747-.4a4.31 4.31 0 0 1-.655-.538c-.2-.2-.38-.42-.538-.655s-.29-.485-.4-.747-.19-.533-.246-.81-.083-.56-.083-.843V61.247c0-.284.028-.565.083-.843s.137-.55.246-.81.242-.51.4-.747a4.31 4.31 0 0 1 1.193-1.193c.236-.158.485-.29.747-.4s.533-.19.81-.246.56-.083.843-.083z"/><path id="AZ" d="M235.83 69.533h13.33a.52.52 0 0 1 .54.54v2.522a.52.52 0 0 1-.54.54h-13.33a.52.52 0 0 1-.54-.54v-2.522a.52.52 0 0 1 .54-.54z"/><path id="Aa" d="M235.83 76.74h13.33a.52.52 0 0 1 .54.54V79.8a.52.52 0 0 1-.54.54h-13.33a.52.52 0 0 1-.54-.54V77.28a.52.52 0 0 1 .54-.54z"/><path id="Ab" d="M235.83 62.328h13.33a.52.52 0 0 1 .54.54V65.4a.52.52 0 0 1-.54.54h-13.33a.52.52 0 0 1-.54-.54v-2.522a.52.52 0 0 1 .54-.54z"/><path id="Ac" d="M225.202 64.13h20.176a4.31 4.31 0 0 1 .843.083c.278.055.55.137.81.246s.51.242.747.4.454.337.655.538.38.42.538.655.29.485.4.747.19.533.246.81a4.31 4.31 0 0 1 .083.843v20.176a4.31 4.31 0 0 1-.083.843c-.055.278-.137.55-.246.81s-.242.51-.4.747-.337.454-.538.655-.42.38-.655.538-.485.29-.747.4-.533.19-.81.246a4.31 4.31 0 0 1-.843.083h-20.176a4.31 4.31 0 0 1-1.654-.329c-.262-.11-.51-.242-.747-.4s-.454-.337-.655-.538a4.31 4.31 0 0 1-.937-1.403c-.11-.262-.19-.533-.246-.81a4.31 4.31 0 0 1-.083-.843V68.453a4.31 4.31 0 0 1 .083-.843c.055-.278.137-.55.246-.81a4.31 4.31 0 0 1 .937-1.403 4.31 4.31 0 0 1 1.403-.937 4.31 4.31 0 0 1 .811-.246c.278-.055.56-.083.843-.083z"/><path id="Ad" d="M224.95 63.77h20.68a4.42 4.42 0 0 1 1.696.337 4.42 4.42 0 0 1 1.438.961 4.42 4.42 0 0 1 .961 1.438 4.42 4.42 0 0 1 .337 1.696v20.68a4.42 4.42 0 0 1-.337 1.696 4.42 4.42 0 0 1-.961 1.438 4.42 4.42 0 0 1-1.438.961 4.42 4.42 0 0 1-1.696.337h-20.68a4.42 4.42 0 0 1-1.696-.337 4.42 4.42 0 0 1-1.438-.961 4.42 4.42 0 0 1-.961-1.438 4.42 4.42 0 0 1-.337-1.696V68.2a4.42 4.42 0 0 1 .337-1.696 4.42 4.42 0 0 1 .961-1.438 4.42 4.42 0 0 1 1.438-.961 4.42 4.42 0 0 1 1.696-.337z"/><path id="Ae" d="M217.996 71.335h20.176a4.31 4.31 0 0 1 .843.083c.278.055.55.137.81.246s.51.242.747.4.454.337.655.538a4.31 4.31 0 0 1 .937 1.403c.11.262.19.533.246.81s.083.56.083.843v20.176c0 .284-.028.565-.083.843s-.137.55-.246.81a4.31 4.31 0 0 1-.937 1.403c-.2.2-.42.38-.655.538s-.485.29-.747.4-.533.19-.81.246-.56.083-.843.083h-20.176c-.284 0-.565-.028-.843-.083s-.55-.137-.81-.246-.51-.242-.747-.4-.454-.337-.655-.538a4.31 4.31 0 0 1-.937-1.403c-.11-.262-.19-.533-.246-.81a4.31 4.31 0 0 1-.083-.843V75.658a4.31 4.31 0 0 1 .083-.843c.055-.278.137-.55.246-.81a4.31 4.31 0 0 1 .937-1.403 4.31 4.31 0 0 1 1.403-.937 4.31 4.31 0 0 1 .811-.246c.278-.055.56-.083.843-.083z"/><path id="Af" d="M221.42 91.15h13.33a.52.52 0 0 1 .54.54v2.522a.52.52 0 0 1-.54.54h-13.33a.52.52 0 0 1-.54-.54V91.69a.52.52 0 0 1 .54-.54z"/><path id="Ag" d="M210.79 78.54h20.176a4.31 4.31 0 0 1 .843.083c.278.055.55.137.81.246s.51.242.747.4.454.337.655.538.38.42.538.655.29.485.4.747.19.533.246.81a4.31 4.31 0 0 1 .083.843v20.176a4.31 4.31 0 0 1-.083.843c-.055.278-.137.55-.246.81s-.242.51-.4.747-.337.454-.538.655-.42.38-.655.538a4.31 4.31 0 0 1-.747.4c-.262.11-.533.19-.81.246a4.31 4.31 0 0 1-.843.083H210.79a4.31 4.31 0 0 1-1.654-.329 4.31 4.31 0 0 1-1.403-.937c-.2-.2-.38-.42-.538-.655s-.29-.485-.4-.747-.19-.533-.246-.81-.083-.56-.083-.843V82.864c0-.284.028-.565.083-.843s.137-.55.246-.81.242-.51.4-.747.337-.454.538-.655a4.31 4.31 0 0 1 1.403-.937c.262-.11.533-.19.81-.246s.56-.083.843-.083z"/><path id="Ah" d="M149.515 56.924h20.176c.284 0 .565.028.843.083s.55.137.81.246.51.242.747.4.454.337.655.538a4.31 4.31 0 0 1 .538.655c.158.236.29.485.4.747s.19.533.246.81a4.31 4.31 0 0 1 .083.843v20.176a4.31 4.31 0 0 1-.083.843c-.055.278-.137.55-.246.81s-.242.51-.4.747a4.31 4.31 0 0 1-.538.655c-.2.2-.42.38-.655.538a4.31 4.31 0 0 1-.747.4c-.262.11-.533.19-.81.246s-.56.083-.843.083h-20.176c-.284 0-.565-.028-.843-.083a4.31 4.31 0 0 1-.811-.246c-.262-.11-.51-.242-.747-.4s-.454-.337-.655-.538a4.31 4.31 0 0 1-.538-.655c-.158-.236-.29-.485-.4-.747a4.31 4.31 0 0 1-.329-1.654V61.247a4.31 4.31 0 0 1 .083-.843c.055-.278.137-.55.246-.81s.242-.51.4-.747a4.31 4.31 0 0 1 1.193-1.193c.236-.158.485-.29.747-.4s.533-.19.81-.246.56-.083.843-.083z"/><path id="Ai" d="M142.31 64.13h20.176c.284 0 .565.028.843.083s.55.137.81.246.51.242.747.4.454.337.655.538a4.31 4.31 0 0 1 .937 1.403c.11.262.19.533.246.81a4.31 4.31 0 0 1 .083.843v20.176a4.31 4.31 0 0 1-.083.843c-.055.278-.137.55-.246.81s-.242.51-.4.747-.337.454-.538.655-.42.38-.655.538-.485.29-.747.4a4.31 4.31 0 0 1-1.654.329H142.31a4.31 4.31 0 0 1-.843-.083c-.278-.055-.55-.137-.81-.246s-.51-.242-.747-.4-.454-.337-.655-.538-.38-.42-.538-.655-.29-.485-.4-.747-.19-.533-.246-.81a4.31 4.31 0 0 1-.083-.843V68.453c0-.284.028-.565.083-.843s.137-.55.246-.81.242-.51.4-.747.337-.454.538-.655.42-.38.655-.538.485-.29.747-.4.533-.19.81-.246.56-.083.843-.083z"/><path id="Aj" d="M135.104 71.335h20.176a4.31 4.31 0 0 1 1.654.329 4.31 4.31 0 0 1 1.403.937c.2.2.38.42.538.655a4.31 4.31 0 0 1 .4.747c.11.262.19.533.246.81s.083.56.083.843v20.176c0 .284-.028.565-.083.843s-.137.55-.246.81a4.31 4.31 0 0 1-.4.747c-.158.236-.337.454-.538.655s-.42.38-.655.538-.485.29-.747.4-.533.19-.81.246-.56.083-.843.083h-20.176c-.284 0-.565-.028-.843-.083s-.55-.137-.81-.246-.51-.242-.747-.4-.454-.337-.655-.538-.38-.42-.538-.655a4.31 4.31 0 0 1-.4-.747c-.11-.262-.19-.533-.246-.81a4.31 4.31 0 0 1-.083-.843V75.658a4.31 4.31 0 0 1 .083-.843c.055-.278.137-.55.246-.81s.242-.51.4-.747.337-.454.538-.655.42-.38.655-.538.485-.29.747-.4a4.31 4.31 0 0 1 .811-.246c.278-.055.56-.083.843-.083z"/><path id="Ak" d="M127.898 78.54h20.176c.284 0 .565.028.843.083s.55.137.81.246.51.242.747.4.454.337.655.538.38.42.538.655.29.485.4.747.19.533.246.81.083.56.083.843v20.176c0 .284-.028.565-.083.843s-.137.55-.246.81-.242.51-.4.747a4.31 4.31 0 0 1-1.193 1.193c-.236.158-.485.29-.747.4a4.31 4.31 0 0 1-1.654.329h-20.176a4.31 4.31 0 0 1-1.654-.329c-.262-.11-.51-.242-.747-.4s-.454-.337-.655-.538-.38-.42-.538-.655a4.31 4.31 0 0 1-.646-1.558c-.055-.278-.083-.56-.083-.843V82.864c0-.284.028-.565.083-.843a4.31 4.31 0 0 1 .646-1.558c.158-.236.337-.454.538-.655s.42-.38.655-.538a4.31 4.31 0 0 1 1.558-.646c.278-.055.56-.083.843-.083z"/><path id="Al" d="M221.4 16.933h2.522a.52.52 0 0 1 .54.54v13.33a.52.52 0 0 1-.54.54H221.4a.52.52 0 0 1-.54-.54v-13.33a.52.52 0 0 1 .54-.54z"/><path id="Am" d="M224.993 16.933h2.522a.52.52 0 0 1 .54.54v13.33a.52.52 0 0 1-.54.54h-2.522a.52.52 0 0 1-.54-.54v-13.33a.52.52 0 0 1 .54-.54z"/><path id="An" d="M232.2 16.933h2.522a.52.52 0 0 1 .54.54v13.33a.52.52 0 0 1-.54.54H232.2a.52.52 0 0 1-.54-.54v-13.33a.52.52 0 0 1 .54-.54z"/><path id="Ao" d="M235.8 16.933h2.522a.52.52 0 0 1 .54.54v13.33a.52.52 0 0 1-.54.54H235.8a.52.52 0 0 1-.54-.54v-13.33a.52.52 0 0 1 .54-.54z"/><path id="Ap" d="M246.6 16.933h2.522a.52.52 0 0 1 .54.54v13.33a.52.52 0 0 1-.54.54H246.6a.52.52 0 0 1-.54-.54v-13.33a.52.52 0 0 1 .54-.54z"/><path id="Aq" d="M139.038 16.933h5.044a1.07 1.07 0 0 1 .764.317 1.07 1.07 0 0 1 .317.764v12.25a1.07 1.07 0 0 1-.317.764 1.07 1.07 0 0 1-.764.317h-5.044a1.07 1.07 0 0 1-.764-.317 1.07 1.07 0 0 1-.317-.764v-12.25a1.07 1.07 0 0 1 .317-.764 1.07 1.07 0 0 1 .764-.317z"/><path id="Ar" d="M235.196 124.353l-1.066-2.17 1.08.548 1.08-.533-1.095 2.154z"/><path id="As" d="M172.573 139.788a2.14 2.14 0 0 1-.633 1.529 2.14 2.14 0 0 1-1.529.633 2.14 2.14 0 0 1-1.529-.633 2.14 2.14 0 0 1-.633-1.529 2.14 2.14 0 0 1 .633-1.529 2.14 2.14 0 0 1 1.529-.633 2.14 2.14 0 0 1 1.529.633 2.14 2.14 0 0 1 .633 1.529z"/><path id="At" d="M266.216 153.838a2.14 2.14 0 0 1-.633 1.529 2.14 2.14 0 0 1-1.528.633 2.14 2.14 0 0 1-1.529-.633 2.14 2.14 0 0 1-.633-1.529 2.14 2.14 0 0 1 .633-1.529 2.14 2.14 0 0 1 1.529-.633 2.14 2.14 0 0 1 1.528.633 2.14 2.14 0 0 1 .633 1.529z"/><path id="Au" d="M150.596 171.852h90.07a5.39 5.39 0 0 1 1.054.104c.348.07.686.172 1.014.308a5.39 5.39 0 0 1 1.753 1.171 5.39 5.39 0 0 1 1.171 1.753c.136.328.238.666.308 1.014s.104.7.104 1.054v25.22a5.39 5.39 0 0 1-.411 2.068 5.39 5.39 0 0 1-1.171 1.753c-.25.25-.524.475-.82.672a5.39 5.39 0 0 1-.934.499c-.328.136-.666.238-1.014.308a5.39 5.39 0 0 1-1.054.104h-90.07a5.39 5.39 0 0 1-1.054-.104c-.348-.07-.686-.172-1.014-.308a5.39 5.39 0 0 1-1.753-1.171 5.39 5.39 0 0 1-1.171-1.753 5.39 5.39 0 0 1-.411-2.068v-25.22a5.39 5.39 0 0 1 .411-2.068 5.39 5.39 0 0 1 1.171-1.753 5.39 5.39 0 0 1 1.753-1.171c.328-.136.666-.238 1.014-.308a5.39 5.39 0 0 1 1.054-.104z"/></defs></svg>